<mxfile host="app.diagrams.net" modified="2022-09-20T23:01:55.200Z" agent="5.0 (Windows NT 10.0; Win64; x64) AppleWebKit/537.36 (KHTML, like Gecko) Chrome/100.0.4896.75 Safari/537.36" etag="2gDjigSwRyM0bIVywgxR" version="20.3.2" type="github">
  <diagram id="vKg8SAkQFvsDv0_kXMwF" name="第 1 页">
    <mxGraphModel dx="2295" dy="728" grid="1" gridSize="10" guides="1" tooltips="1" connect="1" arrows="1" fold="1" page="1" pageScale="1" pageWidth="827" pageHeight="1169" math="0" shadow="0">
      <root>
        <mxCell id="0" />
        <mxCell id="1" parent="0" />
        <mxCell id="9X9BCAbFEXp9GJGX4D_z-74" value="" style="shape=ext;double=1;rounded=1;whiteSpace=wrap;html=1;labelBackgroundColor=none;fontSize=16;fillColor=#f5f5f5;strokeColor=#666666;fontColor=#333333;" vertex="1" parent="1">
          <mxGeometry x="-40" y="36" width="550" height="560" as="geometry" />
        </mxCell>
        <mxCell id="9X9BCAbFEXp9GJGX4D_z-2" value="Dorado" style="rounded=1;whiteSpace=wrap;html=1;fontSize=16;fillColor=#dae8fc;strokeColor=#6c8ebf;" vertex="1" parent="1">
          <mxGeometry x="160" y="86" width="150" height="50" as="geometry" />
        </mxCell>
        <mxCell id="9X9BCAbFEXp9GJGX4D_z-6" value="ROOT.xml" style="shape=image;verticalLabelPosition=top;labelBackgroundColor=default;verticalAlign=bottom;aspect=fixed;imageAspect=0;image=data:image/png,iVBORw0KGgoAAAANSUhEUgAAAgIAAAEDCAYAAABH8Wz0AAAAAXNSR0IArs4c6QAAAARnQU1BAACxjwv8YQUAAAAJcEhZcwAADsMAAA7DAcdvqGQAAHf6SURBVHhe7b17bB1Vmuj7bTuxO/GNHyImIBIcTzgkSNzgdBol945ypkOaRKOeCwlKLrrcVoYgBIPyR3ShBf8gXkJnlFbTV5EG0R1xgYlaOSciIg+d1ihAMHOivkoE6Tg+XJEwMI4JCIKD7DgnBju29/2+9ahaa9Wqvav2y3t7fz+p7F17165atap2fc+1vsyKO5ZlgWEYhmGYuqRB/WcYhmEYpg4pnUdg8h7oyy5QK8Rl2DP3z/CmWisty+EP11fAGrgIPXP/ot4rJ5U+HsMwDMNUhpJ4BF68fj8qAc1wquEICkq14J7//vpP1RYMwzAMw1QjKRWBh+EPvWfgw70Pq3Vk8h64H/8NZP4FHm+Ubwka/ww/Z+vZ5uHfw4dnzsChF9U6wzAMw8wwyUMDJMR2rYH2kVOwZ/0/BC5/8gbcnzAMILcNGcmcg5/POa/W9OcXoSfTboQZJuBUg1Iypv4aPpxeCO3ygwgDmSOwZY5aQXZM/i3syjapNed4wb6uwpG5H8Dz8t3gO2LbzMJUx0vCjr29sOvudhj5aA/8/LG31LsMwzAMMzMkUwRePAh99y1DyXcEeh54Qb1JJI2d6+0MhSEQxOF3Q0VBb+f5niD/caMKyk/h0PUl0OFVBtR+1Do4CkrJcwR0fzpKFcMwDMNUmryhgRffOSOE1sDRVY4SkILJW1CIkmVvCPPGP8M/ZybwRTvYnnJTeJ+Hk2KbZlgq1hOCAv1v3OPBX+Ao7qs9uxB2qHdE+CJzFV8sgUOTKOyVUmArAWXg+a3Qs+oIDLSvgV1nDjrnzzAMwzCVI4ciIPMB7u8egVN7VsEW7TsvgB0oyAFG4aSZQ4C8mRmFEfzspin1RqnINqNAb4I10/dD3/VwkWECR6mY8wHsQQWhO0sWP4UJSmDxJ+IF2LJqD5waWQb3c94AwzAMM0PkUATegsfXr4IjA+2wZlecoDoP34r/80Iru2ogj4AxiiFYwnwAzdIgj6AMSkksL8ChM7tgTfsXcGRVcYoWwzAMwxRK3tDA8w+sgp6jX0D3fWeg751oaOB54VpfCPdNynUfb8I4/m2FtY6Q3ZFtRct9HL51PAVFkxmHEWiCGxOkQVJy4P1KaTgivAh/XX6lRoweuB+6KUdg1daIYsIwDMMwlSLZ8EGKae85BSPd90Nf7+9tQTnnaziF/7qzfwt/MAU9Jd7peQTmjMCAK2Tx878X2flfFyAItSfCzS9QNP4Z/hX/RdrkErTh38WohOfnXsR2LoRdkfkP8hwvBTRqoG/XGoCP9kAPJwoyDMMwM0zKmQUpb2AXLP+36NA3d6hedGZBnXkf4g6/8w1FlPsdt4b4SZLuzyYYQhjMhOi0M3jfHSGQ/3h5UUMwh49yKIBhGIapDrjoEMMwDMPUMclCAwzDMAzDzEpYEWAYhmGYOoYVAYZhGIapY4pWBP7xH/8T/2cYhmGYGoWTBRmGYRimjuHQAMMwDMPUMawIMAzDMEwdw4oAwzAMw9QxxecIqBr+7WpVQlX8osV9GIZhGIapLkrkETAr/Z2DU7AA7r9+D9fZZxiGYZgqJ6UiQLUGzsCHex9W6z7Ow+OiImElS/oyDMMwDFMIyUMDqmBOO5XONavmidBAK5xv+BdRwU8gCvc0wynzPcQtTBQUADIJiv6ERIv7/BQOXV8C3WpNeiTMY8nPO6z966JBRjEhcSyAI3O/hpusgkJuwSHEaZev7YnOj2EYhmGqiGQegRcPitK57QNHEpTORSEsBOYonDSUAKoEuCs7CntE+ICWizCcXQEfTi5XWyCkVOB3SfDLbeRiKQG0jRLy+vM9GYA10/fDoUm1TSoojLECluv9NVyGEVhi7YsEPCkBZrv+GW6xShwnOj+GYRiGqTLyKgIvvnMG+u5bBgNHV0HPAy+od12ahCDuQ2HYFwhpo7QvCu+/EVa7WZb4L3A0MwHt2YWwQ70D2WZox+2+Q8Eex4siMfEy/LNhab8559/hFP7vzv5UvpESEvCB5d74Awzjvw5QAhzb/vdo5ZN1byokb875IPRAJD0/hmEYhqkycigCMh/g/u4ROLUnX/18nSxIiYKAwu8WO1FQCHhTWZCLdKM3w1K5FcCcr/H74XZRC3853IR/RzKXHa/EeTiJQhdgXgFC11U8/gJb0KIPFAOlnJzP5HDxJz0/hmEYhqkycigCb8Hj61fBkYF2WLPrDBxKNATgPDwuXOsL4G8iLnFzZIG5mMMM8fvq/SO41p2VArU23OtJzo9hGIZhqou8oYHnH1gFPUe/gO77zkDfO3GhAYPGP8O/4j/LK5AZR+WgCW5MMWPB80qQkkIQutfPw7fWumY5rBXW9w958hcKIEnbCzg/hmEYhqkGkiULPr8VevacgpFutNB7f5/X/f68GD5oeAWUctCd/VsrwS4/MhRgCni574Xw94aXYMfkX8EaYZHrTP9r8B3+bc+2yNVgxEABxLR9x+Q94XrB58cwDMMwM0vKmQUpb2AXLP+3PfDzx96Sb1EWvzt8MBC8l2GPkTRImfX3q9cac4idO/xO4hnKJ45pzmbomcnQ2YYSAvuzdHx3+GB0mKOPJEMD850fwzAMw1QbXIaYYRiGYeqYZKEBhmEYhmFmJawIMAzDMEwdw4oAwzAMw9QxrAgwDMMwTB3DigDDMAzD1DGsCDAMwzBMHcOKAMMwDMPUMbNXEdj1C/jg6Bb44NXVuLIa3qTXR38Bz8hPPehtfgm/26reimPrOjiE2765S62r7x56eYVaLzHieAnaVWGeeRX764/r4CG1no4V8Ls/Un+b/ZgWvQ/ZNw+9/Euxv7JdB4ZhmFnI7FUEvh6HK/jvyvA1/HsNhkfFuzXJM+sXQtvFb+HJg+oNRnEOLtFFhnG4hH2zf2hcvMswDMMkp75CA6PjcFG9jHIadtx3CO65709VJnBXw4olAIOfnVbrs4Vz8OSvqL8PwY496q0SMTJ0Tr1iGIZh8lEnioC2HGuPh16+CbpGL8N7JRaWsxLlBWIYhmGSk7PWwOa982AlTMFL5zPw3EatM2Thwhs/wr4DalXQBE8ca4ROtUYMvfsDvPaKfK330w+NsLIL3xg09jk6Db3bxuGE3BTgwWb49SMNMF+tRj4vIRRTfnSlW+ToKhy7733YrdYkFIu+A3pa1api8Li2ZilH4FYAXD93+xbYhBa8AAX46786AfvVqoZi68E2MAF9++K8EPK43Rc+hS3PRq1ct/1X+o3tKK9g+0Joc85Hf8fa1nN+9ucKyrvYsECtKPQ5iuO1wsDxUejeQMel8/oCL77cb9hX7rF85x+e99uwzDhH37VhGIZhiiG/R6CrEZ5bC9C76Qd4adN1uDCagaVbm2Gd+hhgDmx/OwPfiM/l0ns2C50bfwLbH1SbELif20auw0vvTgN0NMCvaZ9vTMNYawPc+ZTa5qlmeO6RDHz3Rriv/uEGWP+2ebzSsf/ZPwnXtF5e759Qn5iQkEfBdeXLcNt9l72WZ9eGLbB2+FO13Zcw2LoQtlmJayTgSAkggaaPi8JyfUzC3a7FKDAnYKAvqgSQMvHo0lF4PdjPlzCy8o4wUe7gCdgi2rkANomESQSF9baIEkD7WgZwWO8Hl+NXoQ33ZSbxiUS8Dc0otMPtjkXiLE3Qg9ucvO9T6Bttgu7Ny6DjI7ld1936HMOQAB0nF9SGRzu+VcfD/jTPhWEYhikJ+RUByyKfhIGBLABaczeIdWIS9uHnh9UaceJ0FsYgAy2L1RuCafj86Un5sjUD1066Vj4qFGsbYOws7s/wNhw+TspCBrqVUrFjby/0nTnjX955QW5UQoRrnizRnflj9LaAPQ3voWLRtrQzEPIPvbxMCPa+faZVi4JxZ9RrQDxzO1rfviRBFOhrl+B+Dpvfix5PKAMkbJfcikIdlZDNlHT4ZcTS373Tscj3DKPQBWjv1ErMarhXKBBf5M2fuNL/VXBubTBaXEgD23pP0O+n4RwpHm3zCxylwDAMw/goTY4AWfLH5oWL6drXjAJ8r15SeOHaV+plQAO0oIIx/665nn2FSsWbj62HnlWr/MsDpVcElnQ0oUAaLsgdLbLYW5tBRwHEvkZH4eM8wlQghH1MkuAtzShk0freLoff6UW40I3jCfa8LzwdXRvIHR+j0JBb39jPB0dvReXHYOt8aAe/Z8LFStS7MuZVcBiGYZjqoXhFgJSAjWTJXw/c+S+Ry199nBZrP8ai8w1qiYc6m9Wr9DzU0wptOZMEybMQuunDJRpDFwqIoBkWuXMRiNi+9BSE+yA3PMMwDFMPFK0IrFuUwb+G279gpuHaKMD89txNqnRoQOC6o4VFnh/pAQiHLF4cnoha7F5WwM+WNsGVC0N+i1pkxzdBxy1qPQcU299EYQRUGo5dbIKezU4+gjgX/Lw3X+jDPd4KWJSkExiGYZiqpmhF4MQlGnSQgVadGOhm/SdmEvadnBZJhb/+zRz1XpRKhwZ2f3YVhfdCuFcnzvky533gdjQyYPCjMI6//9lvZcKbNRvfCvjdq45wFkmCV+Gkm7WvOXgCTlIC3oY8sw0GyYFfiNj+7p0ygfFRM+EuolTIERBWaODgEAygkhYm/LmZ/wzDMEytUnxo4JVx6B/MwNJHdEyfsv6nYEh9nArcF40qiOQJlGnUQCKCGLuKn989Dq9HXOdy5kLKcg/i7CrD3p4shyYt+hT6AIVxEI9fBtBrJwvKJMHceQm7dyoL38kTCEYNkMJCLv/Ry/C2kcC4QyUPyqmXEVQq3jbPTwyDpKx/+bGEMv2VEiG2uUOMBvCPssiHnsoZF6FQGefAIwIYhmEqTs55BOoNMcaehuR5xv5XDBWzHwnG3TMMwzBM+SjeI1CzoGVquejVELm4uHyFyJ8kyDAMwzClo749Ak683zubHsMwDMPMYjg0wDAMwzB1TB2HBhiGYRiGYUWAYRiGYeoYVgQYhmEYpo5hRYBhGIZh6pjZmyyoRwSICnagZsvLVc9ez6hH0/G69fEZMccCFTVS8AiLWkPf3/I3AK9SOWyAQZ6vgmHqnvweAZoy+Ng8eOIptV4riKlzUWANX8O/cuY/pnD2P/unkhQkIoVCz4IYLNZ8DmmRMxUGMyoWQaRts2qmQ/UbULUvRN0LhmEYpL5CA0YBoCg0/S8JOvYGlJ3Ry/B6UOnwEBy7QlMX56mbUGaeQQv50ZXjaC2H7brns46SKBjVywQMf61eMgxTt9SJInAOLpF7gKlKdu+k2gaeyogVYzWsWELhjq/ssNGe92dt+GP/0Lh6xTBMvRObI7DuNz+B9XdRiWEf09C/aRwOQxM8cawROgen4KXHbFfj5r3zYGXHNPRuG4cTajt49wf4Zjm+r0vbjerPDdzqhb5tSoQb95b48gh0fDXEjK3K/ZA16XxP5SlYcVhnNkP7eGFVP+s7qv4ATT2cug5C5Hj+uDBZxBQzNvHnAci+aC8wR0D0laeeg+xDsPIzItfHPH/PeYW4eR7Raon2uanrK/JJ8pRj1tdCrUbuF2+tiGifhf0wBvca95avz91+8F0/dxvO4WAYJimxHoETT/8IL236AV56YxrGcH0IhbhYFwspAcQEfHIW9YiuDGwW65omuBmfbEMnbQHeuRGVAEClQexjCoZaG2D9XuNB/1Szql4YHqt/GLcpU/XBMO4tF381PRIiHXDO2c4sAby/bxSuwAJY67iRRRVBs24ACYnbh41jkiVsliWmKn+y8l/Xhl/AM+I9PP7mApUAOp5SRMJjukKEzg+VgDbTXV9cHkAhSAvVKIeMgn4bfGG02ymhjNa62VYSfOG2dnjnmVeXARzWn+Fy/KqoFPmmLi0Np+E9uvZUlTFXiIKUDyXk9b6OXcTrV2hYQ1RzpGqPZruWWfuSIQtSkMJjnrtd3xsSsQ0pFepz6pMRPL/ZHdZgGKZUFB0aOHE6i4pCA9z2mznqHfImNEAnTMM3r6g3NJbnwFUi5sD2tQ0wdnYS9h0QbwgOH0dFpDUD3Q/K9R17e6HvzBn/8s4LcqOSQsLZtvSl4DeE1sETcPIiQNvSTquIkXA3m0WMcLstlsV5Dj6+gP3R2gyhMa5K/qJisQmF3kMvL0NLFq3OQioi3tKMlmueOPCuxbh/tKAPF7D/chJxy5+Gc5Tg0TY/dfhg904n72PPsFAe2jtDQSmUwn2XxXXVZZFtQYoK091yFIqpSO3eSdeqCbp7ChG65LkwFDOR4GorQzKz327/7p22B2LtEvf6ScXGvh8ZhmH8FJ8jcGAcPsen6vzuRmW1z4Hu7gwK9CnlNQgZG5lWryQnLlFUIgOtQsg3QEsr7ueuufDcsXnhIsIEGWhZTNsAvPnYeuhZtcq/PFAORQAhS9DMJrdcw5Ldn11Fgd4KP9PW3K4OMVTrpOOeJevN3Fc0NEGchh0klNBCpc8Hjzshh6Ts+UrG3pVgCy3gkIc6mwFGR+FjU1DOGKbSIj0VZl+5oYvEkGfE2M8HhiveghQ1ZVUfI8UOrepw5EALdFDI5jM3dCAVlLaOFrWehnG4ZPa7Or5WDMS1wXvonOXBcRDKXniN9SLuK0vBZBiG8VOSZMHD51HAa6v9wUa4sXUaPn96Un6YlyyMGh6AsbPXg7CAubzmehcqhYpFW65nYTk6KKGrLUMRFrg4bAlwGYeXVqDelz8cgYgHvMS0XNNB3oVQsHVtkEKiGl3GUuhpwUhKAMX0Kf4e9hWdQ2pUzL6N4v/BvvKHPnbvVNdmyU0zOpohGfY9FS4FKpAMw9QVpRk18MoUXBjNwI2r58C61RkAjzfAx7pFuO0owPdibRqu4ev57bmbVOnQgLbKXMs+inTzS3cshQXw4dxrWo8rYBFJ9ovf2m5qHyq2L5QPT9y4EEiwkXAQlq7rMnYtx63zoV29rAyr4V6yYAPFSVrfkSz+QlDhEftaFIIch991uzu3gAoBifkqSovMm2iGRbmuvRtOYBiGSUl+ReBAFh+BAJ3LfS5szSQMDGSFW3/9XQDfnU7gDXiqWYxKCBMKJ2HfyWl80jbCr418A5dKhwYiD2NtYapVE5E7QOGBlzugK+JuV0MYjRh3JCteECYHvk3Kx573UXiT69dOEJOE7vNkVr5SRq6MBfHkSKJjjvNLTBBK8bXZRY/IQOs/yJ+QQtd0t/tGNUjUtnHx8IigjI4AEeccmTxIKydacVP5HEtutUIsz7wq2x4oigfHYAT/hV4cz/GSEoR23ORAY13lp5jJqwzDMGlINsWwO6QvGD5oEj+UMPhMrUmycOGNH63EQAGNHNjo6CdlHEJoIgVzdBigLYTIDfstdGyX2d7uMC69rW+IV0Qo0EiAj5rh0Q2gjqk/p2OYCWKGsLTaFu4vybAzgW+InAp/SOjYXwBsvgO6L4T7jBfEbpvM4+b6LMQ71M1VSLDdrw/f5B16GBW2dv+5xxw8/ikM322fn90HEm+73O18ozkS9GfcvebD7fvihn8yDMPYlLDWQDhXQDSeLz9rOXsdfps4d6DyiIezV9DUG1KwFjpXAMMwDFM7lCZHgIb+vS29ATOW1JcaFHbWHPfSFWwN92MYhmGYWU5xioAqSPTcsbmwdNgXEqhmTsMOcsur4VY0pIwtYIZhGKbemL1liBmGYRiGyUuJQgMMwzAMw9QirAgwDMMwTB3DigDDMAzD1DGsCDAMwzBMHZM6WXDdb34C6+/KeiYUSsbmvfNgZZesKVDNcwqEuJMh+SZTYtKgJ/gRE970dcqJgwops1xp3EmOKtpmXX8hbrIqE7XtlXDyKDHhEJWansE+TjOJkg89aRJPlFQc7gRbVdWfwW8sOhnZTFCzz6qUsEcAIeXErHhoT3E8Aa+pwke9VDa5GqDZF6mtbzerio8K8X6zKutcvchpmwFGhvDho6bkrQmc6oQMk59wGnC5zPxU0KLktriP8xffygUJyfC81GLNzVL71OyzKiUVVwQOPyaFanV4A8janwcrO6ahVwl7Wk7BHHjiKbVJ1ZKFMVAVH2cDRv0DxkdYSTK3N2D2ogtn1Y43gGbolFNLS8FLFS0BerbPoroQZB2rc6Pl2JWF8Ggxyk6gbM+8NyCWWfisqmuPwOa95PKfhn6njsGJp3+siRkSvxvIwtINTi2BmkMWDWKY2YYoSIWCUhQPU5A1LoqIbZ5dlrNm985PZaGsWXl+s/dZlT9HIFJwiDDj5GGNgU8WUf5ARrzrxtJ1boBmyK1JoI5zLVKrQMXorWJGNKXxXFjaqlY9BYzE8QC/czxjtT88bvr6B/nyI9xzBF8BJk9RpUhfRPISEHNfYh8ZPOdpaHkkA9/o9oj3wW5f5HjmdZH9eOPAFHzX3Sj6k3I3yCMirqPbfndfvvMrIW4sM1IwScQTW2Fg35/g0nqj6E4khhfG1zX+uKi7XXycMl/MPUmhoLx4CiG5BZU0kb4ijP4S7QFc/6zDKYgU3Zd73IJjyG5OhcDsU1nTgop3vddptt/u97x9qY4zEuljVYzKum/caxztg6Cveudb7U93DXPU6xD9qwuNpThepD9jrp+7na/QmCBHGwWq/9Sae13EPeepzSLvRQjaFm43Bvca+7PuK7fNnji86CfPb849nsD97RT87KgPcnsE6MGvhLN2m8fFyTs3zoP13VnlYr8OF0YbYOXe8MGkQwIvofAaU+9ZHEBhhNpW51o37p1BgYiC/rgWOCQkSXhdD9r00rtoGT/yE9juusm7GrH9GfjuDbkdtb1zo4qhP5gBKnJ77VJpQhSkJNx8XrVHn6dbUpmUHRSkJPiD7XCxlYCwboO5jV/gTsAnZzNwW1zZZjre8qyxH3VdnNyC+XehQnRS9s/87jmwpn0a+5RKQjcEfUrnJ5UMY18d2L/GNS4l9KOXiWXa7fglDC651RODpDK96kGqt2tdCNuMsszPvLoMb0C9H1yOX4W2lXdY5YTlQw8FBOCDIDjmMKyIlCfOh4wJh+3BZd9laN+wxTleAva8H+6DFmy3j2hfkVWmPjSh/rt7PDg/n2VKD1V6gJIQ0sd9Gxand/XSgxgf7CSc9X5e7/crjV3YN0JQiO2o7Qtgk9HvOiRA/UiVvCMcHIIBPN+uu517Y1cHCh0Ulr1aAMhrbLrq7zk+7nfVU18JQSG3o7Z3bUhSVluxdT604z8RW/ZilDYn8h4P244Prrd1u3HxlidX/Q4oZPV2pPylvvdIUKLQJiVN7+f1/mbYlKC0uIyrm6W/EfxNPmruT/wGl4X9niD/ZvdneP/jfu61zmUF/GwpPoOCcuH6HiZFS7cd76k27N/Ibzn/s6NeyKEIoEBaix+jQLIFVQwkuAIX+ySMDuO/jowt1HMyCftOovBptePem5djG0azMKCs/XW/aYDO0Wk4ZVrxr0yhgMvAjatdgUjWb+gpOHGJlJgMtJYhrh4JJyjFZn670cWLcR2VmmtfqXUvDdBClvkI9kUCTpzGc0Jr3tvPB8bht5YCMQkDA7g97v8G9Y4A+/MT3Xb87LtA6dI0wZ13ZVCBMT0h6np1ZYLkxBffOQN9Z/zLh3sfVlslAB9Ca1FDHzxuWuOnYQcJwtZW+Jnz0CbLItT2pfuurYPUPMnunY7VtGdYJEm1d5rKAlkqaPFY1gAe02tJ5WDXYrQ2cT/m9/AhdxIfbl23p1UqEuDtqxgca2d3LwpWsz9xX9tUhrRpie5/9v2o1ZkTVIbuRmsMrbBEFjRZa0G7zsElkvZt81O4ls/Bkx9F741nbsc2jI7Cx4GAuCniqoc9XwlXdneP+/An6ze8b6Rwc4R3oXw97lFo8h0P70XHUhWC0doGlQWygrE/LQsfFcrkngzJM+vROneu3/5nv8XfzQJYkVapEJD3wvBwiD5wlIV8iGvl/I62dkI3PrMGPwuVPSoeZ/8e1P2xpCOixOR7dtQLORQBKZCGzvu1eBdXcAkPgBN7z8srWRhCQR0K9Ca4uQvbcDLczw3tGfzBN8B6I8tfFD3CtlpCl8CL+r16KXhlHC1ZO4RQOshTEW2ThVJYlj4it/EnJJKVj5b5XXPlfvJZ3KRw4LW6Mya50R0REYZuDIazxnXKwqjbP8p7Ql4fc18yTBAqVs8/sAp6VvmXnz/2ltwoCbc0Aw0fOuc+vIQAjz48bKtLJdW5bkAru9l0dxIrYBH5JC8O5xemeXiosxn/okVrHU+5HlMJt4TE9VUSRBa00Z9iXxMw0BdnxSalBTqsh3NurgxfU68kwgOQ1j2r7o1QoK+GFaQgfRTuZ0kH/paEZWpeGxkmiDz8R8fBMkyFd8ZRKAtF9LNDguMJS9dsu+n6JpQXImm/x6N+D+SlMI+nfjemAh3PBAx/rV4KxuGS2XfKA5BOQTkHH19AeWQI9Ifw4tFwvvf0flQfkJfJarvoq6gil/fZUSfkUARmAiUEtYUrwgLT8I3rkUAL1szyD5Y08eoDaJnjv5ZFMW71VKiYvtUucsOrjwPQit4mP+9Hk1QLVnu4ovQuiH0I93yjFLruUMEAaZl3Lo8qDDJngfIndJuKGwLphjTkUi7FqkSQEkCxR7I6A1dhccOm8kPWnT6WsaQVbuVGPTRnB6fhvf4JaFvaKZUtERbwKEjkFfFdm1I//NVQM5/QlMqiIxjzIOPgZOkabY4JFZUM6zcTLvnyRQo5v6TYXgkZFvCVjrf6KVhKpMjNQvIqAq6gFBZ5GSFX95gKD1BYYOzslJWY9/2Ix7VdEBPwDUoDio8XPe5eWcym5yIfOmeCFIJA8XERHgzcjhQCJ2RiQZ4Uw0UvmQOtHfhvcLp4QZ1QaSpZaEC4DT0uSBXztS2NPCgrN4wT+yjEHe2npC7kxLjHkxZ5XlTfBP1ZiLs2B64QFBZ5GdnfNxqEOigscKX/K8vDc3EYDYXWZtB5YeXlNJxDEz9QTAJ0TDud90n0nWn5+sihfKSjmN+DdM2XwrvmR/arCA+IsMBVOGkqJiXrg/oihyIQFZSRrPhyIGLrFB5ohpvRmv3utJ3Md+LpaRjCZrsJb4Vw+DglLkb3RYlxqeYRiAhKd1RDHEpYW675KOsWkfLlcdkHyKTBm5erVUE0T0OOeihEkQvDFbn6pWShAZ385SZLifhnmBSUiIhwo4QxNzSg4+UL4VEroQi3TZssqGLOkSSuGCjRT7guUyclKpRLvGe9/r7//KJ4+lPnMmywk+ceevkXnmRBmRRJbT8USa5SQnDl4qAPRMZ3uSWwuG8oPLAOViyJhji0NbmphJPeBO56zz71PWUmnz308rJoDkkCIkqMmxUvUF4RNxEWt02bLOj/PeRD33vpzy8NIjdiSQf8jsICEYUjpg+YnOQZPmgLNDEt8KVGZ4hakmF4OQQjudPdXAI9TC12eJpneB0KSnMIoVBaaKKgvHkK0bZZ0x97h09KrO2coXX02eftc+UQRnUOXkHsnmPe4ZqIOBYNHzTc8sH3okM7g36ivj4JsD64furch2UbZPvU8EjPMRK1v4S4wiMyjE25/aPDxmy0W1UzePxTGL5bZo/bbk5XiJKL30g68j58JfZQL3eImiQyHMzcjtyw+R6e4vjN0SFjOvwhVuSQMjEkirKh1T7dPiAi/alwt/VvF/aV/3O7D8Q2Q4ux/eGwOb2P+OFrhL8vBU7yo0Bfo9j+dK8xYQ/DE/ddwumYg3vU1xbCujaEc08hyY7n9gPuZ984rFVD4Kz7wb1Pnb6IV8qctkXaToTbJL2n5HZ5ppZO/NsidF/Y183E1zarHxI+O+qF1LUGGIaZIcTD0hSkDMMwxVNlyYIMw0jI6jHDC7guhuSVK/bKMEy9wh4BhqlWXNdskvABwzBMSlgRYBiGYZg6hkMDDMMwDFPHsCLAMAzDMHUMKwIMwzAMU8ewIsAwDMMwdUzFkgXdWQmjNfgN9OQ8vsmGfKjJdKhccqJKiQWhJ+exJy5i0qMn+xCTj/R1ysz4uAlZmNmBGAHhmfxGQffENvgiZmIhmgToJhiO+S4zc/BveXZQ+VEDSYR2JRWBxN+tpCLgznY4y5QPNYuYnDFMzfTmeXhEZgdzh895Zz4j7BnSxH6o3n2Oh1PkWBrPkL34duWYBU8QPxNaLvL2A+JuY8/wJvuYasHbs6jZM/vpGefc2eHE+2qWwvhZ6STRWeAI+zgB4vo1w0m8Vhex/VIRaPEKfXl+UFD/hah7Ta2FmNfFfw295+Xef849LPvKueb6O6mEpb9N7nUSfeS5z2XfRWf2C66ld1iqPGZ09k2HhL9lpnqYN28eXL9+HRob58D09JR4XZ2hAV1sJ20Z47IyAa9VpNoeKRxq2l9xPKoYCKJ0car6B7XGlTHrwUEPKfnwMqqHfdbhmddePqTtKmOFzrxHCoSzL+sBSQ/HXO1SZUzV+6/3T0jhEGybVojlO55E9BUJAP35vssAK+/w9lVeRrHNkUI5IaJEsD6OqH5n91lUCaBzQOGAwiYiUA6egLf7m0XJ5ns7xmGkYzGIUreeehL7n/0THLvYBD2bi68TQAI0OAexRK+LuQ1dRypr687f/4HwcOh9fAp9sBAejdQcMEsjo1BGaR5VXJNht/tLGMFr7KtxkAwq04xKSr+/Tn9ROL9lpnpoafmfhOBvbv4J/p+ApqZm8R7nCFQZm/eqcsbG/P0nnp4UJY071xZfaKn6uAbDkXLNspa8Wz2OarTntE7KjCwYQxaeo2iUqV2JjocCSVidhw0LjGq9o5BuW7nMUywoH6MwcGUh3Fuigi35iuyQgCfBdg4WQFfbuFRmYrbdvfNLGHSK+FQCWazIrGiHli9awVf6vzAUCFICzfbJmv6D/aiUBYoVVR5Epa4k5YNPww5U+NyiRokRlTzH4dKzVLTKU+mzIHy/ZaYaIGFPy7Vr/wMmJyfF/+npafF6fPzHHIoAucyP+axQsljnwXN7TTeqes9YCrJeKSRg7sc6hgm5zo3tRLGdKJSXELc/KqBjfrdzo7lts1HS1z038zMb93i//o1dtld8Tm2wzvMnsD0oL9wEN3cBjA1MOZ6QSRgYyBrll2Wb7P2rPnH7TF3H4HiRqo3ye2JfMe2SfWW2UxF7j+QBBRk9/KX1qKxoz8O/rYOKO1cLunxsyuqHBZPseFRuF0ZH4WN3G1WVsJCSwh9/dlWWeS0aVS/eVegMyG1N1ftWwFUYvNIMj3qrGWp0ZbmwquGMoMphu9UNg6qL5n07NAQD+MOl0siwazH0XFFTRJeiHLKq0hktdZwfcd+I6aqNsr6FkPC3zMwcDQ0NIgRAwt+FlABSCOIVAVEO2GOFPpWRcfLj2mIlQZKBb5QbW7qysyhYPYIjHzoksOm6sID9RF3nL71B5YRtSHjdfD5sk9imqzEQniee/tH6LiUvBtualf6CkIA8Lz9SmIpqh3ofuF+4a25UMGMbnlsLajs6zwws3ar6+MEMxIm+E5fo2BloTdOnJNgfycB3b6g24dI/3ADrPSWcqcSwrCqpthsM2yVLP1NpaFuxWbc6A/NHp+GTkidoygc+LLkVhYRdEnfmkDX+rwxTwelKkOR40urM5YotqC47lVJuu6n4fhf14gFGhmK8JVvXwTYV9nhvuBnah79SLu94T8b+vlG4As2wqIL3xDOvUl5BKPgf6mzGv2hNxyloVh3/c/DxBRDhARK+g5+VUkieg0tX8F9qpUJ63HRbdFnfGVWumLIxb958YfnHkVsRQCt030kUZq0Z6DaEz+bl+JXRLAwEcXLcbpspOFFwnM6icEWhtli9UULW/aYBFZFp6M9T+pYEvZX8pxSb+e1liIY81QhLW1E5OmjkNBwYh1OkOHRlbA+ClQDpWvqSa5fiL1pyUDlZ2wBjZ/H6GDkNh4+j4uNcUwG1y1CAvh8x2zUB3wySstBoeUruvCtjeS9efOcM9J3xLx/ufVhtlQzhMibXJx6nZ3tc3XsJxW9FTXi9FBw3XSDi1ea+CoqzVwXFuGlD4VUUtzRDG1r65yJ5AwoKYUTyOU7Djly5FAfHYATviWLaRrXqzWvsu1/MbUSJ4IT5HReH9XNJKnIEKS+wdDGsaMvRF5VEeDSMtnw9jr+zUoUHmGojlxKgyS0VX8k6lqB0XQ+ddJL4XJd+jKu+FNzQnkFVNmspHn5cl76ZhV9a1i3CNlnKkUQrRKmseKRlkW15F0YDtOD5Ckvf7AdxbTxK2nDWuqbSYxIqBkKBwH3erMMAwjM0DZ8/Hd5kzz+wCnpW+ZefP/aW2ioFQlDI5Khj5HKlh/OrURdmJFmw4IzlaLLgTOYkFEcoiApBCK8iXfDSck4GKX6V6utIsqDnftHbiITP1uQ5E0s6HA8ggffxySsLoEuHBQQl9GqMjgP+PBIjw0nGd1SIoTThIKaamDNnjlgoKTAXeczjCfgErdr53Y3Slawe/t+YljYpARvJ8rweuJ99rvrKQkqASrrTbcoZbqgSDmTRjvMjlA3IwmjKEQvWdTGW1MMsdahouXzQkWdo7OxUAoWsNFC2ungoLymBy7ogpIVdubyFJMdTrmHLFa3YOh/a8V+sWz4fJLwuFmcl7h8aV69KT8HnlZL9z34BpBN13R16DeR5+QR5fKhGjLbQsXNhgZeC/KGhKDIsQMoN5WNIr4camsjhgVmH9gbk8wrk9ZMLq1a5kn0PfymgbMuw7HRk7Bg3WreWB0LF2iOeizIh4vced7uIoacS3soFrxWvgDnQ3Z3UE6KZhmv4ACtdKESFikSogzxD0WteytBA9UHu8koqIsmOJ+K7rSoZzUAOU7Nd0ZF8AaEs+JLeJLTvoqzEcricVZuHv1brZeccPPkR9bHhFVCJmJHwhMqJELH3SrSTkg/18TSefAHhpRCJgYhKdOwLhj2qRYThODxQq9CIgLlz5wrr34USAul9+jyO/FJCWIIUHmjGh38WvjttP/wjSWxqgp5yhQYOn6e8hQa4M3BRS4+EhbKsQxc7JfPFhAbUttrSLQgVQgmS/gjshzUUQ09pNcsYfgOst0Y4zJE5CEGCpivkfeenBXeYIFk04jwbYCV5WzxKSclCAzTpSiQEsBrupQlzKpa1H0UOI6OchV/YltOuX5QllyDR8Sixb9QZXy+S8Jpg8LiOv/uy7VfA7zbTxDaeEQcakTTYgVsWSBlczlLByZGoVw6E4De9Aro/zaRG1Z8Xv/TMpVAG1EQ+NBmQPp68XxbAWvNeFMNLQ2VBhGt811zkXpT2WjGVgZQAgoS9z/LPZMhYBxEe8CkKRLKZBbWwHZyClzxJevb0wTQL3jS0PNIIEMzWl0MQG8lzlOm/HoVnFHtmPWs78f0s3InCKTwe4igI5CL/vH0urATPOUSUl2no1/HxHIoN7fO3gVUcPUd3GmXRTzSywJgoSZ5LNjwekas9GmcbOtY3y3H/7vn5FCUrYVG1m0Zh5EnAJGR7ofwzHeoHnQHFba04sjuzW4BnZkFzZj6NMaNakm00kdn1PNsQcTO9pSX/8WjSHnvmOd9MeJFzdPYjjkOJcUZ7g+/4zlFcI7D62kV+v9gZATUxMxQmJsn3ZV+6M+r5ziNnf4p7M2ZKZXXfjvhmK/QSvb7kPfT3qTt7ormd2s8V//0q7zP92/EdU+KdZZGZEUgJoKGBxA8//CD++6AJhEgJmJiQ4TqaVMik8lMMM4kRioNPcZlBhCLQnbWUGYaJJ7fwSYNPUWGYekR7AZIoARqtDNB3aHvTg+CYikw1IcIgXQ3hfAxo3ZfMzV8IeHzhDTCHSTJMTs7Bk4cvwxWaE8Iz4iMpZH1HZlBkmDrEVAJIoCdRAgjaXswi2NAo9kGKAeUN0Gv2CFQ5drjEEyKoAGHoxw7RMExicrnK80Lubq4+yDBJQwG5oH2QQkCKgFYmWBFgGIZhmCqHBDdBLn3fdMFpkVMPT8vX4i/DMAzDMFULWfHEDz+MCSGeCz06INeQQa0EEKwIMAzDMEwNIF36/lkCtXKg4//0n4YM0vvamxAHKwIMwzAMUyNQTN+nDJCFT8KfPAYU+9fhAyo61NDgG5YfwooAwzAMw9QYJPQ19JoWEv6kEOhEQpo3QIYS5EgBH+QxSJ4s6E5MY01Kw5gzfd2zE9SkHvbENrOFnBOpEMFEPxU8/8jkQrOz7wtFXjMq+VuOPonOFcBj/hmmAFLIES34CcoFmJqasuL+JqYS4Es0TOYRoFnsUAmwavaXSwmgYx2bB0/oKYRrBVVIRNaPL6YEbJWDN6qcYc2Yp7yAiWJIUBReLthlNbyJSgBYVeVYCZgd0NBBXRwnXOwpnfU2v3TqMsj337Tmz3f353yHHsTW57Q4UzyngpQk3EcRcygEkLJbsnZVGZFzq8Q5ynuhqkqNp5AjJNDnzZsn4v9k8ccpAYQW/hQy8OULJFIERPGc0Wn4JG3FunonZXnQWkCUMM03339QPrhCwljVVz9ZoTK2TOWxSgcfvypKUtsCHrfBh2akEJCJEDZyiuFQYfwCYLMrbMgC059T1ctm2IQCwz1eRSEFRU1LHLZ9GFaUTJmuDiIlxVmhzylHxsfHRfxfzy2QCx0imJqK1iNIpAjc0J470YBxUeVhZx2q7GmVkabuPTMLEIWWPAVyLozCiFVYyUZXZLQVxnPw5K9yC5v9z/4JjuGTuGvDzFngQgEfvQzvWXP8n4YdHHqZxSSTI1K451cEKBeAcgZ8HoFEOQK+Yjk2TfAEVaRTa4RbcEfibJeo4BDhzqjnHi86410wT//xTKQ4j2iXynmItlPuu8UqKFRaZHEPteItHkIuq7jCIer78CUcg1vlfiie9FmHjC3hwyJ9XNZTYMS7nzzzxrtx+sg+3POyiRQVSkju+LdssygiM7TYKGQU7fdI7oPZfnFurTBwfBS6N9A50vfJmpT95hZisa+x/bm+fr4+FG0wCxW5fSqsVfs8g/31zre2NY8Z7aPwWhTS75G+IoxckaBN+r4U+O71fMh22oWCjGsq3gu3OdlxB6z4TJ+3fB9UP8g25ymAJGK0nkJKKnZrXWf1XohxbSLXzSbf/eLm3cjPk+S9RH/L9rH8v2GxfzOnQ9/v2FeX1htt8z0X3HN1c4YIt6/cbdQ+8hdiip6f//51tzP6LnLdTNx7NF9/mr/ZMbjXeL6F7VK/NU+/RPq9zFCuAHkPyJOQbB4BEpTH5ollJZ0ZlcZV67SEMXyqXpeBb3TuAC69Z7PQufEn4Rz5hIj9U/laFM56W+zsO9Xc+See/lG+98Y0jOG6lY/gVuZTglp/3nsWYOkjnryCrkZ47pEMfPeG3o7a1Qyb6bNXpsiAiJYffiqDCka01n5poJtK/6C16wuFyXq7hKzrvny9H6Bnu+OaXHIrrB3GbY5fBWi7CQ7dPQ6vU01xs256Qp55FW90wJsxaBMuxo1JN7qM16kfBM0bH8TwjBhrEBI4JCyoKGjBmJ/TQ0Wt05JKGIl+km2QAmmBcN/qdrlxP3Ilywe8Pr5TuhcfDtvgi6At99z3JQxiXz5qxXbxOxua4eR9n4rSv92bl0HHR/JcwhK16hqTENT7wuvSvsG5fm3zvS5dUTv+ypjse3pgqYej3texi3SebiwcoWsiHtxyu9f7J3JYsOrBpPo/Vb8j9PCSSoVuF/WH+tCE2kT3pdou0ucF8tDLy/A+nICBvmi7d/diXwfXwiYs64z3SNqYvYrdtneq+4ruv9uH1fnrPsBro131wW9B9Q0JgWDbqCAh5SX4nH7H2HfmPUzndUXd4/Exbbqu+BslIa/3hc+HLrz3CouDy74K72X5m9hm7kvdo1Z+Dip/5r0unh/Gb0/0SVthtSeeeXUZwGG9H1y8YSLVD9YzbRhW6OPteV+9h+eDq1bY6T5TCUjRn/SsUEqn3i4sUy3LVuOP2/k9roYVqGANflQZJYDQ4QE3nyBeEXhlPBC0/dRbZL2rdVpCK3oS9qFVb85/f+J0FoV5BloWqzdIWdiKVjntw6ykd2AcXkspcDdvkPs5ZXzvBL72CnXhSQg9BScukfMjA61CQZmEgQFcN4v6UDvXYpcYtfZ37O2FvjNn/Ms7L6itkqEfYH37TK3+HDy5M7wRnlmPmjU+oN82Hs77n/3C4wo1XJytTTBS8M2k3P1a+Hgg16j8IfgeamktvBJhKB0k9Ny4bkS4CaEX9vvFYfxOazMERhg+HOzvnIZzpKw4AvtK/1fBPtpg1HHVIrsW4zXGtpiaP7b1JCkL6vqJY2uEQqMFu7wWMlEIFYq70WrBvjaFxu6d9PBCJSQSC6fzD6/F/iEqN9oMi1yFQSmawjopxArB76+lh9fxfJYp4liPQpi1tsLP3DYlQChySskjxW/weMx9d3AIBiDuGFIRFUpooMwW6O6n+8+y7s7Bxxeceyoh9PuyrGA6B/ydtXW0qDcQcb/L31/QF05+wEMv3yRyZax7D+9rOt+2pZ0FKWBCSAb7k8lrYbtQUJJljfeS9dvBY4bnsxruFdfLeeZ9hAZMRDDibwSFrL7OYnGUhd07neu+Z1gI80BBQ555laxy7Afr/sZr71jj+UjXn/RcNxQ8oTg2QcctcnU/XjhS5NYaCoTe/zn3GYLIBMBEkXuLXJMH0WyDNKeALkVskv5IPgzvgVgi9fsboAUtybGBqSJHGsyB1g7ffpRQ78jAOvWOAG/a79VLgVBuDMXg6WkYQsXgxtWqot+DjXBjaxYuHA8f1G8+th56Vq3yLw+kUwSEtTc6Ch/HCk4lCC4MOQ9o9ZAxhZKVQDIBw1+rl6nRP0r1YJxlyUcBjqIjlRvz4SQtefMhZLlqFSNDxgPPozzJfAXbOxHsS10/IaSVwJBxa1uwy2O0QAf+ZgY/cx9eUkGxhAThJhQJq8cVltgucuGSgE75UAy4pRnb63945eXgGIwYD8c0WFab8rD4LUr6rQD0rPd9Jtm9M9yPtLI9HpYYzOtPnhHzGkdCJYkhy9Pcl/K8RaB8BtV28gQKKzRUZMTz5eJwREHb/Rltm15BIaz7XR9f3ztb50M7/oveowZqm4iAF675qKJKbvfgOtPi3qeGJ1AuoSteogwbTz+kJV1/jsMl87emDJVAMVDGQKhArICfLW2yDAuChDi577XQTgONIKDv0Hd9ygCVHKawwPXr19U7IcUrAirWPma46rV7v/qZgG9QnZzf3SgUCDE6YnC6/qrrCaGBPzoVWnhU/MBmLjGq8ug4IFnV4UNIWI4FYe8nWLSFIqwF+RBEowj6jl8GEA8IKfzLB7ZLX+MC3LJFo4RC0eBD9W2vq1UiQgAxn1mIh7X0sORSHARCAQoVbhmzl1agvr7SM5UWUgLCMI3cl/K85YJ+s0qRMa3MaiUi4MWS0ptISgApspZHUrr3awGpQChv1dZO6MbnjTvSSdcTIEhwp8GsRnj9un0vknJBS1zFwqIVgXWLKMEvX0x9Gq7hjT2/vdjDTcLocCi4Q+ZAdze2Yzib2uNw+DgqLa0Z6H6Q9gGWN4AoZWgg4o6OILNEo24nqT3mct+XBKXF6gfMipS5BrWLFMCudl4IsS55E2EZE6thRdsofLxHubN3kaDUwka6YSOZ8fQdvIFk+KAA6BqTNenEoNPhnl9CBcYRpkUTO6yKvCalvH9VmCbw5mmrM88w2iRoq7oEcWLxfPEoQHLEQRmGMqv72HTLR0iyTVLU/dPXm8ubpTLtY3Jw0lDy/hSjXaT3jzyB4HnekGufxvyTEmAqBUnR8wWQZ4A8BKZ3wDeRkKZoRcCOuyOUzBcJDUzCvpPT+FRrhF+r5EABbvuEuU4cyOIj0Bfvlxw+j/tpbYA1xvfW4euljks/MQem4LvRDCx9ZC4shSwMON6AUoYGZLKSkVAkwIfMq+G61BrthJwgtyDnDyCeINkvqdu/1A9sD1Ipyh8vDtyvZbVg3dintvjUShrUj71ney6PCh2Pkg1vgnYRBlLu7LtJmmoXowoHocA2E6F0/LOoORPQmiTrlWLNXmUgcL96XOYiJmta0MqiVWvx6HiyR3jmOp4P3H7byiZPCC1EJA3e3qHWJM+8Gt2/jNPm+m1pbxFuc1gL66iwEZnj3tCA2jbOQxERlPp4alVA70XvJ5FPZNwLOg69yfyt7PqFuI9DRSPa9oLvdVS4KAkukqyHxwzXY7YpBCfuHnfvyVwU1+uF20aeIep3H5M/kaw//WghTFY4CWJZBVD+pqkvaPSKL9lVJ/EVogRoKAeAhP70dFbsj/aVSwkgig8NvDIO/YMkSHV+AGXpT8GQ+jiA4vNv4EneNTfMJcAf5ScRT8IEvEahBcr419sdU5n+hGc/6+/KWkmB6VBKCjJ0stxTJlOy0qfQB9r9TssygF7jplIuP9AJQbjIDO2UbjQDEeuKhX5Mui1q2dCce4hVHJRBrPYhHixBmCE6GYscm60yuNU2UaGkLK+ycw6ePIwPjyCBDNsPXxbo6qU4Krl2KfYcnhstYR8ozw8+7PXDQDx0WpugzbA0RB6DylIO2kVDjfIOIcuP7H9sA91n7gNSKIJx4D1MHqOgr26C4X3RMIpU9Mz7XI2E8eUm5DyeRLRT70uNpMg52oES7toWWEJi904a7qnbIxf/b8u8djpr3N5GJG0a5yeGj5GnxcPundH7wRSUO0SGuT4/OSzS7k+6p4ZhhfF9WiL3gg51GPex/C3boxTcttPoo8Ludf89+sHtw9bxaBvaf75EwLyokFC4H8rS94RRfP1wtAPORe496le7L6KjoPL3pwsJf8rMb2ycIyx7UgioCiC9/1+e+06GMkrhTYpB5wCQApBrtkGT5LUGZjMizwGcuQoYhmEYJjkk7F3rW2byUzngRlxbCf/0nxcFc1tUC8V7BGodCmWIiYVYCWAYhmHSo4ft0Th9F7LKKUlvevqv4IV/ulkM3a0mJYCoW4+AOZOhfxZEhmEYhkkG5QV4s/LVaIdWyMD4wLfwd//XycQu+0rBoQGGYRiGKQJKBqQ8AIrLxw37I48B5QuQ16DaFAEODTAMwzBMEWSzoT3tm8yHkMl7U0UpAXoUgkxILJ34ZkWAYRiGYYqAvAC0kJD2lvlFoU2hA/2attMKA3kJkqJHIdD/UnoVWBFgGIZhmBJAbn85Z4ANCW1Z7CcrJvshZUHPM0DDDJNACoRWAtIoD0ngHAGGYRiGyQEJbF2sxzdXfy7IE0BKAA0rJGGuLXntPdCegXyT/pST6lIEVN2CACpZbFYrZHJA5aDnwtJh7rOaQM+bLir0DcHP9Ox1hUzkVGlo4ihVde6enaBmd6P6CsVPdMQw1Yh07cvKfWkVgVzo/WpmShmortBAUPr4uigr7MWtdCiWnxilhBkLt7/ebnbqNEg2743/LB1N8AQex5pKulYQfVWhe0nXGxD1I9S0r17kzI+F1wUoA6o2v6x3IKdpZZjZDE0IRNDIAJ/rv1DIO6DnHqBEwlLuOw01miOQhQtvqEqHuPSeBTHF8RNPqY8ZAc2V8NzGjNVXL6G1uWZvrimHmZnDKWVaS5SjqA3DVAk6GZAohzJAIwoofFBKb0MaZkWy4ImnJ4UHIa5QUX2iKjK6ZZUPjMNvOXRQdYi5+WuSXN4MhpkdkICmBD2dJ0CUUhnQCYN6ZEGlyZkjQO7ilTAFL53PGLF7ssbdAj/kDm6ETrXm30btz6gCMnb2OvzWW744R7xb5BGQlWvvX+y7Yxp6t8nCQUHbj2esaoiRWQTdaomj4T4E4nhUhyALNxvn6Gu7e36RHIdgX1PQSuenK4xFciHU+QcVyPz9ac6OGBDsS+0DnPOxcK+bjXuOkeOZfSXOLU6vjLbf7SvzuojjdGehfyADK+l4dBzyZIjrNO3UhHDPwflcXF8qhIXnsdXf55HrZuLeD57qmvH3cRHoOLwXO5dAVI+DL+Ge3vky70C+LWrA66lMxTZUpOZXYYErWTGPiu6YsX23+l2N5C0wTBmhhD5y3ZNCQAoAeQVKmS8ghxQ2+2cmrAD5PQJUBVAIL+lalpUGjWqA9GDEB3ELPgzjXfUklJSgVtsEFQRL4qaeA61UcXQ4aws8arsQArpdWejcaLSdhJfxOS39ww2wPhIrb4CVeI6Awkps9+40zMe2m6EIEl43nw/3Q+dHFRSjsXLa11y4cUD1l9ou3BcJNuNzcbws9qcduybhJasuqm0ieRWqqmIrns+xuLDJBLymvt9PJbFI6AX7+8EWbthXa3Cf+rOXUJkZon3r6xfkd8jKkyQcw21NJUDdC6Sk6c+xD1o2Om3Efa9sn5b905qBNVsBPhf7boDbdJ+qey+4Lrj0nkXlwaxWKZBlpltOqu3w+tG9oY93+DHjfaG0qHVaLCUKrw0qAWCdm9NPpYKqUN53CJcvRbWyK1S5T6zT4hHMVCFteysM7JPbyGpvuUoh+6B8BFn9LjjW8XHo2Z6wPDDDzFLIdW8O2SMlIG2IgIR9HPSZLEo0M+RXBBwL6/BxfDDj125WD9HNG9A6QgFyyngYRlz1TzWiJYYP2IPGQ/XAOJxCwQxdGeehnZ7Ne8nSw/0fd7wHou2hEDpxiZwfGWgVAhUF0toGFFgoMA1LVZwfCp5uJ2HM8iS8MhUJRZx4+kfb03BgCr7Dbea3R7uY9hUIjwNZoJSrlkXyJlv3mwbodPpTHi8DN64OBeBtaMHmLZQkhLMUzJ0oaEWyYKGKF+7LFngT8A1JqI5MugRDcS/gdTE9IHgvfI77skM75vXMAAxMRc5V3Hto2Zv9fuLpaaEs6PtTY1+/rOgT3eeJeTADLfjv2qUcgv/Fg9B35ox/6f097FCblR7K2g8VhP1D5MJshkUpBLiozT96Gd42y/vu+Qr6Rpugu6eKkhUZpsKQEkCCmgS26QVIqgzQ98ni10MFXWgfpGzMFPkVARRm36uXAktwSUt8DB/SliWOluPAAApdJSTWLSL3bhYGHNf2idNZVCq0YE4DWXhKsOEiPQ1R13mk7UIw6u0aoKUVBTV5JdR+xCLcvvjAXyy+ocBz/kq9FEzC6DD+s4QgWfLGftCqD137Ju6+pFWuhewN7dhXyop39xUoFdg2cpF/YyoesYRWP3lEhJekoNEB0pIP25TDnZ4DcS9g36809hPsy+rPLIwa1zMqfJUXiM7H2pcME6QW8knQCotSqrwjI57fCj2rVvmX9f8Ab6rNSo6brCc8Culc+ks6UBGzarPTIsMEbR2kAjFMfUKJguQF0HMAkDKQJl+AFABSJEghcLeV0wU3BsmIM0ECj4CfnFZR2cnlvk2H7cIOF8u6jyMIRag4teVazzEEMh+Oiz5YrDyC9JDXQri/UdG40xsqiEPlG5Alb7RHhBMKwt5PsBRyHSnW79lXWdz1iA4jkFIVKJGzaRQGzWsQhCCMZedptQHD1Ceu614rA+QVcHEtf3N+AKpLQEmBpBSQEkCfzeRkQkR6RUC4R7VVKy3j+d2NjoWpMtaVoBQueY+7fd3qDFq2tuVXOabhWozrPj/KEzIitUPtMh46WbhCovl+hPoK4Aa1Ho/rSZEejvIg9z12NuqeT4sdnikGn1emcgilSikEVnhrxkIDxSNGLrQ2wxK1zjCMRIYGMiI04GLmC5Bgp8Xn5idhT1Y/baeTDmdaAdCklIIyWWq+MSTt8HlpYa4x3KTr8LUVsxcx2Qws3Wq4pB9shjV3ZUoiXApDJdN5E/pyI3MSpuHzmDh/aEGr1RToGPfKXO573Z8btCWqPBJqTYLvRfYh8yLI4/CJ4/GQCkhUWZNElab4THu1bUQ5VKh8ByvhtEBkPoeRsFgsqNxSqCrIxUiACOWYIaiShwbkhD1tSzvhIfVOIbhCXo4YsPtt/7PfwiAsgE1/XFfUsRhmtkECnDwCOjSgcfMFiFzCnRQEGhlA+5upEQI+8g8fdB723qFSkSFVdoKhJCoc3aF83uFwAgoFqNi+GKYWHT7oItpuDCeMxTfsjVzz+nv5Ptc421E/fd4+V2bHa5d+wrb7BbvRB4TV5/Kz0Q14zubxItcFiQxVDHGvt3Wt3X3hfnpHUAh3Zz197LbfaXuMoqTvB3kf0IgIvIfUca+Jz+R+aYRKbLsExv1nfV98iHj2o3GvdyH3QsmhbH6axlfjGT7oDA2M4gwLpOmBP+uADzaAM3zQPRbBQwgZxhxC6EJeAELnDfi2qWbyKwJJhOlsJrHwZhiGYWYrFNd3rXitAJAXgFz95BUgZaDWFAHHvGEYhmEYxoWEu5kjYCoBGjNfQEPbUY5BNcOKAMMwDMPkgYR7Y6McOUDCnRQAUwlw8wXIg6C3m8mhgUmorjLEDMMwDFMBSEiTgL5+fSKSBOhDu/4JUwFwIQVADzXMtV01wR4BhmEYpq7Q4/zlBD/JRh2RxU/JgvmEe60pAQQrAgzDMExNQ9Y9WexJY/HkBdCkmdo335A/X8igFmBFgGEYhqlZSPgSpAQkjcVTKIC2LaXAJi9DrSkAGlYEGIZhmJqElABy19OSdoKeUhf5mcmiQcXCyYJMwfA8E7WEniiIqhS+D0CTEC0BGDx+CHbsUZvMAGIyJN0O+AV8sGGBnOyIaxswOdBeAFIAiGqapa8WqT6PAM0EZ1aTK6hSXgmhCYXM9ojlJ7C96LnyZynu9Tvmn0qYlIjSXFuaJTCmEmC1I+6tSt1LcqpiXaVQTDkcCykNVHnwl/C7mDLGNEVxWKFwC7y5S31gsnUdHDK2+eDV1eqDENmOCRj+Gv99PQ5XxLsME4+pBJACwEpA8VSXIkAPxkcy8F1QWfA6XMAmrp9pZUBMkRtWtus9C6IM8hOpKvjVAeL6yel8dV+9tCkLN8/49WP8KAFsQBb6B0c7YLg/XlGQdQrG4ZiuTHj8KnRtcJQBUgK2L4QRtPRlBcMvYXDJrV5lwOXKMFXuYJgoxYQCmHiqSBFAy25jA4ydnTSm8sXX26ZgyClqNNOceHpSlBjuXD6Lys+WgM3L8XaKFDSagNc4dFB17B8Ka6lrSMBvgi9RaL8PH6v3IqCA37ayCQaPG/UJ9rwPxy4CdN2tixWtgN9tXghtF780wg6nYQcqDLDkplgvAxwcgxH1kkkGCUY5bn32p3tRMh4l+NHwPFYCSkt8joCYYx+g/12AlaLQChVyQetOFJNxi8i4RWbsgkJBMSGr4I0uPKP2tZiO55/TX8SidTEd3a6gLRJfMSS3iJG7TbDf8xmjmIxzbuJ40Xa58fFgX8czVhEct7BSpEiOW7QmxfmJY5rVYdyCQsG+pqDVLPLjKTzk7ivSbkLsz3ngGO2X+/AVnNJE7xMT9xwjRajyFQAKcO/P3OcnjtOdhf6BDKyk49FxDgKsEdfJPR/3HJzPxfUlrxaex1Z/n0eum4l7P7j3C+K7F0qNtPohWmxoF8Xx4woV6eJEch2c/AOdD3Cl/1PY8uw59S5TKKQE6CltyUKmce7VPoNdsZAyoIf+5ZoESI8goCGFhc77T8eq5QTANORRIxtg5VqAXhQkVPb2trcb4Nob12UZ2aAELgn0DHwTuIJljfbOjWHsk2q3y7rtjYE7PShVrB7Y6xbRAz8Lo44SEGDVncd24cMYtAv63WmYf9dcy1VPD1tRGS9o1xRcw20isWRs03PiHGkbdW5muWQvc6C1A/8NZ8MHNkH7MkIbsh+MGDkJLyv08QP0D/tCH/nPj4TXzefD/bz0xjSMeUsq077mwo0D163twn3R9UPBREqMsa+WjXbog44nFSK1DS79g+pDhSgLLI4XF7OfgNfM75LQU+u0WMIN+2oNTAaf0fUjz1BQcviV8fB9XCXhGG5rKgHJzo9Kaa9sn5b905qBNWi1fi723QC36XMR+Q/GdcGl9ywqD5E8CCqzPBdaTqrt8PqZ9/7hx4z3hdKi1mkxlQBSOlAJAOvcnH6qMA91NuN1k3kGApEHcBMMH78MV7C9HbfQe/Oh3Qo7UOXDLbB2+Evoo5LKHS3qfaYQSAGghYaqkZDT/zOZjBB8sxkSzM3NcnY/F+0Vob4hIU7/SUmi92k9DfRdUibqwdNC5D3LoZP6wZSB+cPTlpUlIfe9bQGeOJ0Vdd1bFqs3EFIG6OEvBCM+UNeg5TX0rm21xSFq5TtYFquocW+46nH/t3XhA/ag+VCdgE9QMEfq5FsW2CQMDOCx0Iq7Qaz72byXLD3c/3HbqpbWYXhOJy5RuzPQKhQiFEhr3dCHrqmfgW4nYSzn+SHUn5bFfmAKvsNt5rdHLyntKxAeB7JAEdiWRUq4PdWI54LtNj0EB8bhc7pWwfGa4E68Xm7bI+D3fiuUKWwHKi4iWbDQ/AAU9LbAm4BvSHmwFMIEJDo/wryeqJQOTEW8Gps3oGWOlr3Z7yeenhbKws2mUoHY1y8rlJWgz5PyIP6G8N+1SzkE/8O/hw/PnIE+73IQXlSblYolHUafkXdgezOcvO9P8KSZa3BLM7Spl9JbcAd0fHQItjzLsf9iIQFFuOPVyfolZaBQ67eWoLCATxkgDwH1zw8/jAkPie6jefPmo0A3PIt5MJWGpLMO1jp5FAEUGl+pl8jYSIwrhizdIEscF8eVqTn8GAkJtLzoc+eBmosb2t2LaLeLBPjoMP7TQgIVkPnCKjPahItwM+cR8n7sfYmQgGV1KlAAfq9eCoTVqrdrgBY8diAg9SL6ylaa8p6fgFzUxn7Q6nfr+0vcfUmrXAtZ6YmRVrzZLuG61scTAikL351OYomSYqisV7J4yYqPGTmQG2nJR9qUkkTnJ7C9UVHhq7xA5PWx9iXDBKmFfBK0wrJRHsvrZXnrH+Dnq1ZBj3fZCs+rzUqFHm2whEYN3D0Or1shAif7/xblLdhnhwg4GbAwtBJAmK/rFbc/aCHhTwqBziGg0AkpBpRXkLTPKPSgQywcGkiKitVarllyr6qPbaQwFDiWnW09m8S44X1Y2zgu12CJi1/nIpf7Nh22CztcEilFwfmpOLXlWpeWeGGQJ8Nuj1iKOE8BKULiXjDc64kgJWCutOSN9rihiOSU8Pwo1u/ZV7nc9TqMQGGmQInU4ZEZQCQZti6ETR3fwj2/OgH71fuWF0Ak/TVBzwblLQhyDFqgw6usMrkwhRwJtdmMnPtfhjdyTRfsJgtqge9CHhIzlyCJMkDbkwLgel1mM0UrAtLimobP8z4I6eGuhZdnJIBwn2bgxtXOxX+wEW7Eh8fQedcNbyKVhcBjgRawG5qYeabhWozrPj/O+SmXcRi2KZx4BczF7U+loJUFqTCOnY2659OS/Pzy4fPKVA4KBWmFALoyoYelwqEBbe0PfmZP+PPM7QsARkfhYyH01ZwFF4cNbwGyq0MkFA70caJgUmhEAKGFEgkp/TqphVsL0LnQuVKeA8X1aV276OPyHqgf6Du0HVn8psB3CftvKnW+QD1QtCIQedB6spyJIDlQxO0n4LVIApyK4d+FCkPw0MbXW/OHEWTM3lBGApdqNU38Mwn7TuKN6k3oy030/Jw4v1CyaBu1mgaRf0Chjxzue5V/0LlWx/t9x6P3ovsQcXWPoijyPjy5EZKo0hSfaa+2dXM/NEnOLyEyn8NIWCwWpbBGlN8ciDAZnm8QgqpwaAAOnoCTNFRwwy/gGfUW5QqI2QE/0h6Cc/DkRzRU8FZjboHV8KaYNfBbexQCkxMScLlGAswGZUArO2TlkwVP1r2p7OTyDIyPj4v4Pwn4fOgQwdRUPqO1/sgzfFAPm5Ou6BYxbAmkEBiOGw5FbvRpaHlEZleTANefu8Oe9PuRoVzmkDFj2JVAhSIs3CFXCp/wMNsgPnemyJXHz4ZDwqx+EJt48e3LS772Jz0/Zzs6r8/b54bDLImEbY9TJKyENx2OUGv02SeL5LC7sG32NoKYa0O418e6P1yFEu+D3hEUwtbxNO5x6R40zzn3+VnXXB2XJkV67RXzvo9pl4BCD+p+sb4vPkQ8+9G417uQe6FUqEmAwkQ/A2faXz0UUKKHDapVjRhqiMJfwcMG0yMz3psjrnDCVAK04Kw1SMiTF8CX5EiWOwltbcHLJEDb6qf+oWRA32cu+ljkcajV/ioXtVdrILFwq1Fm+/kxDJMYEl6NjXOEQPR5BrQyUKuCjYQ8nWNc+7Wg11DsPpeHJB/UX+Q9IE9CPsWhnnDMDYZhGKZa0EIvTviZLvRahJSAXIKdhLWZBKgVh0LR4QFWAmxYEWAYhqlikg5hq0VlgPIB8gl2EtquxyDuO7kmD6LvkHeBjsnYcBlihmGYGqdW8wV0u8krkETh0dv7QgSy5kKjeB23P9rGl29R77BHgGEYpsap1RwBbZ1TDkSa6XzJ6ne3NwW8rkegIQWCFlYC/LAiwDAMMwuoxXwBOeGPHNufJG5vKjxmEqFGf06fkfVP4QAdKqhVZakSsCLAMAwzy6gVZYCseu3OT9pmnTwYl2So5yGYns4K5YJCBKwE5IYVAYZhmFmCKfBqQRnQglq+nhJWfBJ0kqEvaVDPSUD75dEByeBkQUbVnm+SE770dcpJZUYvw+vmXPJVCZW3vQN6WuWENh/3GOdRNxPX5JisyIeepMg7MZE7MZMxUVKl8EzI5E48ZU90VQb0REhiEiWAN4/eCl1wFY5ZBZaqE/1bHuobgEf+vxvgj/9nK7SOfg//z6/+G/wXtL6rVTBqFz4pA0ni+LStVgLY2i+e/B4B+mEec2q3l5NEx6OZ4swKcIVNJSxq7Af7UEsR08fK/RU/lW2lEYVkkJEhFJ6iYEwM9IA8+kv43Va1PuOcg0uizN04XDoYnkfBkJAs8F4qiBzHy3kvid9IOdopK1MGNQ2KwPvboqWAstS68FJ8MbMSo+opyCqJqm6CD5qJ8egWYxrlmUf/Bsa+7wP4rz/A0MQcGL8+FxpaaCKd6rWOacY/svIpTJDEK6C9CL6RAUx6ajA0QFbLXLhxIKzi13sWYOkjBT4YyTJS+xEPGiozO4PV3aqGK2NV7g2IRyg0NY6s4ZELu2xyYkRpbLzXyzVNsUIXSXqJCozhOlnxlThu2Rgdh4vqZU2QMR7toz/AH6vcajanGE6qDJDioBMBmeKoOUVg815ZwfCU4Qalh07/YAaWbk1vbVioYkUzVWGuOshhAVU7ug7+rCGmauJiiBT1YsqF9jolh2LzMx6fz5L1Pwb/48dJ+Mmc2phAh5QBbeGTMkB9mGtIIdUM0MMPmeKIzRGQhViM4j8WbuzQLeriFn2RRIsAhftJdrx8xVvA2o6KHn2z3DimExcVx3SK2PiLB+U6P39BmwCjaJJv3/K8jSJHRttFUZ+gT8w+T3Z+pcIuMONg5hKIojWtMLDvT3BpvfGdyDYLYeT4IdixR3yKrBZx2HY3tu8UrXEL35SK6H1pEOlT2fe54+iee8LYT6LjiVh5Br7z1ZxIcq/nK9blfu4QvS9t3N+rW1AsJGyfP67v//148wA8+QMW6vNASSrT70HH4X38OPEjfPj3J+A3wgKX9zXgvf5ep/kdM9/Ad++r3Jcr7v0utw1vHX/eAglPGj5Xq7Fzc8gfKQZUa8EXAqDyxNlsNucUxUwyYtWtwLWn4nKBa08s5sOBfui2q/6ld7MRVz09OFZ20UPTv59Ex1N1+K9dirvwtgXVuXEe3Dai2kX7bW2ANblKAOPDkh6kYwNTzoM/1/lNwr5t8n0ZV3XOMcfDNhfUdqGkiP1chwujDbDSCVmkPr8C2b3zENxzHy7Hr+IaJeapdVoiCYVN0LMdlQDAh5jY5ksYbF0I215eoT5PBj1sP9gA+KDTx/oU+tpuhQ9eXa22KB1BDPpdsqJIyVPrtJiCRMTmpVDTn/eezcBKJ5YvykbjfRCEnJz9JD5eAAnLeXb5arMUMRK5F9xy1zokIO4l9V6BkCIT3pu0TMG1u+amLq+tf1uikqnel/r9p4YUHaE46Tb9AP3DDbC+gJyEfOx/9k/yntx3WXigBlHQ0/r/9n+8B3/3vx9TSkBI14Yt8OjSUXhd38ejC2BT2vtY5CNIpUL+Hg7B6/3NsOmoUQ5aQbkAtZxAp9uv5xfQSYFmGIC8BfQ+KwGloejQwLrfNERc9boGvFlnPVJHvdSI2u42lpWiauqbNe4FVF9eJzKJqn8/WJZN0vMrOWSxBUJhEkaH8Z8Tssh9fg/DH3rPQN8Z/3LoRbVZGaCs/dCSkaGGtg5S4ZKyGu5F62nwuGnt6Br3HZEHX6XYvAGtTbwupjV64ulpGMKf0c1BcuscaO3Af8NZj0BPCyq+i+l/A7SgxTy/u1Fc/3WLop6zRPd6KUBl6LYuVF4OmgrLBHyCSrBuX1LEb4sU5wKV5RBUlNY2YB+gUm54Tw4fJ+U4A93KONixt9f7WxDLOy/IjQrgOoShAN8kN8KTFSjMKtTQNh8eEuvJeGb9QmjD/YReNFJIvoVBWAArqihZsRTopEYS8lqh0YKfvAA6f4BnCSwdRT8phIA3halYpKvPfBDJH6XergyZ9YXGTcl9GFgiGVi6wba6k55fqRkbsTN8hRWZys35Fjy+fhX0rPIvW55Xm5UBO1kPBfiv0IJJ49LfOh/a8R9ZUh8cNRYRJmiGRTMyakEJeEomte4FGSZoWaSVQhRGJ/Ha6e0KtUgPZFGFUjyFCsFZVDgMoVYaRaMAxO8MfyePmH0wT4YJ8Ddxg9osCeK3NZj1hh7SoRSlu+ZabXpOhAm0MgXw5mPrvb8FsTxQmCIwMSGvu2mBu/kBcvRBiPCwpRqauwIWteG/JbfavwcVJmjvTOdtqxV0AqGeIIj+UyiAFIBa9nhUI6WRZFqYuoup6R8Yh9+K9ymLuAFWih9rykx/9XAMH7oh0koqMJOawPadItd+V0O0TUnOjyk52uVqL3+CJw+qDWYC8tR47gUrPq7d8CpcU6zyu3l5A1y7NA7fDJbZC5UYJ5wRLP58gkpBXpFom8o358C8hjnQ1DQJc0EKpbILJ/IsRH4Ph8o+Zwa55NPUASg1WiGg/xwKKA9FX93vR1B4prIE9FhlUgjSPtgm8GGImn/EBTkHuruLty6km9f2CqQ/v2ph5kIDRaPmMqguS8cfnsmJVn6Ft8kMHyRhGq6NktLbDDd3TcM3KMwOn58W9343WdIzhQjBhVZ20bj9WZBnT/ZVPg9dqUMDP0xHhZLpyi4dhYUTSoWO0c+kMsCUl/xXVlnhncv9WbI6RroyrQs0LvEvz/F0iMFMiluHr5e2liLWKBUN0yuQ5vzk2O/4B76rVLiZ16WlDKEBMTyvCbp7ihDQESHvZkITp+G9/gloW3lHZSdrUUIuTjkNwltp55kQwg3va9y/RZ7jCVDB7dQK7itZGMLjL6WEVid0VDHUENvOjcVPaESKDYXd7tS/F3dkQ2LCcEyuhMWShwbUvdx1uz/xr6WlWb3KhZtDo2fLVKuK3b2X4UrrQni0DMmyuSDhT1a4N/eBmTUkm2LYHZYjMuPdkQPmkCoi/xC72KlC8x0vYXvsYYaqDZShrBQGIYid4YN632B9N9/5hUSEuzVMy+kH+ux8xhgKRvja7pLs/MqCO6Qv79BAD9Y+aBTCFwCb74DuC/bwQe8wrTINIQxwhRGFhTz3h/1YNO+/5PeKIMfx9DBDMxEw+l6Ke92rdBpt856bxEpGRHxDIM1tYo/n9Ke1nfgsC3fi+YTDDf3PDoF7bXyKhLtNqVH3PIXwJXJI3z8Jj8BK+L//+RboPPffc7vvnX1QSOzc7WrkjXmvR45FlHfqY9ezQQV/qnmGQqYwuNYAwzBMGdBCtFYT23T7Sfg3NzeDrhLIysDsoxA/HMMwDJOH8uQLVAYKCVD7aSGhT5n6NK5fw/kCswu+mgzDMGWm1pQBn8WvlQHOF5h9sCLAMAxTJsywQC16BnxoZYC9ArMHvpIMwzBlpBpzBLQQ10MDk2LO5sfKwOyBryLDMEyZqaZ8AWrD3LlN4r+eLIim7k0K5wvMPvgKMgzDVJCZVAbo2JT139CQCZQTsuwL8QxwvsDsgRUBhmGYChCXL0Cvy60c6GNQG/QoAILm76cSvzQ0UBfzSQPnC8wOKjaPgDsBSexkQgnQ9fFp4o0doCansSaaialvP0vR/aGh6n/WeesJfMzJf+oGd6Y2msBohusVlJ24evZJ0bM9FtNXeh9ywhswf7O5JpuqA7TQJ8tcW9TlzCOQrv8mb01/gj7X7aBZBOO280HKA88vUPtUTI0LarAXWm/c4OIwzZY2AcNf4z8x7W39QrPvbVpCD9vKFSGpLVT1Q+qb41fVe0z5kVPnwug4XMR/8jdbHWhBnNYdXipMlzy9LqcSQNBxpqbCWSFdSHhr4Z9rOx+cLzA7mDVXzS31WR+sgJ8tbYIr/V/lnmJ0z/tSENadN4ApjNOwQyiVpfacKOV9BtFKAP1vbJwZRUC3odwKgCaJhU+eAFrSJA1qcuULUDIiU/3UviKgCn/UJy3Q4ZuDnWGqjP1D4+rVzEECWAtFEsKUMCdd25V7DFZaCSCvBwnjfAKe+oC2JTd/of2hlQHqUzpPs7+Z6iZnjoCI63f4ioRkI0VWqEjIJ4vMQiNuISCFKmxyrYgcgfzI+CTo4h06fu7EyEVsnQp7fNbhFMFxLSFPhTxv8RtnO19MPlfRHkJ8DnDsvmFYYewrEvcXyOPF5kK4x4ot2OM5P0G0L3QhIH97kJgiLKHHQsavRYGhocU5+z1SdCgmx8HdLjYOLfqjOT7unbS/9DnmyLlw8zasNunj+O5HN44e6U9/3D5ngSZ9Tx0H2CTOj66Jvr/M/bn3ga+gjdwm32+rmsgnfEkAVqLOPQlInaRXSXQcn2L4uXIFSGG4fn2i4Di/7mdNpZQdpnhKpgp3bpwnK/lRHsCm63BhtAFWpi3XWmK6NmyBtcOfqtj5lzDYuhC2veyU0F1yK3xw9zi8Lrb5FPpGm6Bn8zqj7jcJLnw40kNVbKMWV0DQA5seouZ2qAXdaxyPHtZSEOn94PFgITx69BfwjNpGsgA2Hb0JhtV2r4uSvMvgd1vlpyQwPjhKi3xoU7leuU6LsS8dEhDnpd6LoB7+RrvpeHECJyckcFBoUfVBva9jF+lcfhm0XSPaLBQevZ3T77ivbfBFsB99/dwyrNQXj64Eo09JQLn9mR95bcL2iD5rw3sjddlXul+Ugqn3te8ytOO9GJRUputC+Qrm/YjnG02mw2uzGeDtoE2qn7bb5yf7YNxue+R643UQ9zn2IzTD2j/S/aXu9/X6HHVIQN8D8Vi/LTw/KpEb+W1VAUks8EooAcRMKAGEPi5Z62Y83yXOvZ8U09vCSkBtUTqfGJXUDTwHkzA6jP86Mnlr+Ic8DH/oPQN9Z/zLoRfVZimwrVZV435ppyHkEcuSOQcfX8AHYGszhMacdL/nzkHAh/9mZSGaCsLBE7AjOP5quFdY0l8YwvUcPHkYH6L4kF5h1d23hfB+fKpfgSbouEWu796pH/j0UJfnKddpSVmSdOt8aMd/g5+F7XaPZ7L/2T+J40S9AdgHd6O1iQqFaY3v3kltbILuHkdIUF8ZbRXJZGa/o7C0j3EazlHWWdt8S1mQwtNWWHbvTFuWVV6bwePm9/DafITCeklHVKnA67qF+tpnAe9aDD2taEk798FJbLtVtx7PL1TwUOCjpU7X0fZkoGB2jrH7M0p4bIZFWrFCBXSt6IP85zz4kd5XE7Rd+Tadkudg/bYODsGAVVO/OiAlgIVSCCk8TU3Nai0KfUZeg0KgviaPAvd1bVIyRWBsxHYniVECqeqAvwWPr18FPav8y5bn1WZFIOKUlpBPglIgtNXttRCVsnBhKN41KgTuBAz0OQJUPUTbO2fImlI5FqaQeqinFdrgKpyzhFI+ZB+YCoVECvCIkLgyZvWVVDBMYSYt69DTYbvaiYc66aGWtp0elDJEVq55vA+EG90QugmQbSIviL0v0XZTiUHonKWFfyt0oWL0dkS5Up4Kc19m6IK4pTnhtbIT9WZzci0JJVpyWb8EuczrBRLQZLHnEtSFxvN1TgErAbVL6TwCNYB8SKdHW8HCnUuhBHog/9EMH9QyapiXPi9cpKs9rVVdSkgJoLH/FKPWng5yi6uPywS55fWxwiVleERgtztYIh6EFbBIB/89CqqO+1vt4iGQOdGhgCSQy7yelIFc6KTCOHL1E+UUsBJQ21SRIlD60IDLko4m0OOaC0LH3EV8txV+FliKUpjmdI0Ky9vjIt/aCd1oSY8MRa3BiqBd2VrQiKUQ4Sf7wHJ/C1bDCpRw6SxQ5WHJMyxSZqKns9i9KK9IKbwyadr0zKta2aFY/QLY5Hib5P16Gd7La+27x6vf0STa8pXT6OafLe/69euplIfZis6T8CUKaoufhwLOXnIqAt+PZFHgAdyg1uWIAT0qoNSUOTSg48lBnLRwpGdhHC4FwlLHk2+FQ2bC1NZ18GawrlzkRtKfmVuQ/2FfTpILU+2qts5ToPIrsA+CpDjkmVcpofEqnPS4veOJKlZuFr5gz1cy2S2SPJc2WTAM/5htj0UkhsZ4hWLaFCHIbyDPi8oVce6fSN4EficSGtgzLHIwwoQ/N/O//jCT//IpA1q41bsyoIcX+oYOauUgX6iFqV1yKgInnp6U2f/H5sFzuKxvn4aX3i1kaMkc2P623MdzjzQA5aXSKAOx/nZzioTCpChBYmbTq2x9OxkrAfqhbywyQ9txnZO3YN9lAPOYmwHeMwQgJfm93g8oJPS+1DSwZRp2FcaX1RS7gfvfyOLHdss4tW5TuESFfW5ECOX4VSvWvqnNTgpMRigYg/3Al55MdtzuV3pkQnjMFZ+ZxyPBqD4TQtQ4V8MCp7bT/iN5AqlHDVCblIVv7gcXrWTIEQpOYuXBE/C2UkZ0v+9/9gt7PzSqgTL0xaea07CD3gv6So42KSiMYtzrcihieOy098JMQ8LLTHzzKQNa+NN8+wyFSuKnCCaFipIJZ2o2Rqa8VKzWAFOdyDh0VLGR71OuQCFhAoapDsjC1cPmzOF7pAS4cW1SFmZqiN9MQx4BEvS+WD/1CykCBOcCzE6qKEeAmQlEHNqDfN8MfzBMbWLmC5AC4FMCCFIC6tXi9Q0dpP5iJaA+YI9A3aMz9NWqhsb5lylkwVSOw4feEf83b3lA/K9HtFdAwwItCilAFBbQoQFSAAhSAri/Zj+sCDDMLIYVAYkZIiDqNQTgQ/cNjbagREv2AtQfDTcuDGcxZxiGmY3o5EEt4JgQ7QWgPAFWAuoTzhFgGKZuMPMFmBAaOUH9QgspAKwE1BesCDAMUxeYQ+NYGfDDCkB9wooAwzB1gw4RaFgZkNAMi6wE1C+Z/7jup9nvLttTlDAmTfDEsUboVGv4KIH+TeNwWK2lQ8/6RtPKvg/gqz9fUip9vCrgqWZ4bmMGLrzxI+w7QG/QZFZzYWkwKiJrfFYe5BwMVGnyU9jS1wmHtqvKlOUahaFnHKRS0jvBuub/S45kwR17e2HXfzgPe9b/A7yp3qsX4uYXYJh6pHo8AvQAVzMYepe9/vHuuaApkZ871gyb1XphTMBrm36Al3DpPVvsAAtV4EfVOxBTyPqgB7ua0U0sMQWOwpkD5RKdHjfh8aqQzXs990BB98Ek7Nsmr19hs2KmR9YbUPUjVB2DOIJrGDuDoTEzIi2+e+HrcTHboKznoK55Xl6A++5uh4H/Vj1KgJ7mtlL48gWq0UNgFgSqdB8x9UH1KAKvjMuHtVimYAjfGnpXr+PyWO0IsXTY5WHFNK9qOmRZAOhLGGxdCI86giKcEVBtp6b2zT9XvnO8KkWUsabr/sY0jAkrvsbvA6fssp7OdxuMwqB6K4r06LT3f6ruhU+hD/BeSFL5Ml9xrRfvhG74AvpLUN67WEi4kYVOk9rQZD/0utz48gXo2NXkHaD2ULsymYxQBmid+ojgqX6ZUsI5AjOIthwtDp6ALVb1P1kQB5Z0hEVsUIhsE+VpjWmBRc0AgK6744WE93hMmfFZ6Cjgt7fCACp7W561Z3MzEQWbRi/D20G9ClWDARXDe2MVvnNwKW+k72H4w39cBiMf/Vew9QBVAfSdF9R6+SHhJi3esEQ4uewrpQzoGvw6W75a0J4JUkwofk9Z/bp91GcMU0ricwRErBWg/12AlRvpR0mx8SzcLOLlbpzVjaNLa/61V+TroGrh4JRh0enYrS9mK/cHxj5s3OOZ+3Bjwg5WGxBxnuZDJz4HQJ5HtogcgcKIzPsvYsLg1AfQ+QATJa8PIM67G897IAMr6TqOTkMv7n+NKCDl9NeDzfBrVVhKYl9fcvmv7AIYO3sdfvu0rhKnr6en78X+MvBdbFw/eu/F5gFE8gcc3HvBvVfKgrpuIr5/Wr1HyBkfuy98ispCWLhK5x/IfABzez/eCYUe/j18uGs5nN+zHh5/S72nEZ+tgfaRU2XPHSCBRsKNFAFdMZAUgLlzm2BqatKqIlgutFCtJiWA+oOUFNNroaEQAeU1kGeAlANSEhimWPKo3Q2wci1Ar3DVZ+C2txvg2hvX4cJoBpZu0LFaErwZ+Ea78HGhWHrnxp/A9gflFiee/lHG17sa4Ymn5HvrfjMnRgnIAwkGfPC3oCAJjwew9JF5at9hTFjG9Em4hG2zHuy0r+XZ8LNNdG54zmWpiFg47rz/ogyy6foVbuabYPg4VaZrgo5b1PulpBX7hapPkqu+NQNrtgJ8Lu6LBrgNr6UEhTK+f8ro7/5BvFceCfM0yOXfPwgw/y68b9T9sXlvjBKQD8+9UGgegMgnIcU3aDveCx2NBeWmlIYW6EBlVuQZKKgU86Md38rKgm3z84cHYnjxPhL05+GkqwQQb/0D/HzVERhoXwO7zvTCHx5W75cQ7YbXwtcU+NpK9wnBUkNKB7WhWpQAHf9vbJwjlCEf2oNBkDLAOQNMKcjrfxs6OQ4nxKsMzB+e9ghtErz2A/zE6SyM4fYti9UbCCkDJAA6N6JQwAf4GrQsh95NqQQgmzegtYkW6anAmtTlknHfy1M+tA+Mw28ti28SBgZQecAH8A3qnUSQFXXmDPR5l4PwotqsIFTd+iv9XwXWv1UoiLwD25vhJIUTyhr7R6XtuO6rDMDAlEdoT8BreC/I+0Vy+Dw90DPQqoQ+cfgxpUxuRYULrfCVXaQQpvey+O6FwmiCO8X9aLYB7+uT2PauTKDEvPiO7/rK5cO9JZaYW+dDu3opvQNbYO3wp4m8ALl5AVZ24+XLmST4AmxZtQqODLTDml1n4FBRN3AUsmLdAjculVAEKnGMpJAXgMITJNjJ4jcFvosOFRDZbLYiYRRmdpPnDsrCta/US2RsJOaHQy5VM7Pbcg2HSAGAliV9PjgV4/bPxRxo7cB2oBAyhU0gwDsyqS15NztdhDDSIqyoVdDjXbY6cdgUiMTBBWj9m3HiMPt/CWWc3z3u1PsvVzJgFkYNpe3aJb/wlSM1jD61wi4aUh6nYKi1Adbj52NncT2lQhh/LxTAg6i04r/OjUa7g7aHSszzD/iur1x+/pjPvC6CYLQBhQ7ugI6PKJ8gvAciyYcJ2bH3bxInCdL57vloBLrvQ2WnRHkD5NqWwq56hPBMQ0oA9Qn9JytfJwTmgpQB8qTIUAH3JVMcxauSKq5KMd/APSsyvX00QIuO3RcgtEuNjFeTNardwaUYIlgiSAmg8edwFY45489F0l/rQtjU8S3cY352SzNuP3PoXBBrtEecq14JX2J+e3VYNFa7gyW916o0yCTDrg03wfA+c96HFbCo4Iv8MKz9D+2eJEE/5AHZRUMMj6Ky80BpFIFclm69QgJ9ejobeEloPYnLv6FBGi3VOOSRqS2KfgKvW0Q34zR8ntc9S7kEjdBJiWYUW0ZrcE0QW07KJIwOo+DobnSUiDnQ3Y3tGM6msA6lRQmDvnBHSkoeGqCscqUEWNa+Qo0bH/zMdhM/czt5D0bh4xImCqbhhna8Bnh9P8nr6WmCJ5RXSCiNRu5IWlwlQt6PKTmQRbEL0LIo9/1Y0dCAzv53r+fWTuhGZdq99ol4eC0sbx+B8/9vPu+FHD1wf/cInNqzCraUcIghCThygZP1y4TovAhSBpL2zfi4DA9wwiBTLEUrAicukQVtxIBFlnc0NBAkBx6kGPIEvIaW4vy75qYWACLm7CgRwb6DGLZEtq0BbvYeQyoVpmdCW7SpKWlogOLB4cxwESWAOHgCTtJQwQ2/CIcUqlyCwY/KNHtdAr4fcfIr3Cx8RZAcSPkZB8bhlJNcmgwVDupqCL5X8PXD+/ETbEO++7GioQFkd68cKrjt5RXqHbw3NstZCt8rYGZIkSQ48K/RkQImQqndBWvgFOxZ5RlVUCRaaJHQ8wk8He+mz8jSpXU9xLBeYuGkDCRJBKQ+1GWVGaYY8gwf1EOt5BAtys7+7dMgh+cNh0Or9JAwCbnap6HlkXD4n3/IWPi+OdRQIo8XO3wwomzEZ5xHhIM1JMwZekbeipMA60X2uNpfjGJDuOdTCoLhYT6cIWOURU7CX1L6YYMa2Ydq2KTqj2vi2pj3BfWDO3QTr8sbALcFw//Cz+1rrt+ne0e64u17ysAZ0mdtR58dzzjDDZ1rbOLsy6tIONuUCvvamTjXMQgRKRIOG9SEwwf74dCZ+wGO5rLwyROASsDwkZKFAnyQUKfYNrnAyRImgU/WLWXK02ck3Mhr4KOWpwSmc75+fQLPV9b+l4I8GjojhYe2IXINEZSKUqNQHHz7YZikcK0BhpnFaEXgyFAH7Lr7ezhSTPJqiZDCfjoQdj5IUJJFTEJfW8bSKyAVhFoTfnq+Aj1Uks6F0MqQi1YG9OgAnzJA25Dy5Ps+w6ShPnxtDFPXtKVKEiw3MjlOurWlQJ8KZs7T/2kbbfmTEKSF1rVgrDUlgM6JzpWENi30mqCEP60kmND50TbmCAIzNELf0Z4FhikWVgQYZtZzBR5fX548hmIgwS4FnpxGl4hzg2voc1ISyM0+EyTJ5teQ1S/DHlJYm8oLvTYnMorLf9DKAAl+moaZ9qnPvVomQmJqH1YEGIapKciKlmGCyj2+5GiHdIWRSGGhUAb9j0OHOnweDvc9GmJI75FiwUoAU0oaOD+AYZhagrwCJAx9wrMckOCXlni6wkjaco/bjvZLAj2XUKdz1GEECqE0NvqTKBmmGNgjwDBMTUFleSsVGtDCWuco0GsSzNLaz//4pJwGV2Ghfer9uvjOSysDSWYcZJhCyKy4Y1mVTKXHMAyTHxKWNAyvnB4BPTQvl7VOikCuNtDn5DkgIa63IwWA8O031/600kH7IyWEPBSkZOTLqWCYJLBHgGGYqoCEHQm4XJAgpW3KqQQQ0gNQXGEkXUGQhDehvQBxygXtjxQQH/SZVgZ0H7ESwJSK8igCYnay8pQwZRhmdqLj32Txk7DTgo/W6XU+QVoq6HiUHFissiHzGOTMf3GhABNSAnIJd510WIk+YOqLsigC8VOZ/hQOXb8f+oLlb+EPZZwhc8fk3+Ix7imuDHAKKn08hplNaCFISgAJY7KkSYCSMKVEvUoJv1KOzddzIRBasYmDzj+X8pFEmWCYQiiDIqDqnf93Z4rSyXtQSC6Bjsw56Jl7RC3/DjDNgpNhGAlZvaZLnl5PTVV2WmE5VLC0hZFImSHFJm6fJOTzeSFYCWDKRUpFQFYly1VpTdQ7HzkFR60pzH4Kh7IL8P9F+Pmc8/ItwXl4fO4HVTHbWUVQVQoPsebDMLGQMCShR0oBvS7WRZ8W7Zmg4/oEtxmrl0mFuQsj0bnQHAAEeTp0qENPTkTfJSqp7DCMSfJRAyTEdq2BdhTye9b/A7yp3raRRUuW/9seexYz8gZkm+FUw7/A4/mGwYptSWnQXIY9c/8cHk98DnBk7gisvL4EutXbI5lzSslYDn+4vgLWyLc9XISeuX9Rr5Gpv4YPpxdCu1q1jxfuayBzBLboZ0LwHdr2MqxNcbwde3tFjfeRj5w+YhimaiChTgKblBEKFcgZAosrjETfa2ycY30/bluGqSTJPAIvHoQ+UgIGjkBPrBKAvPh3sMZT73wH0PjXcfg2jxIgYuxCYdChg3NwChbCrkjcfQHcf30RfKe225OZgPbsX6l8A/IyhO8DXEWlQe+PFkMJIKViuhXOB8c7AkfE8f4a20zQvqgNAN1Z3QZUDgIlgBSGFMdD3nxsPfQc/QLa794Ffb2/V8dhGKbaoLAECW2y2Elom659WtfJgGTx01A+OWeAFPDyO/bjVSsVtD0Jf3rNSgBTDeRVBF585wz03bcMBo6uylua9MX/eRmaznnqncfyU7gv24SW/b8bXgMUsg2XYQQF/0prls4Jy7vwZmYUt2mCG1PNiIACPbvAOR7A8+J4rbA2SGIkQX8RBoTy8VNUVv4KrX8S9oaXIi3Pb4WeVUdgoH0N7DpzkHMkGKbKCMMS5SuMRN9nmGoghyIg8wHu7x6BU3ty1TBXPPx7+BtfkmBSpuZBBwr48xkzhwBpvIyiGPCz5XK9ZLTAjfi3PbtCjWBQi7D2XaXiL7BFKAhLYBcqKwOZUuQ1vABbVu2BUyPL4H7OG2CYqoQEOwl0+q9zB/T/OOhzEvIUWmCYWiCHIvCWqFh2ZKAd1uzKL6h2/K/LRf6AnSQoeRNIQ26Gm8o4VLBQKLcgdOOHS5APoMk2B3kEpVFKXoBDZ3bBmvYv4MiqBIoWwzA1w0wURmKYQsl7lz7/wCoR0+6+7wz0vRNn7T8s653/20m/u3zOCAyglb1m+qfqDQ+NP8AwbrM86wjZqYVC7A4Lv0ApuQbf4d/2bItczQUlB4owAioNmatGPkKBiNED94vRFXtWba2fURMMUyeQV0DmEFR2xAPDFEIydZVi2ntOwUj3/f4EN5Ek+AX8a2wW/F/gqEikWwIfTpqCnrLydRLeX6Af/9pCNkzMO+offpsT6Ylw8ws05+FxFOrRNrmEbfhnGpUw5wM4IpSa6PwHuY8noVEDlHgJH+3JnXjJMEzNUsnCSAxTLCmLDvmHB1JC4f0oHvMlE0aH6tlJfwSNHKA4fIgz3M83FFHtd9gc4qdItj9zuCKhRwTQTIg0RNFtp36fkgbtfIGcx1NDMIePciiAYWYzpASUuzASw5SK4qsPsnBjGGaGocl5aAbCcgteivnTkivjX08QRCMLGKYWKDqTJVeSIMMwTCXQtfrLnZxXLYWRGKaUFO8RYBiGmUG0BU7IMf/l9QqQAuDG/2nuAHqfJwhiapHyqs8MwzBlhEICenIfEsY0+1+5vQJyIqGZLYzEMKWkYorAP/7jf6rr/wzDlB49uQ8N1dNUQhkgr4NWQOg1JwUytQyHBhiGmTWQh4DyBbTFzgKaYfIB8P8DC7xCM4wr/sYAAAAASUVORK5CYIJ7dhO7kFm2BtrUO/8+qjwj+wPlkP++N81sEX+y8NOTVmqXL8puzUPnZpkwJqj7gYyV3S6yap2b/a4/LEMgjkfr1BfgGuMcfXV3zy8SQxCUNQZNdH46xWYk1kCdf5CC09+e5mp8AUFZqgxwzsfCvW427jlGjme2lTi3uPFjtP5uW5nXRRynowDHuzOwlI5HxyHLg7hOeSdngHsOzvfi+lICJDyPTf42j1w3E/d+8GRLjL+Px4H2c3uxffUiGxh8BLd1NoQrZiGUg1sviSn2oUQ1Oic9IjOgUbIV03eus6ept86xZgskrEkQ0yCDTPYkyIeGhkTgHH1HGrn2rbvQdz5hTb/Tq9Dp38ftyzBJGL8PnrK6CaEkTbwyc5yR3Y06POxgG7GTizeZk7BRAljtE2SEq4i5uBaaKDOkmw+e6i46d12vArStM+pOQsn4nrbjvVlYE/FFZ2EpniOgEBL7vZaHBqy76RIgoXTNybAcOj/KiBf1RVNZdXBVt2ovtV9YFgks43txvAK2p+0bJqEks+ipfSJxCypLXhOez/4498UwPKt+f5xSHJEwC8q7ZAstbKuVWKb+7gkcpJyjsvX1C+InZCZBEnrhvqZwV/cCDb7099gGjeucOmLZS1vysn2aMrByE8AHouws3KDbVN17wXXBrfMYDgrM7IMCmQ648ZDaD68f3Rv6ePseMD4XgxH1njZrcITXBoU7WOfmtFOloKyClJufslnh2wuUiU28p80jcCnj1T1N0L1L7iOzdxVLWeuD/P03Qccp41gHhmDZPZ60sbMAcg+QMCYNm4SxaWKn93Kq3JjQ0Gm+u5zzLgW3/I3d3erBAu1PQp3+ZuHOVJL0At7RiPYdwA4Xi7lGdY4b1qI2g4LhsNHJRUzmD9bIfO17jM5y9xAcRoEL7RmnM07PhudIM8PyI/ngqe6hcLFz16OgWZVFQYSC0NAsxfmhQOlwAq0szf/psYhL4OBDl23LgMgzD9DQEm1yKisQCir/feN82XGsfioLbU57yuNl4KoVoWC7ATXOkglyhNCVArcNBagIsit3QIVl2YJsGD4lydOaSReYJ+4FvC6mxQLvhQ+wLNvFYl5P1OK7xyLnKu491MTNdj/4UF4MAvT9qbGvX0G0iW7zxNyVAcoYP3CmiEB/fA90HT3q3zp/CFvUbpWHothDwf/SOUrKkoP5KQSzyI3efx5eNtOwqvz2HcumUJDfBBC6B6qXEId+zzCVJL2ARyH1ufpTYAkkqTkPYudrac6o6XV3ozBVnf/q+WRmLUC3Y2I+eKSAgwUtcNNg5J/HTVoGoibsSN2FwNP7ZaGxCQWwmZ+eNmF+xY58gfiFAs/5Y/WnYBT6e/HFEm6keRvloBYemthN3LKkFq2F55Ut2FZK63bLCgYLWDcyVX9qDihiCbV0smAIq0ZZ0fJS8w7rVMSsXQRxL2DbLzXKCcqy2rMA/cb1jApVZbWh87HKkub61MI7CXogogZL3pkCj26CZcuX+7c134YX1W4Vxw1yExaAdKb1ha04wLJyY9MmzfXNrTS0mX2QwCZBTa/aN69f46DvSXiTiZ9hJpIyNHg/RbWYqlPMjJoO25QcbpY2HkfgElB+YMvEXWSqXykcU3mwWX769JCVQZihcQBxs9dkH4fy55PmbdRHmPXLwi4n2Mq5juRL95RVFbM5os35NFgKBoczaVYCzcsPXAHGVsEMWLMBmkdP5nxf0B3DVIvx323CTKm1UKnJNnTUOBqhiuBWAlCYxj1m79UrMqiJ2praxJGHgRgTemmU5aJPmeCU6fbcofIHGprP+6itUJNX7+NxLR/SIlEdZNmDx6Jm8rTYbpLx4LOiTBxisKQEveVmmjQT/fgRkfxNOVio3jPlQ1q89NEXN9MzTCUZp4CXQUYNxtSrfSelRrjSMFeuxr8tn7jweWZg0SbDNHxXDlbekqmI0CgPFYTmDYQrjvT55+GDGD96qPGqtynQPuSlxczouj3Xas1RWRDUOwl+FilDxh2QheBdx0IhBxbRQZgkOhiKjzxX+0YGfQoVT2AFapaJjJcwAv3GCw5ayWUUxDokQLhUTFdQxU30ciGZ5kVtcLf6pBxc4S0j6O12e+nhz6AH5sL6n6we17EYHMJOYEIchtGknybndOLeKUGRqUN2YJ4kKvTcKWveaV8CMskr37mYjhWdJuci6m5Mm4vFN72LTOT6d6W+1zj7UTt90FIno8W1aT1h3f0C22gDwmpz+V3/Wjxn83iR64JEpuSFuNfbutZuWVhOZx8K146Cp43d+jt1jxkA6ftB3gc0QwDvIXXcAfGdLJdmbMTWS2Dcf9bvxZeIpxyNe73LuRcqDkW303KwGs80OWcKXBRn+hstM/t+K7y5Fpxpcu6xiNk5VW48kHDn3O1MtXGnyaUX8EmE5EwmsVBmGGayoEVjaMW7agtU8qnTViwCXi9cQ5H2DFNNptda9AzDMGWgc6VXO6itpkYubkMauhlER+/pbxLuJNhZuDOTAQt4hmFmFFpj1mlZq4meIkfCnYT6ZCXEYRgfUztdLMMwTArINE9Cl4QtCVnS5OXCNNU31esBhU6Ow/52ZqKxTfQF1uAZhpk5aI2apqRpSPBW21RPwlyvZkd/s3BnpgIs4BmGmZGQsNfLxBLVFvKEObBgmMmGBTzDMDMWLeQnwh/PMFMNFvAMw8x4tJCfCC2eYaYKHGTHVAxeJ2E6oRewoaxzbwDQ4jgL7Zzxk4FYpEfXA1QOfFqEZxxr35NQp4h2na99IoLuGGYymH5BdrTymJkdrKzMZxWEFrox6yM2Ozc7Y+Bev0hudgkNDipzbWlVupjMblMdcW9N1L0kl7zVWefE0rWx0GCAMsnF54GnpW7DjHMb4cVt6guTTathr7HPm8+sUF+EyHoMQ+8n+PLJEFwQn5YHTVebM2eOekeBcGPqr4nxxzPMZDO173Lq8O7LwNkgU9wInMIqr5lsIS+WWg0zlXUeA5Gu9jupMrLNAsT1k8vC6rZ6Yn0Brpn068f4UYLVgDTqN19thd7j8QMAuY79EOzXmeYOXIT2tY6QJ+F+zzzoQ81cZqT7CHoWXucV8i4XeimzQzr0XHgzvavOzc7+eGa2MIUFPGpi67IweGzUWBIW/948BuecZDaTzcGHRkUq2LbFMyhNaAXYsBhvr0gim2F4lk34U46XzoXR5hoS3OvhIxTGb8A76rMIKLg3L62HngPG+vU734D9pwHab9VJapbADzbMg+bTHxnm/yOwBQcCsPDqWKsA7BmEPvVnGmguPEWzxy0yw/54ZraQ3Acv1mAHOP4awFKRYIMSeKA2JpKIuMlD3OQidiKZIImMlehEJxxRZS2g4/nXfBe+Xp1ERdcrqIvElwTHTV7j7hOUezJjJBFxzk0cL1ov1/8clHUgYyU/cRPqRJKjuMlKUpyfOKaZFcRNJBOUNQZNZnIXT8IZt6xIvQlRntNJGvWXZfgSDWmi94mJe46R5EOlEr8EuPdn8fMTx+kowPHuDCyl49Fx9gCsFNfJPR/3HJzvxfUlKxSexyZ/m0eum4l7P7j3C+K7FyqN1NIhmmRmG/nJ4xLU6KQ08j04/n3tb79w/D3Y+PAJ9en4IbM8+dvjBDwNAPRStuyPZ2YS4/TBZ2HpKoBOFBCUnvSGl7Mw8MKITPcZpColQZ2BTwOTrMyR3bYu9C1S7myZN7smMGsHKWVVR7x6PnXkRXLDW3m/sV7YyYI2Bb+Wh4Zb6iyTOXWiItNZUK8xGMB9Ir5arNMj4hxpH3VuZlpbLzIfvM53H0BlGS4G2Q6GD5qEkuWCuATHe30uiNLnR0LpmpNhOU+8kIdBb+pbKqsOruoesfYLy6LrhwKHBidGWY3rbBcEHU8OdNQ+uB3vUV8qRPpWcbw4nzhq8+ZvSZip97RZQgvbaiWMBt/R9SNLTpAa9umh8HN8S0Iv3NcU7snOj1IeL23Jy/ZpysBK1DI/EGVn4QZ9LiK+wLguuHUew0FBJM6A0uHWQeMhtR9eP/Pe3/eA8bkYjKj3tJnCnQYTKNzBOjennSaYu9tQUCo/vkD42a+G3gPn4QLWt/Va+qwBWizzP2Wy2wirej+CLkp929qoPq8MJNz1anI+JmN+PMNMBqnv7HOHdIeTgYbeMA98CJnRbY3t4JGCyKvduEB9gJCQp05dCDzsKCkX/LnXbC0rDpGr3MHSMEWOccNkjuXf0I4d5x6zsxyGd1HgRvKUWxrTKHR347FQ67pSvPcj88Fj+TrffQBpc+E5HTxD9c5AkxjooKBZ5bogdE7zaB72oueHUHtaGvbuMTiL+5g52zVUViAU3Nz1D9bguWC9TY1+9xB8QNcqOF493IzXy617BPzd98UgCeuBAxIRZFeu/x0FuC3IhuFTGhRYA70EJDo/wryeONjsHotYITasRU0aNXGz3XX+/mvMwQJiXz/K32+0eVLuwmcIXwbOFBHo9/4Q3jp6FLq82x54XO1WKRa2Gm1G2vw9OTh0B2rtpi//2hw0qz+ldn8TtL69F7X29L71JFAwnU4CEwfPj2dmAykFPAqDj9WfyGBfjGmLNNMgaho3x6So2fcAdf6oKdH3TkdZjCtbDDOtwK4XCeb+XnzRnT8OLBqEFmXUCTdh7i0hvP3YZQnTvKUlKlCwfa7+FAgtU++XhUY8diD49Cbayh4MlTw/AZmKjXJQS3fzq0vcsqQWrYWntJxIrduslzAh6+MJQVOAs0eSaI404FPaJmmopHXHRNIXR2rekTqlJNH5CWzrUVSoKqsNWWmssqS5PrXwToIeiKyTx/JaRX78bfjq8uWwzLttgkfVbpVCR98vpCj6W4fgectU70TDX6u0+122qb6cILo4ZEa3GmGCT6KZ02BA++PNiHuGmQlU3jalfKGWiZTMnOprGynkBI4mZmu7JjHmcB/WPo7pM9ji/MPFKGZGTYdtSg63RIOd4PyUH9gycUvNuTzI8mDXR2zjOE8BDXDEvWCYuRNBwr1Oat5GfVyXQHIqeH7kS/eUVS2zuTbnk7snGBxqN8UkIILzmubB+tbP4LZvHoSX1OeW1i6C5eph2Vql3Qc+/EZo9Q5Cy0euBS+nw5XyrZMWr+fGSyFfk2hQwDDThYrfzVJDysMHJTs46rS1UPJExgszZgauWuEIgrtq4CrsFM6ddM3hJnIQEFgYUGN1XQSTTx4GYkzopXHOT5luQ/dJ+cQPrFzc9lQDr6ogB4KDx6Jm8rQkP79S+KwoEwe5ZLSgh/ZMaBGZYBO91s573rcXotl+41yA/n54RwhzNef+dK+h3SPbWkUgXndXugA7EsKkqeu/XWg6HKGnyhWDou3JVE8DAw64Y2YaFRfwkQ7UE/VLBEF1wi8+DM9GAseUj/wWHAgEnTH+vam0OV/6xI1BRmDanEoL0ozCrkPYmXgD4YoTPT/Hjy4GT7SPepsG4d8nF0QRM7ry77et0v503/Hos2gZwm/tGQCKuApP7IEkOhiKjzxX+7qxFZok55cQGS9hBPqNFzUQjQxqiyDcVXi+gStogk30sOcgHKIpcWu/BtvVR+SLF6vRva01+hPw3bdpStx1xtz4FfCiWKXuMzsqvwgksCkNbF1dvXil9/R3MYqZ3SmaXqeXJa2fhTsz00g5TU5PD5Mm4UYxPQdk594bN+2HzNl5aLxPRhuTYNbfu9N79OeRKUvm1ChjepFAuQQs3KlFCp9QMOsgvneWWpXHL4RTn6x2ELt48ZXlpVT9k56fsx+d1wctdeF0QiJh3eMGCFagmHYLqHf03bvz5fSysG72PoKYa0O418e6P9yBIt4HnX0oXK3jadzj0j1onnPx87OuuTouLdbz7NPmfR9TLwG5ANT9Yv1efIl4ytG417uce6FSqMVpwgA5A2f5WD3lTaKnx6m3GjGlDoU6cnm4Fi7+7Um465Hj4n0pwoVrpJZNAn5kZFiY1kk4a61dI33q4VWJ0861gGeY6Y45RY6g99N/LfrEQmuaMtPPj5l1aGFNpvEkwpW0cFeAa6gsEvB6apwrxPWceDLFkzCnckzhHzdXnmGmGz4B76gDDMMw1YWEKvm8kwS16ah47XN3obLoe8KnoevlaUnjp/1I4GuzPgt3ZqbDAp5hmKpDmrYppEmjzmYzXqFsUlNTKzRzGhD40NaAYsKarAT0PZUzNDRUdBlbhplJcLpYhmGqSjEhXMz8TpDmTQMD32+pXBbUDCNhEz3DMBOK9pHrv11IoyYhHgcJdzKxm6Z8KidOuNN+xcpjmNkEC3iGYSoOBbQRJIRJQ9cmdhLApqme3tMAIM7HTmZ1WpVOm/L1ICFOc8/lcsIEzzAMC3iGYSoMCWGdrU2jF5Sh6PVMJpz2qgV/nC+eAuJoAGBq7cXM8jSYiBssMMxsgwU8wzAVQ2vYJNB9gpaEPAl/04xOQXBxC9bIYLziiWM0dDzy6ZcK3GOY2QIH2TERZO7vepmnu6tNLnbSfx6eN9can5JQGtKbYFmTXGjlnWXGeVQw3/jUpsgiOj704jneBXPcBYOMBXw86IA5Ms+TEPfNc9dBc4S5QI0UzIWoeV0tFDT4Wg380Q+lyf7OZxvhHy0Kz81cgKlU0F5Z6AV6xOI+oHLdX3Ry4E9Npu+zzKSlMkF29MDtd3JnV5NEx6OVycyMXuUtSStynAdlqG0cy5DK8sa/JOpEIxKIIH3nUCiKRCExUMf36tfhB5vU+0nnBJwRacuG4Mye8DzKhoRfmfdSWRQ5XtF7STwj1ahnmK9frHlfAlOwkqA2NXX9bG1/NQP/8k/qxPa93Y3w//njX4J/nM3i/kNC4MdRgC/E92Ti/w9/IBM0PfkiLe0r0Sb8igt3Qq23L7PeqXX1fYhc+BuN5Xgnn8TPMjMjmQEmetIy6uCq7jArW+cxgEX3ldnhkSajyhGZzygd6CRm65oyXBictiN+0blNc2SOh2LY6W0TI1IY471eweVuSWvXZnJtNtfJcZ5YPwa/qB+Gz9+6DE9t/gJ+8MAw/CXuR8F2pHEU859rDZ/2IWE+JzMHYLQOT12uN1/MN19x+ofgtPpz2jGNn2UmHdNewG94TmakO2yYI6kzOd6TgUWbdDKUMlFJaiYrY9jUoIjGMtXRechnDDFZ8BZAJJnTZEMCngQuad3kQyeBrKe6FQr4minA2NioFXhHGy1so/dzIeFOQXm0ibILOIjI4sAnc2kChbu2Ek1HpvGzzJRFYh+8TMBhJH2xcH1zbjIPN9mHJJr8JSwn2fFKJe0Aaz9KdvPpYuOYjt9RHNNJXuJPGlPs/PyJTAKMZDmJktsYdRfJXII2Mds82flVCjuxiIPp3xPJSpqge9fP4Mwa4zeRfeZB34G9sGWn+BZZIfycLa7v3EhWInASnlSK6H1pEGlT2fbF/dSee8IoJ9HxhC86A2d9OQmS3OulkjS53ztE70sb93k1EwVpvzv5z7PZK+Bf/Ay7nNdG4Uf/loQ/TZPLCyFPgjubrYPNu0ZjEwFZKP+8ncjHQH0fDH6q9DxoP7cf01cv72vAe/31NvM30X3se1/Fllxw73e5b3jrTI+4AKY6jMsHH5jYyGyN7+mBkyY32syHnjoY22T+xGuFiMmcOoSl7dQZ+stJdDyVB33gTFwwka3xtK2bAzf0qXpRuW4OehfsBKmDHOweczr0Yuc3Crs2y8+l39I5xyKdaDGo7mLwIcoZgVP9WVjquA5Sn1+Z7Ni6F267A7cDF/EdBbSp97RFgnfqYdk9KNwBOyexz0fQ0zQPNj+5RH2fDOpE31wL2IHpY70HXc3XwZvPrFB7VI59D6hr9RqZmWnwpt7TZgoI4fuWwlR/33ksA0sdX7lI74v3QeD6ccpJfLwAGXNipRk2U8YikXvBTUusTfPiXlKflQkNUMJ7k7YxGLilLjgead7RKXIycp6EujbnZ7M5uHd3LVx3rl6Vo+ouvk0JDWDEgEjX6RIc783CmpfHadXz8NLDP5P35K7zMjc+CvDgefAI3Pa1G+H+Rf3wvL6P++fC+rT3sfD3y8GCPtbzx3Ow/lUjbS8z60ks4JOy+qlsxGSuc3Cbea4jeawrjcitbWOlH1U5zc0c4wLK760D7EQWt0uWdSDp+VUc0rCCzn4U+nvxxXEdFD+/e+FHnUeh66h/2/u42q0KUARvqHlIM2FzKw3NkrICbkdtp+eA2VnqHOOtk9ahidz2eF1M7fHgQ3k4h4/VNUFQaC00teJLb8EjqNOCA9oF9JqFRtRwdc771fOjlq5E93olwEHODe04KNljDkSG4V0c3Jo5+UmbkIvW4KB0RM6R1/55gkzsKx8FmIfn+N6/GrOm0aUHB0CrstgGONg2rB0yf38GOtSgf8tznd5nQWw/fUzuVA3I8hQMhJXJv7kB7hbvk7F9zTxoxnJCqxcNND6DHpgLS6ZQkB8zuVT8iReC2xSSYpPmSbODkQ+b3q8Kkebl+iXJjBdoDhlYtNbWkpOeX6UZ7JNajkZofanMjT+Gb61ZDsuW+7eN2LlWCzvIDQXzN1HjSGNa39QALfhCms+brxqbMNfnYP6kRPErwU1BmNa9IM31jfP1YA+FzCG8dnq/cjXI3QUcGikeREF/DAcShrCqzACiDMRzhs/JfWYboEZP5np8Jq5Uu5maOuTxuwJNZ7OTyLT80jDAfxmC/4h/k+++WMBdcdQA6JY6q06PCHO9HiQBvPjAGu+zILZvVE/Ay2j8EGERSzVtbQnMpyT9C6+znwdlrm9pS2cdY2Yu1ZFIWki6m2me3j0E3xefjwmNZ6l4CFNGvqtOL+xMQ6RWU2ZkMYH1O0wm9vZstE5Jzo+pOLbpU28/g+/uUTtMBmRZ8dwLptUnMIcrt8l4B7UbFmdh4MwQfNpTZatRYhy3QrBF/fUDA/jEZguQyVDqVjkENwV5JjsSLIYTDAjKhKwY0TrF+OunI2QJiDwPe2fRmg9MKSou4D/vQ6FojNxLo+fakqBP22ENYyeHI3XDFCiphY4OFPA9BW9AUFKkudXW4tOf31Rh8kz040bN351amonfTVIUPagV1iHTjJ+EPAz002A2B9e05+FTFFL7TubFvd9BVqXJQrjCQq04EXVDOCSQ87P1XPkgch7b81eVOV8MAMqyxMm2KmVRmzQT/bgpz6zPzD7SC3ilNbcttk3XGu2DXJrWFBkXMFfieNrUbwaTrca/FzXl4fi4NWo5gDC1+DTnJ+cux3fk7mDBjUSuLFUw0YtpaPXQsWwcgjcivN3IYOIIvH58GJqX3jSxi4go4RU36AzcTGnXSRBCC+9rLN+ixPEEOHBt0wPXpwtwDo+/iAJBHRfOhKGmkratS7vuxIgIvtOQtk4DFnJ//co2Zc7/dr0d6Z+Y0C1iBRY6VNxEr+7l9hvHE/jpxqjo1RnVW8WOzvNwoWke3F+FIFNm5lDeUrXu9JPI1CB36hBReiqZdyoMUep4CetjT6dTdegNpwcJAetMk9Nlg/XbUucXEhHa1nQkpx3ou5MZY8oT4au7S7Lzqwru1LWSU+A8WGVQVP6HABtugo5T9jQ573SkKk2VC3Cnk5F7xnN/2Fqmef8lv1cERY6np9OZAXTRz1Lc697BpFE377lJrCA+xDfVz9zHezyaD39xFP7y3jr4a7VsrbWfOPcC3IznQzMVZN/g7zsE7rVx25Jw96k06p4nF7mk1BQ4D04Z5Jo6caOaiWLe65FjETxVbrbimybHa9EzDDOp6Eh6Crhz165nGCYZ45oHzzAMUw1Ic6dlaN0OimGY8cECnmFmMeVPRassehlahmEqBwt4hpmFkFmc1oenCPbxLSrDMMxUhQU8w8xCdFpVWlBmZKSKQZgMw0waLOAZZhZSV1ensr0V5JQ0hmFmHCzgGWYWoqPVzbnoDMPMLFjAMwwjYF88w8wsJm0evLswRuwiNwnQ+clpQYgtoBZNsRZASbjAxAzBzddO2dys89YLy5iL0swa3JXBaGGdSV7PvurE5RMPoWh6Mttr37yNXl1wPG2ly5ALsYD5zBZbBIlhmERMqXnwQQ7scvM9G5zupSChYej9BF/E8qmzF1rtbf1C6kQ5+YQflc2O2kbks2cIEu7ZLCWAkYvOVB65BCv0D8FpfJHPLMMw1WTGmujdlIyzgyXwlUX1qLF/XHypyp1vSAE367R3xgcJdbnYzFjw3uYIbBGDxUpbOtSgnGGYqjDzBLxK+DA7aYRW3xrdDOOBtHaaC6/N8qZ5vnqavOSlczKbHMMw1SOVD174zVvtZA0yOUQhklyDkkO8O99MMOEmgFGohBYD4/DBl0b6/0AnbdD+accHLXzXlNDh/VYn+YmruWh/ooE36Ymzn8/nXSxZCyG+B9h/Ry8sMcqK+NUF8nixsQbusWITtXjOTxBtC50Axl8fpGjyDUL6h0VimXMLirZ7JNlMTAyBu1+sn1e0Ry7er5y0vfQ5FolpcOMirDrp4/juR9dPHWlPv1+8aGIefU8dAFgvzo+uib6/huHIT96ER/6MBP6vOPeBL5FJsmeLYZjqMqE++LZ1c2RmNpHrfQRO9Wdhadq0mhWmfe1GWNX7nvJNfwQ9TfNg85NOqtOF18Gbtw7B82Kf96Crvx6WbVht5F0mgYSdHnWWYh+1uR0/dcTUOZr74ejmduN41AlLAaPLwePBPLj/1a/BdrWPZC6sf/Vq6FX7PS9Sp14PP9gkvyVB8OartMnOmNKqyve0GWVp07w4L/VZBCXcjXrT8eIESVFIkKAwomxyuqz9p+lcvh7UXSPqLAYyej+n3bGszfBhUI6+fm66TGqL+5eC0aYkeNz2LI28NmF9RJs1472ROj0n3S9q4KjL2nUeWvBeDFLf0nWheADzfsTzjQah4bXZAPByUCfVTvfY5yfbYMiue+R643UQ9zm2I+Rg1U/o/pL3+4pf/xWxx5w5f6tM8/oeiMd6tvD8KJVp5NliGGZCqZ6JnlKfBpr+KPT34ktrJkWO+HvhR51Hoeuof9v7uNotBbaWqXKML2ozhDdiaR4n4J1T2LE15SBUvqQZvLiPHzv1DUqjMwX/noOwJTj+CrhdaL4fGkLzBHx3H3aO2PkusfKe28L1JeytKQ9767Xy/Y6tuiOnzlqep3xPW8rUkZsaoAVfet4P6+0ez+Slh38mjhPV3rENbkXtEAcKpva8YyvV0ZNDntrKqKsIwjLbHYWgfYwjcIKitZobrEGAFIr2QGTH1rTpM+W16Tlg/g6vzdsohBe2RgcLeF03Ulv7NNZtC2BZE2q+zn1wCOtu5Q3H8wsHbijIUbOm62hbHo7AFucYO96nQMEczNcDJhxYrhJtUPqce97WZdVD84XPvIO3pKZ669nacw66rZzmDMNMBlUT8IN99upYImo+VR7mH8O31iyHZcv928ZH1W7jQPgBLeGdBDUw0FqyV6NTg4BT5+JNlEKQDkN3lyMYVefY0jZJ2o+KYTCFz93LmqAZLsIJS9iUQraBOVCQSMEc6fwvDFptJQcOppCSmnBombBN3sTdbTn8P209PahBDmml5vHeFOZsQ5gmQNaJrBZ2WaLu5uAEoXOWGvl10I4DnpcjgyZlWTDLMl0IxLW5hNfKDnBzB6wT6Y9nGKY6zNgo+iTIzjc9WmsVZlUy6VNH+xPTjD+dUdOZ9HnhJk3eabXgSkLCneaukw9YWybIPK2+rhJkHtfHCreUbgqBXe9gi2j8S2C+dq57Bp7ar27VK8FUv2w2C4WCjIWhv5PinxMvoQA9hmGmNlNYwFfeRO+ysLUe9LzcstA+beE/bYKvBJqdFJJFTZRCU/aYqje1QQdqvn3notrbhKBNylqAiK0coSbbwDJDC1bAEpRc6aYxKotIiel/MjI7nYbtRVkxKmFFSVOn7c/oQQz5wlHrd6xD8n49D6+X1M7l8XS2uLq6uTB3Tg1cHs3h3+niYLSQz+RroABykEDl1teXNzhmGGbiSCXgP+8roCADuFK9lxH0Okq+0lTZRK/9tYEfsnykJWAIzgRCUPtrr4O9ZqDRptXwYvBemaqNYDnTd1+6E68myYWkNhlb5ylQ8QvYBkEwGbL9GQoEvAiHPObneKIDJjcqXbDzYxkUGQk6SxtkF7phzLrHIgIqY6w4MXWKEMQPkKVExWI4908kLgF/EzHR7+wVMQ5LVv+qeDsy8o/ghy//A2jP5CFXOyJWrJtTKC8H/NBwLRRQuFOSGtoYhpnapBLwBx8aldHw++fAI7itacnDE6+Vk4mqFu55WZbxyH1ZaMBPKOpevH85lyIQLylKQJjR5Sp63Q5iSoDuzI1NRiw7JmzS7nedBzCPuQHgdUOwUXDc88cBO39dllpOtErTi0L/rVqqNTDDG1HtWG/pB9Z1CreoEC+OcGUcuGj5stc328F0yQgFXlAOfOSJ7Mb9vqkj9cNjLnnfPB7NElDfCeFonKuhMVPdqfyIHz51FD3VSWnkZjm46cGDjNh3AhL3HISX1SBDt/tLD39ol0NR/hSxLr7VHIH/9id9MNQxH/7sT26HN/ZdJWZfvPlZHvXv8Fm9jMIaMiUef3Wv/2z3b8Dv/goNYr8Ev4Fl0rHT3gsMw0w8k7YWPTM1kX7e6IBFfk6++HLM9cxEQRo6meUpS9zo6Kj61IZM7ERSLTzt/gzDTDxTai16Zmoi/Lwe5OemG4KZitTU1MKlS4MVFe5skmeY6Qlr8IyDjlhXbzU0T71KrgOmcpD2Tlq8TyBrYZ0UipTXeeMZhpna+DR4FvAMM03RSWJMSIgPDw/B2NgY5PPS515Ma6dpcxRZTyZ9hmGmL2yiZ5gZAgltSu/qQuZ5msKWRLgTuVyOhTvDzFBYwDPMNIOENqV2JU3dhbRx+o72oY0EezGzPFkAyKTPMMzMgwU8w0wjyKROAjtOMJM27tPsfYg58XPmBNo+wzAzCxbwDDMNIG3cFcZDQ0MiqM7F1NhpQBCnoetIexbwDDMz4SC71Mh8923qXWye+0So1KxAy5O+AeDL/11RJvp4U4AHc/DIugyceuEy7NpNH9AiS3WwKJglUDC+qw5yDQGVM7+rrWTueJc4P7peD94MqBOoFe6Guj+FTf9DFnbuugZ+ue4CvLbhTfifE/rmZwzi+qMe05+HzlTJrsqk6PGS9R0bnpsDS8Mk/HDutUvw7NPqjctdOfieWCxsPP1QEvTsGpnZ8p1lxj2dalXK6U25z/LjPz0Kd8IrsOwbj6lPKs/0CrKjB0WtmOfdysgtT0vrPrI/BxvU+/IYhmdFjvtL0HlsvGMjldhFrYcvliL1QR22Xr2MtpjENmJFNGO/6DKrCY83BaFOrzL3wSjs2iyvX3mrMKZHrkev8guode7jCK7hMyuE9k2CmALnCPo7m701WIlv/5/+Frz63H8N/9TVwD8ZEqvbfXFhALX8C3jNs3B5uA7ycxrEoEBnh5tSwl0871fAPXep9xYkGOfAdx5UbyuKWlUz7j5S/dD3njKtIHolzrj6xpGs7xCZN2m/F/Igr/xU4AScEUsmyrUw9D1tE834GJuEy+nT/CsjGqtO0hZTFi1bHZZlrMppUqHjpXmWA+79Ifx6Rx8cfrV6wj2OqSvgnx6SN7nYxuAcfkQj2eCzB6aPcEqHncZTLBeqltWViV8+gp6meXC/s2SqHFnSCnRqP7VEbOm11J3jTVHsTo+07ml+HzjpcfWysJuhX+T0p8QwNTU1QgiTdk7m9NHR/wp++O8Xwdxj76t74T14r64F/vmLa7wdX212BH8zBplMHq64/AV8kh8To3ry3085zf1jKCHMCjCA+6RG9yPj1N4bOmrCJbTvqoGr3HUiNBU6XmJ2D8H36XhV1d7jsZNiyaWiwyRV70EXYF/lCkphYTL6NLWkty10pbWxBTXlYmWJnBRi+WtZllz62xHyFTyeF/dZdtjyq4uhpe8kHPqx+mACYR/8FMI7Kt5zEDZa2dxkIhRY2BomL0HhsFmkETWWlxVrygO03xp/g/pH4UylaQTUnvM6KZOyolhg53JPE3RjB7Tx4UEYGa6F+poRa5EZCp7b9tQCWHDxF7Dvf+5RvvcT8NArv4Avmn4JvrYtLhL+BJwbkBp+AQV73Ap3U4MMNC5Qf5rchZ+rPyea1fPxuvXk4RTWrUNp66tXZGDgNal0zFqUlag4KPAp6ZaVaRPv9bVz4cLxD8M+Lci7sCDo00RSqv7z8HJg/lf5KFC5uV0rLSi41y8chq59oXlc5muoh2VrtAJUweNF8D3LLo/BHbe2QPf/+W14UX0iUdlSf1pdrT75/BjhWwI4/hoOfsjHJHw+BbhG+JRcP6bra7L9SEEWup4xQwPTvtFyfKLu8cwyXJ9rRiTLWare2XVAtA8toJq+LRrxGiNgSlCT2BeuMr7RTXttDprhIhyyfivTslL6P3q4XhI393iOFyKuX0cBjndjW9J1JH8jlr/S5wsMfIQa+/pqf+PgsRH4/kNa+OjrWU7bR+89OmZZuPeCe68kQJjDnz8IX//hKApsKsu5BoIjsOUOuW9jYw6yqHEPj9WJ4LhQIC+Bq6/Mw8W/Pwd/ipo4fVdb+yXYcEsTJXiEK2+8Bf8/IvYUg0LdmSGU1Chdch9CtiOgIIN1sj3pGf50se96Rf3GVlvF+Il1PyDLQg39PvVFAooejyh17dz7sqlGmOI1tt+7AN14r69cgd3l7izcfEsBPl0PcM06Y0BSgXslFW79Y2MM3P4PKTMewbqPnHusOMYS15saoAWGobvLfAaWwFcWkYukHpaQMN25BOY3o2J86pylGd+9rAn7OYBmkYL6iMzi2d8P75j1UOm2oUkqQDsqeDyB1Wf6nmWHx2+GDvgQXolkP/0xfOuPVsFb2+6Ers6rYecadwBQGUxJloAsLF0F0ClM5hm44eUsDLwwAqf6M7BorfZh0Q2VwQdAmVBxI39T27rQX3XwocvSB9VeE/jVVj9VW55wpxsdO6JG7CTC4wEsuk/77EKfq/R7UScT1i3y0C8uhN+tp3PDc65KhrvycdeFlze6kddemHuvht4DlGmsHlqvVZ9XkiZsF8omSCbzJuz8cBDxgbgvsnBD4K9EIYGfHzba+3gP3iv3hXEQZHo/3gPQcAveN+r+2PBcmcLdcy+U62cX8Ro0oA3qjvdCKwqBlD5/LaCz2UzJaHVpOh+Cmjo5ICEtPYySp5z4Gfji8/dEmTQHfuu//k34veYzcOBjvBsamkqbEsugDYXWwAvyGjWuugJu6BsRz1HDLTXBNaS2uuakbifc6J7AZzvwW5MZWbhW8J7R7YfXamUg3KNWBRFzYbV1AfpVv1DyeETg4qNnWH1mEpi21fckkHV5uLlBbQeP4DUhM/2DGWjrKUTvy1LHqzRB/eW1iWPDcyjc8VnqVPuKbaLcB4H2/HE4MBDKiJnTgkzjN0Hr2x8J11RLG5nN6V63zf9kir+/9TNhlYTmBnGvi37QNI+TKf6eHBw6cBHfKAWogsdLD2rp//h6gO53wZvd/Mffhq8ufwW6W1bCtqOd8KN71ecVJKWAx5HtIX1zZKChN+8RxiRQ7Y6ZHo5Bx/xGQp5uzLZ12Nmrh/3ca2k1d7yB1+IoFkekh41OQqa1xbIXp+uMxUNjjbpHceSODzZefJ0DPxH3/hDeOnoUurzbHnhc7VYWwiyF97Xx0FgJYvRNTmb9qvrWcTB2QLcVavHdYx5hPAzPOp3JvpMk5DLQZAQn7XuAOkUU/JtwIIWa0NJ2Guil1dz990J51KOWRvejWQe8rw9h3dszgWCjyFj/NT4Kbz0nn1Yys5NAdpeULU4BrqgdwgHBmBgYiOC6zY2oiRTwXw2Mjf1D2PHib8HKi38LG//ff4v7y8c4o6LqK0pP+Iw34AD8A0/b0rNsCcTdY3AWn7+GFqN7oWeLBltiUI+DuU14rVCousK9cT4J6VpSwMK2xn4jtAAlPF6FuLJFuVboGHjf3rwY74uTVdTMK4pqx95CEYH+GOz13L9yK0fomIF2rtlbKSMarYjscmbxCK1bI8tb1fse3LZVadECqXVrRHDqrUORVNSVO14Z3LsKFreUCq57DDYuXw6vdLfAym1HYe+4hEOUlE+EHegy2BejkZC5iiKc9WaZaENkx46jevoeH3Z31FwaeQMPonCxb2AlmFszqTVvN1pbuBLSIkZmy2GZd9vkH80lgW5QyhvuPDQ6Gn6h9yavVhBdqFERA2f8QlVowkZ72u4PDQ0KUftvysIa/H7wGL5POdCLvxfKQPl829YZ9Q7qHg5OHv2G7/rK7asPhBE15S4FS4MCbQGo2XcZPh/JoninQLv/CjWQvfA7D//fKlguD4X+IdjtTJOpBNYzjkL0c/WnDZnzzbaqs03CGtRypTWPvs/DcWswnYcBrflSEBsqD9Q3XKMj561jJzxeRaEBHtYdB5+fGv2UHJBMVfSgVLofHvFaIqWA8d3Dy5avgW+lDgwjs7UKZqOgt1NNcL8R2R7E/ZiKiGFit6PTtbZNsSlhfye1dh3VH2rbt1lT1Zxo/3EfLz2P37EycXAd9SU73+6DjjtwYFVBv3zlh7zKF0Wmt8AkJMxzPrLQqB/MMoRxpZF+PdIeQ3OWNOtPAUi405xLuAj7nTmX4iZumgfr3ZtcmKcmD+1jtWY/xJnMjUCqamhi5WDVO9jSW5lMfAvTFIMsAHJ9eRyoocBrX3s19P/7P4Nv/1CXswSuQvWDgvLSll0ZVMwD+XWDNoo3UwcasWPFMaEgNugbE4P0qBUu3fEqijDDa6uOMSCZymjXgXCl4QBaDIjGO1U4OZGgNxGcNxfWu4qIpUXL4DW6121t29bahWKz8LqItm1p7RU8Xjoeg6Ud4Amu80PWwG0UjPcqDqwqOFe+4j2piDrFm99nyrMhX71+UKX2ttKaa5qEUejvRYFgTmER1EJHB9ajqGnKRZmzDJNk2VTcRI8jSy3cHROUQEW09rxvm5S230javhOEMoGIzhyv77slLTPYaSsrjvanljvn2R0cyPsxJbsL+MiX1s6SmOhdxsZGg3noSSHf/cBAF5y7mIfLn1+Grp/VinJonjwFFV3fmofTf/e22nuCUQOz0HUXDw349ABaxGKQS0Z9FzzLLTX47AKcPTIqXXvtGbjHvIYpjjd+lFUozlI5ndA+exULEVhGKm6i93Ohl54oRGnL/oC2i3BCCFelnccE0Ol+TmrnMQF0p3tlP1nB46VCBdcdL2muldH0d9I8+Z3LYWPZ5l0/FRfwB8+QxmuMzinwyWOiD4Lq9tCDOgzPombXcEtd6o5d+HSdwUFQduAjlsi6mTe3iexgTEuC1kBTU1ETPfmEwtXnIsKd2HMQDtGUuLVfC6fOKV99z9vFV1iqJp/3YXvjAxLEL7iRxoogqI5MttgRHRZm3LSLiCi3THs2+F3Z1w/vx3dFIFnx+zGpiV5Dgl1r2WmFPPFvD56HoSub4be33yDKyedvhB9skCtpvY4d1aTMbY8MhjxR20QQVCfdL/seUC4ZN2gRn7+roADdNMgWvvUsLKJrqAfrSY+XGPXcG7EVMxoRz2C6WittorfZ/gytfncRDgUmbznNt3np9eFc9U1ymq8ZV7SjU05R2xzMVcd+0LjXBTs/ltaBDeFU4LufvF6uttephXIFj5cYGVzX9/afF+/rhSK4DVbCYdhZgbb2kXypWtE56yU/pZmMopW//xDIB6w3nBZiT2GhEXseGu+jKTcyOlV/HzfVxp6iQsjj6d9HiAwi4iOwI52+NZ1Fmf/UOzGd5BDAGhFNrcqLGbAQcRHB40Evjejl9EeWaUos+iCmxhFySUnT31QpZBsWZJuo9hgQ18a8L6gd3M4Xr8sLADfcl4Gz4j4Kv7evuf6c7h1pErfvKQPr+jn70XcHMlg/fTz60LnGJk5Z3gGC2ocC38g/TtPVkghW2p+C5sivbgp3HXxnXzsT5zpi57T7n14NLZk85PHJzZ05Nf5gIC/2tRTt2orPw2bUmszrT7s6Azd6Dj5oqYOloNpTf0/Pkxl0qT9XbRq0t3EdfJ+VPB7ivXaC8J4KiQ4S5P0oP7+q2/dcq9+ofi/R8RL1HdG6BJjt57SBSfgs+e513/lXiMCNaOD0URq3X/Mul+2W5y2LFCAaRKi3MYpQ5Y6XABLc2xbDyZ3FhDZp7ijceyu3fK1vqVpei55hyoCENGVtowA6HQgXBy0Pay5aQ2ghny66PkSvQ++WyzDM5CLWnW9FrbxKc9vjmF5r0TPMFIV83yTcaS66FrTF8AlhLdjLMdUTVCYLd4aZaqQLrqs2rMEzzCThM9UzDMOUA2vwDFNF4vKux2EK9XI1eYZhmDhYwDNMBUhiqvfBmjvDMNWCBTzDjBPyydfX58TUtbRaPFHMH1/uwIFhGIYFPMOMk1wuFyxHW66Q15CQpwEDTaujjQPpGIYpFxbwDFMmJIxpIw2cpsqZa86X64+n6Pw5c+RM6UlZuIZhmBnDxAh4sWJPddLhMcxkQULZ9KFrIV/umvC6LBLsLNwZhhkvEyLgRVad7r/wrOrzZdg7cid0Bdtvwo/G1FdVYMvob+IxbhtfutYUTPTxmKmBFvJptHhtkmfBzjBMpZgAAa8m/v9nZzm+0dtQ+C2E1swJWFb3itr+HiDPApGZvpir2iUV8jqQjoU7wzCVZJwCXmbCicucRWx57teho+8wvGqtuo+ae2Euvp6Gr9aelB8JTsK36t4sP1/6dENlnat0kn9mcknrj6dAOhbuDMNUmvJXshML6lNC+2Jr7soF9Rf/3U47uxZp74UcHM7+HL5Voz6LQ+xLgwHNedhZ91fh8cT3AK/U9cHSkYXQoT7uy5xQg4fF8KORJbBSfuzhNCyr+xv1NzL2a/BWfp6RK9g8XlhWd+YV2Kj77eA3tO95WJXieFue6xR5gPvedtqImfaQYCctnoR9qfXqGYZhxkPlVrJ7fA90kXDvfgWWFVtQ//HfgpUtfXDyP9mCawtQQv4h+KyEcBc+bDEQ0Cb8E3AY5sG2iF97Ltw5Mh/Oqv12ZoahpfDLyp9PVoHwc8o29Ip6LzdDuNNgId8EJ4PjvQKviOP9GtaZoLKoDgAdBV0HFPqBcKeBQIrjIS8+sAaWvfohtNy6Dbo6f6iOw8wUyvHHMwzDVILUAp4y5XTdcT10v7q8ZJq7x//R9ajq+oLrkvBluKNQj5r43xtaPgrP7HnoQ4G+1FKIhi1rwIuZftynHq5KZZtAQV2Y6xwP4FFxvCZYFQT/kQA/Dd1iUPFlHIT8MmrrJMQNq0JaHt0Ey5a/At0tK2Hb0T0cgzBDKMcfzzAMUylSCHjpb7+zow8O71wOG0s5yu/9Ify6L7guKWNzoBUF98mM6aNHas6jiAX8brF8XzEa4Sr8v6WwREX0q01o5+5g4W9goxD8C2EbDkK6M5WIG3gMNi7fCYf7roc72S8/Y3D98QzDMBNFCgH/Y/jWmuXwSncLrNxWWgBt+dXFwj9vB9dJXoQh/D8HV1dxSly5kO8+NKeHW+Bv1xRygZ++MoONx2Dv0W2wsuVDeGV5ggEUM23QQp60eIZhmIkitYn+0W8sFz7jjjuOQtdP47Tze2HVP2yBvr875Ddb1/ZBN2rFK/NfVh94qLkEvbjP4oIjPMfmCXHaK/T4SjIAZ/H/lkKjfFsMCqoT5nwcDGQuGv7+MhHR9HeK2QY7l2+aPbMIZhGZTEa88tryDMNMFOUF2ZHPeOdh6Ou40x8YJoLrPoS/iI0K/xt4VQSgLYS3Rk0BTlHqOnjtb+A4/m8LzzCg7dUy3JnScuD67zUn4VsorKN1cgnr8EcUpV/7JrwiBivR+fvFjyehKHoKWIS3dxYPWGSmNTQVjjR5XlueYZiJovxpcgL/NDgKxLsTxV6pILzolDQ7WI6gSHryc4c409p8U+5Uub3mVDZFsvLMaXmEjpCnlfdoKp5bT/05BdvZ/viix1NTDXtfZZP8TIcSyFBSGnNpW4ZhmErhmyY3TgHvgYUWw0SgpDRDQ0OQz+fVJwzDMJWjcvPgi1AsuI5hZgNSW79CvBK0xjxliWPhzjDMRFJ5DZ5hZjF69ToTXoaWYZhqMyEaPMPMZvSUONry+TEW7gzDTBqTJuD/zb/517P6lZk4yFSuzeUTAQl52jigjmGYyYRN9MyMhXzfJGiz2YzwgWvtmmEYZqbBJnpm1kDCnRgZGRbR64TPP84wDDNTYQHPzDhIuJPvmzaKXKdN+8JJm6cpa8Wg39M+9MoDAoZhpiss4JkZA2nocr653wxPQp5M9aWg35v7TaT/nmEYplJwz8VMScpJrSr97dLX7qI1ci3ki2nxtF48RcATpPHz/HWGYaYfAP9/ZN3zbcX0U5MAAAAASUVORK5CYII=;labelPosition=left;align=right;fontSize=16;" vertex="1" parent="1">
          <mxGeometry x="590" y="40" width="514" height="259" as="geometry" />
        </mxCell>
        <mxCell id="9X9BCAbFEXp9GJGX4D_z-69" value="BNSServer" style="shape=ext;double=1;rounded=1;whiteSpace=wrap;html=1;labelBackgroundColor=none;fontSize=13;fillColor=#d5e8d4;strokeColor=#82b366;" vertex="1" parent="1">
          <mxGeometry x="262.5" y="690" width="197.5" height="40" as="geometry" />
        </mxCell>
        <mxCell id="9X9BCAbFEXp9GJGX4D_z-75" value="" style="group" vertex="1" connectable="0" parent="1">
          <mxGeometry y="186" width="480" height="120" as="geometry" />
        </mxCell>
        <mxCell id="9X9BCAbFEXp9GJGX4D_z-3" value="JNDI" style="rounded=1;whiteSpace=wrap;html=1;fontSize=16;labelPosition=center;verticalLabelPosition=top;align=center;verticalAlign=bottom;fillColor=#dae8fc;strokeColor=#6c8ebf;" vertex="1" parent="9X9BCAbFEXp9GJGX4D_z-75">
          <mxGeometry width="480" height="120" as="geometry" />
        </mxCell>
        <mxCell id="9X9BCAbFEXp9GJGX4D_z-56" value="" style="shape=table;startSize=0;container=1;collapsible=0;childLayout=tableLayout;fontSize=16;html=0;fillColor=#FFD966;strokeColor=#82b366;" vertex="1" parent="9X9BCAbFEXp9GJGX4D_z-75">
          <mxGeometry x="10" y="10" width="460" height="70" as="geometry" />
        </mxCell>
        <mxCell id="9X9BCAbFEXp9GJGX4D_z-57" value="" style="shape=tableRow;horizontal=0;startSize=0;swimlaneHead=0;swimlaneBody=0;top=0;left=0;bottom=0;right=0;collapsible=0;dropTarget=0;fillColor=none;points=[[0,0.5],[1,0.5]];portConstraint=eastwest;fontSize=16;html=0;" vertex="1" parent="9X9BCAbFEXp9GJGX4D_z-56">
          <mxGeometry width="460" height="30" as="geometry" />
        </mxCell>
        <mxCell id="9X9BCAbFEXp9GJGX4D_z-58" value="Key" style="shape=partialRectangle;html=1;whiteSpace=wrap;connectable=0;overflow=hidden;fillColor=#FFD966;top=0;left=0;bottom=0;right=0;pointerEvents=1;fontSize=16;" vertex="1" parent="9X9BCAbFEXp9GJGX4D_z-57">
          <mxGeometry width="128" height="30" as="geometry">
            <mxRectangle width="128" height="30" as="alternateBounds" />
          </mxGeometry>
        </mxCell>
        <mxCell id="9X9BCAbFEXp9GJGX4D_z-59" value="Value" style="shape=partialRectangle;html=1;whiteSpace=wrap;connectable=0;overflow=hidden;fillColor=#FFD966;top=0;left=0;bottom=0;right=0;pointerEvents=1;fontSize=16;" vertex="1" parent="9X9BCAbFEXp9GJGX4D_z-57">
          <mxGeometry x="128" width="332" height="30" as="geometry">
            <mxRectangle width="332" height="30" as="alternateBounds" />
          </mxGeometry>
        </mxCell>
        <mxCell id="9X9BCAbFEXp9GJGX4D_z-60" value="" style="shape=tableRow;horizontal=0;startSize=0;swimlaneHead=0;swimlaneBody=0;top=0;left=0;bottom=0;right=0;collapsible=0;dropTarget=0;fillColor=none;points=[[0,0.5],[1,0.5]];portConstraint=eastwest;fontSize=16;html=0;" vertex="1" parent="9X9BCAbFEXp9GJGX4D_z-56">
          <mxGeometry y="30" width="460" height="40" as="geometry" />
        </mxCell>
        <mxCell id="9X9BCAbFEXp9GJGX4D_z-61" value="jdbc/exadmin" style="shape=partialRectangle;html=1;whiteSpace=wrap;connectable=0;overflow=hidden;fillColor=#D5E8D4;top=0;left=0;bottom=0;right=0;pointerEvents=1;fontSize=16;" vertex="1" parent="9X9BCAbFEXp9GJGX4D_z-60">
          <mxGeometry width="128" height="40" as="geometry">
            <mxRectangle width="128" height="40" as="alternateBounds" />
          </mxGeometry>
        </mxCell>
        <mxCell id="9X9BCAbFEXp9GJGX4D_z-62" value="&lt;font style=&quot;font-size: 13px;&quot;&gt;BNSDatasource extends&amp;nbsp;&lt;span style=&quot;color: rgb(53, 56, 51); font-family: Arial, Helvetica, sans-serif; text-align: left;&quot;&gt;javax.sql.BasicDataSource&lt;/span&gt;&lt;/font&gt;" style="shape=partialRectangle;html=1;whiteSpace=wrap;connectable=0;overflow=hidden;fillColor=#D5E8D4;top=0;left=0;bottom=0;right=0;pointerEvents=1;fontSize=16;" vertex="1" parent="9X9BCAbFEXp9GJGX4D_z-60">
          <mxGeometry x="128" width="332" height="40" as="geometry">
            <mxRectangle width="332" height="40" as="alternateBounds" />
          </mxGeometry>
        </mxCell>
        <mxCell id="9X9BCAbFEXp9GJGX4D_z-76" value="" style="group;labelPosition=center;verticalLabelPosition=top;align=center;verticalAlign=bottom;fontColor=none;noLabel=1;" vertex="1" connectable="0" parent="1">
          <mxGeometry x="230" y="356" width="230" height="200" as="geometry" />
        </mxCell>
        <mxCell id="9X9BCAbFEXp9GJGX4D_z-78" value="" style="group" vertex="1" connectable="0" parent="9X9BCAbFEXp9GJGX4D_z-76">
          <mxGeometry y="-5" width="230" height="200" as="geometry" />
        </mxCell>
        <mxCell id="9X9BCAbFEXp9GJGX4D_z-68" value="sfit-bns.jar" style="shape=ext;double=1;rounded=1;whiteSpace=wrap;html=1;labelBackgroundColor=none;fontSize=16;fillColor=#dae8fc;strokeColor=#6c8ebf;labelPosition=center;verticalLabelPosition=top;align=center;verticalAlign=bottom;fontStyle=0" vertex="1" parent="9X9BCAbFEXp9GJGX4D_z-78">
          <mxGeometry width="230" height="200" as="geometry" />
        </mxCell>
        <mxCell id="9X9BCAbFEXp9GJGX4D_z-63" value="BNSDataSourceFactory" style="shape=ext;double=1;rounded=1;whiteSpace=wrap;html=1;labelBackgroundColor=none;fontSize=13;fillColor=#D5E8D4;" vertex="1" parent="9X9BCAbFEXp9GJGX4D_z-78">
          <mxGeometry x="30" y="26" width="170" height="40" as="geometry" />
        </mxCell>
        <mxCell id="9X9BCAbFEXp9GJGX4D_z-64" value="BNSDatasource" style="shape=ext;double=1;rounded=1;whiteSpace=wrap;html=1;labelBackgroundColor=none;fontSize=13;fillColor=#D5E8D4;" vertex="1" parent="9X9BCAbFEXp9GJGX4D_z-78">
          <mxGeometry x="30" y="85.88" width="170" height="38.25" as="geometry" />
        </mxCell>
        <mxCell id="9X9BCAbFEXp9GJGX4D_z-66" value="BNSJavaClient" style="shape=ext;double=1;rounded=1;whiteSpace=wrap;html=1;labelBackgroundColor=none;fontSize=13;fillColor=#D5E8D4;" vertex="1" parent="9X9BCAbFEXp9GJGX4D_z-78">
          <mxGeometry x="30" y="145" width="175" height="38.25" as="geometry" />
        </mxCell>
        <mxCell id="9X9BCAbFEXp9GJGX4D_z-79" value="数据库" style="shape=ext;double=1;rounded=1;whiteSpace=wrap;html=1;labelBackgroundColor=none;fontSize=13;fillColor=#d5e8d4;strokeColor=#82b366;" vertex="1" parent="1">
          <mxGeometry x="-4.25" y="690" width="197.5" height="40" as="geometry" />
        </mxCell>
        <mxCell id="9X9BCAbFEXp9GJGX4D_z-80" value="DBCP2" style="shape=ext;double=1;rounded=1;whiteSpace=wrap;html=1;labelBackgroundColor=none;fontSize=16;fillColor=#dae8fc;labelPosition=center;verticalLabelPosition=top;align=center;verticalAlign=bottom;strokeColor=#6c8ebf;" vertex="1" parent="1">
          <mxGeometry x="-2.5" y="357" width="200" height="109" as="geometry" />
        </mxCell>
        <mxCell id="9X9BCAbFEXp9GJGX4D_z-83" value="" style="sketch=0;pointerEvents=1;shadow=0;dashed=0;html=1;strokeColor=#82b366;fillColor=#d5e8d4;labelPosition=center;verticalLabelPosition=bottom;verticalAlign=top;outlineConnect=0;align=center;shape=mxgraph.office.concepts.link;labelBackgroundColor=none;fontSize=16;" vertex="1" parent="1">
          <mxGeometry x="20" y="376" width="61" height="21" as="geometry" />
        </mxCell>
        <mxCell id="9X9BCAbFEXp9GJGX4D_z-85" value="" style="sketch=0;pointerEvents=1;shadow=0;dashed=0;html=1;strokeColor=#82b366;fillColor=#d5e8d4;labelPosition=center;verticalLabelPosition=bottom;verticalAlign=top;outlineConnect=0;align=center;shape=mxgraph.office.concepts.link;labelBackgroundColor=none;fontSize=16;" vertex="1" parent="1">
          <mxGeometry x="110" y="376" width="61" height="21" as="geometry" />
        </mxCell>
        <mxCell id="9X9BCAbFEXp9GJGX4D_z-86" value="" style="sketch=0;pointerEvents=1;shadow=0;dashed=0;html=1;strokeColor=#82b366;fillColor=#d5e8d4;labelPosition=center;verticalLabelPosition=bottom;verticalAlign=top;outlineConnect=0;align=center;shape=mxgraph.office.concepts.link;labelBackgroundColor=none;fontSize=16;" vertex="1" parent="1">
          <mxGeometry x="67" y="416" width="61" height="21" as="geometry" />
        </mxCell>
        <mxCell id="9X9BCAbFEXp9GJGX4D_z-87" value="oracle.txt" style="shape=image;verticalLabelPosition=top;labelBackgroundColor=default;verticalAlign=bottom;aspect=fixed;imageAspect=0;image=data:image/png,iVBORw0KGgoAAAANSUhEUgAAApUAAAAyCAYAAAAN1yDYAAAAAXNSR0IArs4c6QAAAARnQU1BAACxjwv8YQUAAAAJcEhZcwAADsMAAA7DAcdvqGQAABjXSURBVHhe7Z3Nb1RHtsBPQkaTJ81IbWExRG9Dy0ImEqBkJMtMFjjsmbZALCeyvSHZ9Z9g+k/wLmGDLbKMSNrivVkSZyRki0VGwMZCfu0dFs/ILb1NRjOjvHOqTt1bX/ezb4PbnJ90we6+vnWr6tSpU+ecuve9Cx/P/AqCIAiCIAiCUJPOn/8M7/PPgiAIgiAIglCL3374oRiVgiAIgiAIwmi8//77YlQKgiAIgiAIo/HLL79MolF5B77/+Wf4+8+P4Jtl/kgQTiLLX8OPSta/gx5/JAjQ+66E/tN68se7E6IkVZ1I1vXxvQi8IEwc/X4/z6gkpWQms2X45pGvoIxx5x9i7I2blbuPsJ1HMzT0Nby+e/Q1rPD3Gt3vwXkP7vD3RHqOOxHEZOZ4ErSFU7+TT++BrrffV+rzY94W5t6dI5DjhmFjvxnDJx0/E2MANowafx2ckD79FD5RRx+gk7av+j7Sp3rcjm/BpWRr3LIkCCeMbKNy+SxM8Y8A5+BMC+Do5Tr/njJ8ssaKwBzX4MvwtAa5AzfeSDnvAMMdWLP6rn80D93YomDQT875ZG0Hhu3FcAIcDmHq0uQZYzRxdOdeWxMaHs8uHo8Jfv0r+Fzd0y1Y5Y/GBvYfnL8ymROoI8drsAMkxxPi3V2+ArOtPdh5MoTWpLb/KPS+4/Fnyzjq+M09aF8Vg04QJoni3d/DQ9jnH4WTz+pNnJCHLZhfylHmaOhsDSCcAI92YXdqYcK81HfgchvF/MlD12hbvQWf337XVizYf7io6EyEJZbHOny5gQsfmIHLE1CXlc9moYV6dvvxLgxbs3DlnXJWLsM3V2fC8UesPofBO9cegjDZxHd/mzyu7jy0WrTip9DMIuDcC+0O/VzFA6BD5BTGcMJUdkghM5TE4fUk/OaH2+P3kYTsknw0fQTX93J4gjCH+p7KcMu1PVimrKRuVK65rn89736ql5eGybpzLfx9Bhat85oJU67D9oshWowllPnRAdzjHzUH+LcAs5/l/WFaB3PY7WnCXD0TjqY2StrN7+9y8lCG1vQ5/imPovKscL8jW5bnV30e8QRzHZO2KJIVB+++YueWvN72sz1oF3ibnXFMhy13RoaT+tvy7Nfbl4UG02bWD+AI/5v6yL6g339heUW6Q4db8TPSjfi71ofmqCN/y3DlfAuGL7bh3vo27OKCLj5+vHvvzPDnLm7faJ1tk4aR3evZY1Djt1WsbuFYjslV0mbJYbU7e2m3aAHntDmdsw+vsD3O+JUoICgvphf98YBH2gZp3Rep7GQO9M8TBMHn1KlTEaOSQ25rT9C4MGGlzT38Yo9DhNVDcaR8Fw45TE7hUxyoS2ZwKmWK5/ihjt5FVIpD2Nk0SsGEvfne8mgvouKfhd219Px2J1WMSvF0TsMOf58dMiPDbQFeWddpzS25kxGWpepGbTS1AD9ePYQ1rmPi9aFJ1rofOlSoOVDCeeWtw5fX0s/T/uDjZr4xUJZ7L1/jvznKHOtCynbwLCzv3u0tOJq7njm59h4sAWxY94xt1prrugY/ttvi9BbLySwsLU3D1qd9GGDbLDhG1yLAZnqttSense2qTux3YJPakuQlz6ipUB7Vx84P6w8szy95X7Bt5ztu2ylvFfanmlyJJOxNf68/isL31bbTEzYAOvbEV1r2kNWHsJPjbaZxc/lZep14KgTKMI0B1WenYeERyTN7wJN608TdhdkXVurM5muY7zZkWHLqTpKuw+00ZaXqrD0BLC+y2MzRHfduX9N/T/XG3weWPNRKUVBG1RB2H9N96gVdEAGI3LvWxzbawFucstMAqP0jKCPJkmU1Bi2dVlLWew+6qDHd9JlPrn3lLjRR9rpzYOlZOtK0JSX3g+fYbigPaKgfUZmqbq/hgM+pAhnVbioLtgH1pyPruizw0rbSyEQ6z6ix56UIvXsRDEEoT/Hu78AbFaImUWslF1vVUt5lMhjZiEy9Q2gs/YSKxPOO9S7hany4C9u1xjAZXKny0obSaTirrn8HOnMtvKcNKyczK2SGRu2adR0KUQUGl2UMtFpw9JOnWEnhqxCPXR7O35vaaHI9gmXKewsoo4v7t0N1WYMb0Rn0DjwdZIcdV296ebDKyPI9SvZCogXwIgyN9TrzOBn1nXsgg5YMz6ohT2UoKCMBjR40MqiOvjeiUnlqEkoNjP1DJeygpd0YsRetMaK9VaAm1yqgXC3hfVF59oICDdIbycRXRfYIMmyyvc3UVk6/B2NZM0jGQAtaR1tunyMrdxegjfe9YU/QZNBmeuqqoI0GapdNvlfVf155925vYHnYFYFnNk93NIsOfac6TpXl68HIvQf0rsM8Gqc7G77uiUE65tO0HweHjo4pJ+vLcFZZ7fnzw8pHp/HfbAPx3DTq4cN9LJQcCHvwNG8AeB5DOnTEhkFjeIEWu5thbqbTpv6CQxCExvjhhx+yjUoa8AalHDLyK8ONOjVW7OzBSScUneuWTk4V8e919RbeF08USqkY74AFT5CugVMCp6whvArcA3qTU2B8qxDaMTAYo3j1sD1huPo/orrEPF3IKoVQsxLslRfEagPysvFXKe4kFCp/ntBsQ9e6VuX+IzzPoOqrJGxWsTxvotXerXRM6IWCNUGztyo1pMui5UqFTvmTkOqyR/cHmd7mNDSojy4aM/xVgis7ymjwULolMBL0tcqlIng412KvXuI10/0XthOnekyddWU1T3c0Ci8mbHkJ9GDWvbto/Vx2Ae4ZeSz72ogsK+vsCDDnZegCY4zqNJ24F5rGtz2/uHONJUu0eEp0kD50xIZpT2PLRQxTbtNE1rG+lBNuUhcknC0IzRIYlSYvR+WTsNJQK0JW3OMZhNqDk4R+yqxcJ4zQ+NaH4/k5BhR5F6KrfxvyOEHkOzIoyZjxDFTbdq2Ec530GDU8tXqTJ6u2FwZuqjwzqbGHzPdWjYNKsqfuL+bxJYMSjQtncqewNn9dlYiRoI46aRzetSYiRKkWE/i/Y8Bp4+2t7wIvI+vK2MbPOdVHG/V+lMqEkjn9gSMBOuWADVhELTLYuE5/1guicUBjnO5dpxfxgquRnHRBEAKjUg84PVmYnCGVW8KKZlwKW3lw2FCh0Hd0R2ATqCT+SJiNlXzzYRFKOK/pgXnj6NSAcqHYLMPThFC9+ipPQh2PnM86HKhdGJ6HaWw0Xx55c3UIXHur6nnky8hVPdlT3mY/LMxhw9rRAws3JWDc6P4LDbWIp/ANYvJonbxoOiILNr//9MLPw29P7q9q1JB14+VXKSRZ6ScmH1zPK75sKXlQZeoIlYIcC1UWWyqMHymfc/PDCJKJIphFpJ2SIghCXTLC3/YqkUMwkTBWoyS7H79GxRIJTzcG5f2hDnY23KT5aSYPqznSUFFTXl6d55WlwOvCniia6HK9RXge7T7NMTzVhp3zF+EM/67wcrfS8qqjcwLnoTuqd4G8p8E1jGGd5gI2Vp5BheSw/+7q3a/1PPIZcoV1+j75vabsqQ07F+Ey/6oIdlTT5pBY+LuYJCyaETZtGmXEY/8lmwORlbtLOg+xziKH26Jop3weyiMXG0M8TvSil0P0ltecNks5uYSISalwNrKpFIfq1JZ1XjTGjLcUTtlQc4k2YEmetEOBvJ0L8IrKJ+8tbaQslSPKmA2f1obMVFeFeb02qi/8tAdEL34yIjKCIETJ2ahTpCA04Uadujs49QTYmpuHdkwJWPl4/iN1qhprOsSpd3/qe8bJ8agf7l5sCgoVqV2WXlvVnVTxenpXqnWtOgaPUuTmGmaHaSQn1gvRqfMKDM+nRzPQtme19a9gw7ln2mFaM3xK3hHeeZzeFx3hJrFc6DrPLnrXiNSvqfISdLpHG2UdYh755JE84WNNnN3KJFd4X2DL1RI2qx+mrCx7ZMychrZj8eu0h/Q6evd27u70TCgs2oeBI390NLT72yfSTnqXcN1cSbz/QB6qyAI/HzW2UDebn9izSt409QQB1lVd82QEfbaG5NPumy49MWGcY4sWhPZ3eKinabjtGTx+iseWiXaR0aa8sFSm8tTi369aP1fqG+0N7Q/SeSE6lq2xZQ61az6i+/22p2M86V+CcHJ478LHM7/yz4IgCILwZlAeVTKAa2zuFAThWJLjqRQEQRCEMbGuN4X5aRC9B2PyWAuCMHbEUykIgiC8NShMrtI8DLQptM5TAARhgvn2/n31/1+++EL9P6mIUSkIgiAIgvAWOSlGpYS/BUEQBEEQhJERo1IQBEEQBEEYGTEqBUEQBEEQhJERo1IQBEEQBEEYmWNrVNKbI+o/XFoQBEEQRsF7yHudF0yoh63XeUQSvbHKLVM9TP4NvYVKeNuMLnv1bShddvqg/1AW84galeGbEPA4acLMb+hx3lByEoi8McI5jGBYbyiyD6c9oueEClILr3/e8V8QxO87PcygKlO/6DnBmOHB6Z9XZ7ISXIzcR/VU5A0w0XP983KMgdzyqmH0bfbbWrz7qllmKKOjPg8yleciPZqU7dx7xnjgo+rba7LGs39vwXmx8ad0H731i97uo48+LIbn1jYajweFsufPATV1VWhTjDo/mDFR3PZJ2c69Z+gEPqraBaVkLzKfRtt9wmUv21M53IE1rtAn9MovoFeqiefw2EOvpEv6rQ/0Fr2BJZz+89/s7/SrH30hHcLOmvX3m6/Va8vCwbAHfXOOekXcm3u3c13oNWxJvdSr79y6mtfJaUrUzxkzqAiOaMxEBj09h8+cx6/EqzqBCgaeHC4dFr6W0BkHdDiv5iMDx7yqVH+vX9Hn67zy5RXChunlQ++1iw5Unn1frItrjC1H3vHQr6qtNynpSXQJ4MUef5IHv08/QL9a0b4ndfBrKI9e1niHpjcG6bhhv64H21y/otMqKxh/2ObdeThCebH/dvUm6lPrPewTTRnZI+OG20G3JdU/YtyUgF6NbPeJfp1mPXtCG4kX4RXOV4VgHRac180a6FWx7j2pY5PkudwrqgOKZC95HSkfKHv06lhX9v5z4mWvZPgbB/8GCd8MXBar8sRy7/YWGqEtmP0sR3L5veOtuaUcAdfvcYfWLFw5CQo4oFz9Vm+S8YmGyVKOAaDeKpK+61mogjYE1Yr+5jZ/Vhdt4NgLidVNX+c1WB5N2B1Qxs2Nx/xZhN6DRWjjZLWR3Bfr4tY8dEbUxaXGewwyzM7v4gR6Db58yZ/lYOrQL2MEIL3OPLTw/M1xvLtRLbqt10JGxt/K3QV1v2H5d+ApLjQqt9dxo5TsoawvYT/gAjg1btAQI6OrAeMmHFvloMXMItCi/BYUj8C0Dv1SRiKef3UGV59bFd87X5OI7E2f+/3Ey175nMr1AzjC/6Y+MpXSK3Zy77qu33D14bu+s12+6Tldf2Ubc/Xy34SuavYmmMNa1Sf3iqsBKqHdsc4TT6yiyENw7/EuKoQyAv4aDt7E4HxrFNVvHbZf4ERaxrg+OrC8ZkI5tCHoeAPGQKrzGixPeS2K3nm9DGenAIYvth3ZWPlsVuuuS/VCkT6VPYJkmDle3hzYUzT46SvY549ysc5/o+OhNQ3n1A/LcOV8i8unRUQ6P9C8tX+Imm/6XDqnddAIwd6g6E0yjwReZNIT7pwUmwPdebQL8zHnLukJ9jLqo4anuZTsnYMzWP7gmStjvUu6vs0YN9U9gsrbXvZtS73r2IZD2Nkc0/lNkej+afjdh6ealb3hIex7tlUstO/aaLgI5M9thof7hbYeUd6oXD4LqN8CBURGmV61kkuXw4KJe1w3zOKU5RZml6/jQqdB4rjZdSi2FqoBsVHsEOMGQIcHcRIC4hCLGxIrGmgnG+VRgD14WtQIvMAgAY+DCpQEfvD8hLZn+frde/ka/23BmWgIBkHZp1fU+cpbaB5nAVkmfNyeVsZbrTBsI+iJ3S6flH93ekt7XqbOFtchB+NBHItHUJF6isoa4spLWUYHZdGilJO0n4tz47ThriZf9esVmG3p8nsP0LA7onlEpxHZ/ZCEczlc6qQIBQY3hXoX4JU5B//Gj/SofrXD8mou5S9tKPx89TCZT1WKRl4kpC5qvreNPj2XLxz21X1l6/4yGLkYp0dQ6+jhk42SZeA9kZdyuAvbde+pquwp3W8ZsdO/gw9P/aNZ2aN76k7DFn+vU9xsYzBio3GZPi2020j36HN8Wy+lpFGJHUSevZgCIuMtqcg6HCh3Jis7Y/lvWBXFVdIGGYzti1wx7swKiicbFla8zzV7NYNl3nDy4wSDPdEqAV+ra1iT4jTX0pOV0wcTT4P1o4nBXEspvrWxe9vebfz8Kc5LzI1M8MJhrEZXAbyQ12jlv3C4NtJ7sW1Pgxrvtm5umsqenztwGRdYwycPa+kgP2eUJl3Sb9HIGLNyd0l5BBPPKC0klIGp76WZxR7p1WupcbP6UKXFJN4+453dLKF7Se9YhoMKI48jzYgXVBocCz934cxPlB5Syt8cJfWGkRd2D/pjnB9UCgMuTrbKzvtqMWHJQUVKy57tNfSN3t9+AKf+/a+GZY/2AqRypVNerLSDmI2WBdl6SZ9xClhix6VkG5WO1c2J4pGQB7lEbZQVzeetfHQaTwgtfx0+PQ1nVXvH3ez10Nfyw0VCNo6nNnMTThy37+2NLDmbVCaWUernhXlsLzquCo/Ic19j44VQF85LzMzpIgOOvPZjNrqK4IiAO6lbyrRGyoQz+a3twmyF8V6Nqp6iGoZAEau3lEc3M1+5R5t2aPLxHBrUrranzvPa+XNedbTzJfH2KQOupndWyUhOJKQug0OsMdImI0h7We02qtMGzmadTVCL9GJPcg3QcFvCfi1lpDON5/FmyZ5KPTDtsAa75z3d/+9/jln29uEVdqxJ6cmy0UqhZMTYcSnZRiWtiJLK+zthhRNJkRI2sAclLyyodquhspv4pPYMytZPDdrc3EtOfj+xm5qON2m+pIEMSp3PNti0vEtvBT0BtDv+pM4h21HhqFFr7nqOx7Ye1Q1EvUO8rpcylyRf0oJSrtgTbUcc9HhFlKHH49b6+dw0CsbINNR/BOvixmFjdb5DoVN7HGjHzcjwXNO+2vxiurKBaDzF48jjjclegrvpbvo3H+iPxyp7DfUfoe4tpHxOZQ1UPllkstSJ5u5E6yv3eg2olfBo+R5CkQekSt7T28tHezPk148fpVIqt9QdD8KYUQpxCLuP3UZXuUzUZZvj3wBUDKcT+Z4EE6prKg/X5BM2ht7s4qaM8OZLEwHzPPPaCA37YzTYePPHH4UgjUEZib4pLC+M3pxCUFiyiXvkiJrjdfI9PiUnf5ZjJxLSCHouDdqud7HZfqrhbc9Hh479/EbKW0/Sjrw8wJHzeKNkyF4Ur//GKXsxh5Bv+JZcqGQ5TMZqVMLqc+XNcRKJ2TWdrkhpqzzWy1otU+6FEgIb1dCWm58UA+/gTjFxfu+5Y3ju936Ih0NLTe2gPBGU2DRi+qYotFB608+EUlw/Clnqc/Jzhzh3r5TyERrBGBXeRgHKN9SyfRwMSo3OmZuHpUR/pXnjoSeGZE5PoqXCihz+jXpoyJOnrlXniRh6l3wS6uRDbb40ETDHmDOLr6KNG9XqpxcIfk4nXoP3B8QMSuUIoT0B69uwS48D65rNKWQgUxqYF87nealKRMbojsSLa+bJjrlPozuKMLpjHBte0rk0beuc8mhMqb4plxKkx1o83zbJ+62VEhR//qTa2GbSjmx9jPdNXspCD3nF+sVlz4dlkdvz8J//Ajj1mzHKXqg7dCriDCwY/UL1DOyqCHiea8elvHfh45lf+ecEZTjQbqCsVZxCCz7lWuaHxtNwkiFU2u45tHHh85fX4e/qWVqp8ULClj5qiHLcnsNlvAd6bpxzPb9hslakQQO6Sa2Tj+6joH2IqPDgILATymPnRNrS7Rcmq82PK6qus7Br158pU7/YOUqOnbERjgUiPE8oS7RvmETPBHLsyTkRHQ+GVC+UKq8UcVnQeHrIvzcnYd7COq9Ix2qy9V1az9g5Wq9EjZ6cca+uSU8KieoPCPvEJ7d+PG/ZNxVpp6jDglHj8PEVLINCvhXmARNKN9htEJOrWBs552n5POjgvdIzGbkOMdmrpzsqyJ5Xt8zykvMiYysmLzlykvRRYTt5ZI0LRF3TakuDLit7HCTk1s+6Z0PkXmL9Z8vxt3/9G1z4wwfwX3/8UzOy539HxNrIOY/a4iGcRfmYfZH2dWzcZOm7qFEpCIIgCO8e2uCiTVHlFwiCMDrf3v8rnLvwB/jf//7jRMveeMPfgiAIgjAx6LBv8Lra3ndj2iUvCIZD2P+/f0y87ImnUhAEQRBsgtBhiRCpIIzAt/fvq///8j//MdGyJ0alIAiCIAjCWyQxKr/4Qv0/qUj4WxAEQRAEQRgZMSoFQRAEQRCEkZHwtyAIgiAIgjAy4qkUBEEQBEEQRkaMSkEQBEEQBGFkxKgUBEEQBEEQRkaMSkEQBEEQBGFkxKgUBEEQBEEQRkaMSkEQBEEQBGFkxKgUBEEQBEEQRgTg/wHemdwELx9jgQAAAABJRU5ErkJggg==;fontSize=16;labelPosition=left;align=right;" vertex="1" parent="1">
          <mxGeometry x="590" y="640" width="661" height="50" as="geometry" />
        </mxCell>
        <mxCell id="9X9BCAbFEXp9GJGX4D_z-88" value="user.txt" style="shape=image;verticalLabelPosition=top;labelBackgroundColor=default;verticalAlign=bottom;aspect=fixed;imageAspect=0;image=data:image/png,iVBORw0KGgoAAAANSUhEUgAAAWUAAAAqCAYAAABr/Eq2AAAAAXNSR0IArs4c6QAAAARnQU1BAACxjwv8YQUAAAAJcEhZcwAADsMAAA7DAcdvqGQAAA6jSURBVHhe7Z1PbxS5EsDrvU8wERFib4wilPckQMshCtoDgTvKaBH3SS7s3uYjJPkIcwMuydwRKBF3yB5WoByCgEuE0OxtEQqa+Qa7VXa52//6b3omHaif1Ltkpsdu2+VyVblt/+d//1/6BwRBEIRW8F/+vyAIgtACRCkLgiC0iAuqlLfhxfExvDt+BU82+CNBEIQ2s/EYXqPeerHDf2dQoJRJ+T0DncYGPHl1DK+f2lrQKEf/EmU5azafvsJ6Nm1TD52G13avHsMmf6/R7R7c93ybvyfSe1yBi8lMy1AdJSKvJTvQbLjA9YnsPLfkxFyBXAlZ5CvljSuwwP8EuAqXOwCTv/f475Tp0RB+vnXLuu7Bb+FtDbINv84lnx+A6VsYWm23P1mFQUxJjfeTe34evoVptxcqh+kUFm7Yylo4Exe5Ph25GsJbILk6mxHxo1Acvpiewl/8T+H7Z+sBdqBpB1b7OZbN3u9wOAboXLvt3jM5gZOFNfGSmuK7qc89+G2EAzkswU3RyoXElTK7bu8Gq9Dp0AhHLkgPuvhVd53+XWXE0yEOcsMct8Z2ZzJdRQ6PJK6yHy6JP4fKh35jysFXkP7OMystvHwXS31Pebj52haiySspG+Vr0vXT856nen6pWztYQbcFhbxn3eeGFOqyB28+TVHjLsPtImUw+QK7/E/NF/wtwPIveT9My2Auuz5VSAXrZceEVqiOknrz27ucPDSG3354xUIJvvvuy50p42aOXGnK1GeYnyMHRqYSWbfly/eI/LZpMAy59wUm+L+Fn+wE/faL6YBI+WLtnJQvvZK0VLtllUU/g52vn1/QLkk/9eor6H/e96RP+Zs84koZLaG76HYMj7BzGjfk4DN+8Rn2lTvyELb0naUhZb52ymEOcn9R2fdNYffewAlm1b3jK6nrOBBM4e2BKawJW/Cz5YHu9bvBMpwM0/u762ljqo6xfgne8vfZLhYpvjX4aqXTWem7DYx5qbJRHaFl8/rOKQy5jOsmMWpI63noUqECXzHn5ocWx73087Q9+HrQhFIG2P37G/63A5dpFI6BZenhd+MPYX67jw5hsnI/7DTMzvM+wMh6ZqyzzsrA7YxYb73FQ5aTZej3F+Hw1j6MsW7WjMyojtYDOEjTGh5dwrqLdNhGwM6LnQq8UN3dR3b8THfCHrihngWU/UDZKGPHen5VD55cIUX1SXJ88wOnwfmFoSWUKZJJVYeXYO0VyRd7ROtp33pxPIDlT1b5Dr7B6qAhxcyh0DT8SXV1Hd6bvPDSfdTNj8rX63py7usfkoX1JRhbskDXr85NGfKsnmsKX9HzS9pvwQq9YH0CymeocKmfWvXF9Z62s67P1YkX9uNv8ygOXwTWUAh1qmQ0UFfYMSjunAgwK+HO4lX9NymbP1ChedbZzo0l/OEJvKkVN6aGTGPOWtFcgisq/W1YR0tzejSyYtJZLhYOCkMrnT9P8BO/gT/DoSlbpwOTP3736gwb+86Slx/A1oFWOq5FWia/c4AGOdO+2AGoPV2hN2zD+3G2m7r1wJsH2PqIisK3oOyBGG2LTy8DI2BnHa2O8b7zDKTASHHPxEUOlEqEnfuw2kG5swdHDvV0g9gwtbOlOManGe2cX5+7j+657RD0Lc04kckOdCaHbhsgm0/XoIsG2MgeZLZeKsVdZKkXowe0DqZ/kDwrGRiuco3J+tVFbP+iEGp3EX9lFGsEttINyhI2Slb99ht8oWKr9sN2GVn9F9tvRAZQ93qg02gQSHWa6wmo+iQdVMNQylXKqkKYzZ8uZVZOONFX3ZLWndMWgG24iY2TClNF/GfdeojPxQqBR8eTPz3JZIF2FUQJnLxiwqEnSYPBS7kzLVC4Ubxy2BN9aHFNqCyBla/Z+vA59HoMQQhAh8VcuJMwoSLcgCukIe2BwkqrcvuVwShXFb6Lhy1UH1EWlP1MaHmph7ri1YdbRuOdxga63Pokhefkh9ZZ4CO7bTk9DXux6utJqNJNy1fwpXDS6sEC6Yh7Xl/2Qw4R914bLiatDC+IB4/VgU4n8Eqwd35N+rXWK46S5f6rdVxoBOrBwhh0Br+fay/eKGlVn+OP1fUgElXKJqaihIkFX8UwuXJiAnl2tuGAXHUzeaRCF5/hfZ1StZRw8NJX3OI8P7Ry8ZSGAwoghWqy4s7USSDyHSlk6niegg/GsLI46aSXG1Jojq0HOn0dUuIBNnBrfVebL18hVSGrPpVCxoHIf9MBFVAtnHSsq05YzEsraBNSyOxxJfnE3HserLScmAHPD6mkYb396MC5B1/QjFWDCxlkKDf77H1oWW8XUaWshU83ronTUGFNJ5iV0KsRiTs6hS6mR6Hb2gjK1Yi4ZRu3YRnHnlwXtRZ6pK5lccwdHdopN8pnKW6aLKQJKq+87GamoYm66E4WWp91iXgr6lnjRgGFDKgfqLi+ZXG5IbImyahPDqnU9iYt/jpVAoo+3XzQytAK+xVi5pNIOWeHVMzASfrKfjtIlQ/Z/GUZJh+2tfdxY1tbtByiVe0XMTToN0mIowq+fCqZKiYnfKFdbo12F2NuT6Oo8AFV+GN0MSLhhcagOB3WvzOxsgFP+n7cqyk4Zh5MwNRHK4Cm46dseRXGwvA+tHLyFLeaoLp2HS7z34ogbmryq07i1gaWakVMWMIJDxSXjwjinYkb3fxkY7Q+gzcaaKIqFr4oxsTjexkhqaYJBjDjRfGfmZSJ7ZvwljUfpvJbWIP+yjc90FK4tLsGa7Ze4xCq8zooPldfzT9VMxBJ6VNkwZnoJ5kqQcFEX07w3CKc6Ks7Y6uVV2dlFbrjcDLCjkf6r4RVVXY0og6PIIlDqfgZzZSexc3Mg2La/KZBWk941e0EmJ6erbbSqqOgYrG/2JyAE7/l+woU9/vJEnTtXsaTJukz09sHNd1tcmt5xjt9LrqqK0SSBb1oJn2uoHx+/BMvNUvvyAu50VSeMK4cxjmrEqlP/IzCSKlM6bcBlFdbGbJE0Qp15IGuht6+8EH53R+ncWD9ZpIfytJvQ6TPQvetwgS9dzvkp96ksu8xfdluPzIIOh3oJAMtGWb4N9ZnquCpDrD91FtYbn6VowN+/0zefilGtu4UBEFoEQWWsiAIgjBPRCkLgiC0CFHKgiAILUKUsiAIQosQpSwIgtAiRCkLgiC0CFHKgiAILUKUsiBcFNQCljMs5jALYOa0au8i4u+lfPZFP9XJXDxCD6c2JLKhTUbsFUzRpZG0IUu4IoxW3ehVeBpnK0+IL7elfTfslTvqmWivWm8lmfo8WF3lp2ltiVm05JH2+Mhdrfbj4Lebj2nH+H2uLETv8WUqa6mwtAnLLe0B7m1/WhYj90GdCwGs2/zVg/Mg31J2dnoyyw/9Zax6X9jkHrXE1L2HlObg2kmaFm8c7S+Ndjapxntoc/BaS4eVRWCWDJs0RwB9fi61jaf5XC99dPIWhZxgNt9Rl9rFy25vf/mpvUMay4JvlTkyZZY3R6w/ewc4Xk49m90JfyCM3ItCbjUVwhd7Jc7Z4o137I1GUEH2uuHG0XczTlpI4Htoz4VqLoTZTGbfUxi0L0GNfZ6FmrAsZG3vyZzpTEBB+A6pFlOOnrOVT+bpIbwjU+4G73wqRXhqQw7BEVLC+VK05eFZzgScNxQSs2OOoUdIn7sWvfmNe2+wiU40zuvl54XcVH7oSZp8lVepvET8t52e+cxcMe9T3UPP6OY5W+/Er8/QYzJltDcjoysw1PwyBh49491Xu3ze8zQZp6+mlAu3zcNKVjEro4TDLfR88hW83oe4yr65xRu0C/OBZaHEvsx6G8ecARo7UtaZgHNDdcL8MwHVbnNk0Vse4M5z3grVnmfB8vRhlIZnzO5strLk/JwQHHmOPuhJFp4PmYTryCvhz6JQ6LHgPMqmiJTP7NoYKFzaCTDnvE2V1o2PSTpZoTM1EKJM2qHKEdyvXj5S7KXO26xHBaWMnYwm9ab+fsPW9numkkvFrFjhCt8R9paVqIwoflw3Pm9vyYkdiSYUz/OElrJnAjrhGDWYUAzeC5uhknRDa3p/b9v4UPlh/Tln5kUpOh+yCvSs8zkfMla+3UcjNWiEnjENatZz+XsxU6jTkTPjfVmb9qPi1vsiu3K0++hhxUnTKudt1iNfKcf22g0Urpn40aNwJ+fkXRd7E/0Czt1tFcphT/TlTOJFqX8m4OypciYgzV2w5asGE7fzasJ9gt03nfhQiU9viuW+8HzINpJVPlamvmecd94mk4Rw+Are8uFTb85+cMbsz9vMV8reTLk7uvukE4HJMfD4WeaxPaVOENAVUOXEk2AUFc6NrQf0ZkvxachnPhNwXjgDRU6/YNkmwiPAzCt/3gB2IZRpOyGFrD2StD7VUV0zxDlb0Lqa8OaqxZSLMLPklrWsj0XJOvcq/2BUfUy3N7oFCt4bdc2RLuvnGH8UHPIH3ibOBJw1Vc4E5DAfKXB+lc+NkbKhUeJ4IV+ht/GQz3rwQabB2zQbcPsaVk4lz5i9mNhJRTbBUWR1mf15m80qZUQpYdtaNueWRc69Gh9kv6JmFhrY7p85ly2ZwEA2n/bR6rAVtz4Vm1xNd2aVLJSMGVlhJphJruyBl2bfeSIsN/ZcftJwVpQ9EzCZ2KPyoJGij7+yQzhhp9aWHv+hYDe+u5b8Lr445+JizrDrW33U9OVqb06FA2a0rthgdNuC7n1WcaKPX/UM9EtzNK6UtRK2R0GKsQ2j5175pr593txg5Zty7xzXkAL6ZlGJc58bX1ILHvA+WqBi7nt33AcYyXvKs8We6ONVlv7qztg8RSNnAs4Ylr3sMwF1nFi9JWIZG3ryiibDjTLgMJ+VDq1S9d1tkmH7DLvB4iEv3qlO+vodr5RM8i4b758BFBf2+misL5dBhcksuVIL1SJvqoTnch5DH15a+VmxfhUjtnSSPZ9Bz47pN3bepoec0ScIgtAimreUBUEQhNqIUhYEQWgRopQFQRBahChlQRCEFiFKWRAEoUWIUhYEQWgNAP8CxCAzWIaRq5kAAAAASUVORK5CYII=;fontSize=16;labelPosition=left;align=right;" vertex="1" parent="1">
          <mxGeometry x="590" y="740" width="357" height="42" as="geometry" />
        </mxCell>
        <mxCell id="9X9BCAbFEXp9GJGX4D_z-98" value="" style="shape=singleArrow;direction=west;whiteSpace=wrap;html=1;rounded=1;labelBackgroundColor=none;strokeColor=#d79b00;fontSize=20;fillColor=#ffe6cc;" vertex="1" parent="1">
          <mxGeometry x="470" y="180" width="120" height="60" as="geometry" />
        </mxCell>
        <mxCell id="9X9BCAbFEXp9GJGX4D_z-103" value="" style="group" vertex="1" connectable="0" parent="1">
          <mxGeometry x="850" y="260" width="260" height="100" as="geometry" />
        </mxCell>
        <mxCell id="9X9BCAbFEXp9GJGX4D_z-99" value="" style="shape=singleArrow;direction=west;whiteSpace=wrap;html=1;rounded=1;labelBackgroundColor=none;strokeColor=#d79b00;fontSize=20;fillColor=#ffe6cc;" vertex="1" parent="9X9BCAbFEXp9GJGX4D_z-103">
          <mxGeometry width="260" height="100" as="geometry" />
        </mxCell>
        <mxCell id="9X9BCAbFEXp9GJGX4D_z-101" value="1" style="text;strokeColor=#d79b00;fillColor=#ffe6cc;html=1;fontSize=20;fontStyle=0;verticalAlign=middle;align=center;labelBackgroundColor=none;rounded=1;arcSize=20;absoluteArcSize=1;" vertex="1" parent="9X9BCAbFEXp9GJGX4D_z-103">
          <mxGeometry x="30" y="39" width="20" height="20" as="geometry" />
        </mxCell>
        <mxCell id="9X9BCAbFEXp9GJGX4D_z-102" value="&lt;font style=&quot;font-size: 15px;&quot;&gt;uapp控制台发布应用是生成&lt;/font&gt;" style="text;html=1;strokeColor=none;fillColor=none;align=center;verticalAlign=middle;whiteSpace=wrap;rounded=0;labelBackgroundColor=none;fontSize=24;fontColor=none;" vertex="1" parent="9X9BCAbFEXp9GJGX4D_z-103">
          <mxGeometry x="50" y="30" width="190" height="30" as="geometry" />
        </mxCell>
        <mxCell id="9X9BCAbFEXp9GJGX4D_z-105" value="JDBC" style="rounded=1;whiteSpace=wrap;html=1;labelBackgroundColor=none;strokeColor=#6c8ebf;fontSize=20;fillColor=#dae8fc;" vertex="1" parent="1">
          <mxGeometry x="2.5" y="506" width="190" height="40" as="geometry" />
        </mxCell>
        <mxCell id="9X9BCAbFEXp9GJGX4D_z-106" value="2" style="text;strokeColor=#d79b00;fillColor=#ffe6cc;html=1;fontSize=20;fontStyle=0;verticalAlign=middle;align=center;labelBackgroundColor=none;rounded=1;arcSize=20;absoluteArcSize=1;" vertex="1" parent="1">
          <mxGeometry x="530" y="170" width="20" height="20" as="geometry" />
        </mxCell>
        <mxCell id="9X9BCAbFEXp9GJGX4D_z-107" value="bns.cfg" style="shape=image;verticalLabelPosition=top;labelBackgroundColor=default;verticalAlign=bottom;aspect=fixed;imageAspect=0;image=data:image/png,iVBORw0KGgoAAAANSUhEUgAAAbwAAAEECAYAAABTKYHHAAAAAXNSR0IArs4c6QAAAARnQU1BAACxjwv8YQUAAAAJcEhZcwAADsMAAA7DAcdvqGQAAFOASURBVHhe7b1/bF1Jlt93+EiK+q3HlkYjLexYjKJw2ispajsy5Y7d7I6dP7KeJS2lM0lm41AK4O7OXwyCRf5Y26G4GSeBsQhAGAimBcMijQCGk4nafKtgDa8X3ZRhrWRtZhqS7A0jK+yNMRBHQw2ffovir9Q5VXVvVd373rv3vcef7/tp3Bbf4+Wte+vWrW+dU+fWaXv33Z7VVdKsthX4f+on9a/a2mhRvgcAAAC2OqxsFVgx/wIAAABbHyV4StjazCY/s70HsQMAALC9aHv33T+xKl5MxapxZa6Q/qI9cnYCosv0xU8Gqcd8IirT7bGP6NNx8xEAAMCmxgietuhWqUP93xW8EdXJn6S7731MI3SRPv9ymHofjNGHn+Tp5UOh0JTv5D3O2jB67Sc06Jxc+nnpa++bn6QzFy6b7wAAAGwlClbsLPEnZe1dPELd5hPRMTpcJJp/VJ9IsZCcee89vZUeUvHsMH0xan65IbAQK7Hrvk1j9rzUNkFDyfO6eI56i8qiK0HsAABgqxIFrbA7c8W4Np2vlVLN0Tfmx6Yxcp1ul4l6Tm2cgIxeY6vzIU1+9BldNd8xVz/5iM6PmA+WnkOktB4AAMAWptDW1k4rq21UKBRoaXGFVlZW6bu/Oki3bt+hr4f7qFjso2FlCX1t3JI9A/zzj6gZxll5LpZSdi1+fU0J4OiP1PG5DN6+pM8vmh0itGUW76M2/rtcXKbT6mLKd65TqG31wS7P4JzMtrFWLAAAAEvh2bNn1NHRQe3tndTWVqDVlXb67d/+P+lc35+jsTvKDCsbl1/podpdWUTi+uM5vfq5dGWI+oplmr4ZuEd7BunrD+aMi3FMWYFF6hv6IV0yv9bCooR3ZjJyQcqWd17NuGqru2cdYR04rj6rcxl2xCwSWTO/R45rVOqKaKb0XtJaBAAAsCEUDn/rCL1585Zev16gvXv30+LyChUPHKSnT1/oPeZnPZdfvfCcnRWL4bNFJQYpEY4srpGLcZxuPVCCWzxEx+Qzo+cRXctw7bhM5z0B46hM85m3SGTNOT24FdfTyH2aUf90H02YpwAAADaIwosXr2jPnn30dmmVVpYLtLxE9PzZazp65I/TsUPxzNWlowdZaeqez/OCVsZuUze7RutwRZaU1RmJZ+6/Xwu+ocesyyfOxZbo6EnqUQKZsGABAABsGIW2tjZ6qURv/74ivXm9SO90H6axv/1D+sf/ZEqH67Ob0VhlZObzvrrSoOUy/hlNsLu052TuuUAOKomsLnNuX3/puj0zMD5L8+qf5lhg4zTLB4vmOtU2cDzdggUAALBhFBYW3tKuXXvErckBLOXyc/r1X/9vaXDgvERS8jwUC8wk++jM3FnT3p9rJAJ05ONY+Iq9dC6Xdl2mu+p6ime/23jwzcUfUn9P4O5UG+buAABgc1H49re/TQsLi/T27RLt2LGTVpaJnj19QS9evJS5Kc1FOtLN+tSkuTMlEkPKYvTmvepEXK30hGZzavBI6TaV6TgNBtbhpStf1hFZWaTD4Zv1AAAANhWFX/ziF9TV1Ul7d+1UVt4LOlDcTbt2tpH6SlGmx2zZNQE3aIVfd5hXlmNuS1EJ5Vf2GGYbPvuEJuuJGh3/jD7kSFByXJFqG6KJfNaZcc/q1zWCbVPMMTYCL0PgLkxgf+YXNu1Lm3Yfdz/7+3jj5et4kQPZou/V/1d5azMbf+MeBwAAmkfbd949zl2O6oQYXlbMvnReoHZaMD+DivB7gwMHk+tqyvc8l7d13Zurhbf8PyVEnCqKYTEq0OqqjIZUs1lW25L6vf5efidbu/xsv2exW1H7UZtpTyt7zN4LVOCGt7JLvqbCa7UfC6L+Gy4XAACahelReMzNurdMhbZFs0HssqBdqkn0982zkDeCFTG/YotLxEmhhUg3HW2VMbyf3dcKlW1eev9VdQAWMkG+038jghqJW1weAAA0E2PhaaLOyBB3ZqAa4QLUGn5Jv7EX9DeaZWXhFSIxYitPiZH8zBYcoy08V+h4AXJr4RXEwuPhVIc61hKttr+SRta2bC281yKibcri4+Outr/U+5lFzNH+AADNBIIHKmJdmlp8rABxI+HvWMxEreRnaTssWpI1XwuiK3irShhXCtprUGCB43+V4Mm/SgAZ/v2qETz+Sy4FbRAA0Cy4TwEgldjNyKLFTu9O9QNbXzzTK8uN619yM3L2ZVio9D78l3Y/hvfTIql/VpvjNtVHZfUMRl8AANAgfi8FQIAVvRVeZ1XclR2q0bDZxa5MDX9iy05bd20icFrk4o3lkt2j6U1uRQeriMbZffSxAACgWaT1PgAIsdhpUVtRFp6en2MBWzaipsVuuU19o7Y4xZT+C73xzwyLmG1y+m8FE+0JAABrCQQPVERbZCxoSp5Y1JTgseiJWCmB4jk63kfsOdlH78sCZ75V+5lNvmax5B0csZOfeR8legysOgDAGlHg1EArK6rjKhQkTdDTp09p79699L3vfW8TvkQd5sJrTl6+xtDnVHN9US/Pn9rWsz7DsjOuPbqyxPkRiX7rt36L7t77F3Tr1m36w395hz7//HPqVNq1smRESslbW0G1o9VVervMr7TE83bLy8u0uLhIq+p3i4tKMju75POOLk5HpfMwingWVujVK5OhAwAA1gBZPJoF7+3bt7Rjxw46eJBTAz2l3/md3zHrQnJeOrP3hhOn7JFcfVsJu/bnetcnr05jXoC363yeCbK8V6Krq4tWl1fpN/76X6eTp/8d6v/wV2nuCVHxwD56rcTp7cIb2rdnL714+ZLeKjFj1yb/zcrKkho8KRtPtStuXzt3d1HXzl3U2bWHXjx/Q++88w49efJzGWAtLCwoUXwrAnpg/17atXMn8eo//LcAANBMxGfFHQ+PwLnz4Q6Kefz4sfwLtjaX3u+lYvk2lep4IfDNizfy74tXL5Vo7VE2Wye1qxbz4sUL2rd3J/3St4/Q3NycajPtdPDwt1VrKtDbpUXatWsXvX79WgncDloWy25Rb2+VxbjaRo+fzNEv/dIv6UFWewd17SjQ0vIbev78ubTBQ93v0O6uneL8BACAZlGwIrdTjay5U5KOqrOTisU4Fx7Yurg5DfPSrdoAtwUeDD178VxZaXtoYZGIlwxrp1X6+dzPaN/uvVQ8eIhmvvn/6NUb3ZbYNblnz25pS1Ropx1du+gXT5+JaP6xP/YnpJ39/Oc/k4XKdynr7+3igliL7xT300slestLb9XvVEFRsAsAADROwY6+29vbpXPjf3ne5c0bPbqvTTiv9iV9njqdFeyXNo8UzjU1MEfHWQ/cY4VzbLw6isyjeWWmnXt4fT9JzaYw/2hcH9PulzdHX8RF+vxL5zgV67NZhOXFdfX6pWoDSpQ6dnQqy22Fdu8tKuuNPQIFevniKXUoMeM28+L5KyV679B/9mu/Rnfv3aNbN/8Z/cE/v0XTD/4VjU9M0JISyH3799PqShvN/L9/RL/7u79LDx48oPv379PU1BT9zb85SnuVxbigBPJgdzd1de6gpSVEbQIAmkvBihy7l1j4OIiAP2eaQ5HsBYPU7WQzH7tD1DcciILZr8fk05NtgmjAFSHe59T9+Pcy15VM35MFFp7hE9M0Fh1rkubPDicDSziB7AdzZj8ur0h9Q255LAYn6W50HD132DOQFCHOltA/Z+thkmaKfTRUK5AlAYvrMPU+cLLDl56o+swpeo6Iy5JnbnJatbn3ZvTaENFEfH2cX5AzW/A+bP2zdcdtoWvXTnpafknPX+jv9+3bI1k2Xr16RYWOdmpT4vfX/sZ/JwL24Ycf0pkzZ+jdd79D/9H3/mNxcy4pY62jayf9ky+/ovbODjp16pRsv3l5lAZ/9S/Rr/83/7VEdq6ofdmCXF3GHB4AoLkUOFCFRY+tOh5Vc+fGord7926zS2VGB/pkfmjCSfNz9ZMJCcroOWWjEJVoDOn9xi44kYnjn9F5Nz0Qp+txf0/jdOuBOlDxEB0z32RCCackZJ1wAzMuU0kJVfHEOV88+ZyiAI608sbp04/89TCv3pwmdaRE/ruyEv043VGF8mpw6Uo/9QT1SSPXRYh73zeKJ4OHWLz8zVjEUYCMSdzL12kFTW1u9oaRC0GWh5H7xH/C2eB3du2W+bjVtjZ6y54A1UaKB4j27NlFb169UKK0LILIrxr8yq/8irgwn718KYLI7YjfMGDXOLcnbmf/yfe+T4cOfot+4zd+Q9oa/+3v/d7v0ddf/5j+/AfvS5t7qf6ef9epRBEAAJpJwQodi96ePXtkDoY7rtouTZMUNpHE1QhH9xHT2R+TRLJZkr16LkG1DZ+tY/6p55CSI2WpKSszcay84smEbtZhJd7mV9W4+ojDGfOVJ/NtgTX2tbL4+uTUzZEkj18sXv5Wx2LVCQFVlrj51aJqC0+ePqPCyjLt2dFBe3a309PnJMmC2zt5wecOai/w6wVEpcl/SH/08F/Rf/Dhv0/3/nCa/u7f+1+1dbj0lgqqfS29fE0nT/5J2tW1g/7+1b9H/8+/uE/31DZ185/SaWXpHTzQTbv37aXde/eIOLKYYh1NAEAzkdcS7GibVlbFlbSjo5PfrDK7rA8644CyzMbiDrz+Vw/848RbTkFgsRs4LtZbdIwxzpRem0ppg2oSWGPR5lm/TYLFjgXcdTWzO9b8+hmt0q4DB2in+rnw+hl1Feapq3NVDY66lOh10NIyv4ReoE7VVNoXF+i/+it/hc6deY++uP6P6NSfeZ9+/OP/i/7xb5foAO+z8Iba21TbUn8ydP4CnX33JP2pP/vv0nt/9s/Qnz59hvrf//P05Nlzeq3a4duFRVVOl5wDAAA0CwlaYeuOBY+tOp6/s68pVGecZueV5ZFw212kcyeUSTI/ayy6b+ixeAqr2TraWqSZKd+9Vg8zc6kux3rQovWQpvJmZleItVaeU1efnW/mQpdqCllcmlkRa1gNDkrpYrpj7156/voV7Sh00A5l5a0uvaC2wltaVk2jrbCTFlUb6dy5ixaV2HUqMetUg6XOtnb6W//zGJ149136/d//fXpn/z7q/Td7qFtZb3/4L+/Ts/mnNPgf/iVqXyGZ/1taWZH2xi7Q10oUJf1r5w6ZT2ZXKQAANIsCW3fc4dj376Tjef1a3Eq1GLn3UFxwbnDGpStD1Fd0O9Fx+vSG2q9n0A8aUR33F9FnLZ6xG1RHWdbl0hz/jKaUiZIWWJIXcUvSQTpij2MtIvOxIsoy5GCRmRvZXvC2XP1kSllXNQJ1munSTAwOOGgmdmnKHB3PxSlh43k4FqgdOzrkJXMOPGlrL9DzFy/kd/xaC7vHedGCx7OPqEu1nwP798txWDSflOfp//jf/ndaUIOqwQvnqfeXf1naXIf6Ww5m4dcXrGud294rfqUBAACaSNu7f/LfWuUITaa7u5tmZ2fp0KFD9IMf/ID+4l/4C/K9D7sLnUCHhAhUSHwa7ucFjDB+Zyu/v3GIhgcoPl4VwfGDRqyL1HwwuPvI77v9c9Ai+8Q7f/84fO1TdHh4kKhkgz84klPPs8UEdaSoLODhvkE9CMnjZSXtOl3C85opjdHjD3SkaN9f/RG9c2An/Z2//bfozJk/RW9WlcWnBO7b7xTo9fOnVGjbTf/Fpb9Kd+79mL7/a/8p/eCv/Q3Votro+dtF1i96Nf+Y/sv//Pv0s5/+TImlsv72Hxbx/N1rf5++dbSbXiqx69zZTm/LP6Xr16/T//J3/wH939N/RO/s66Y9u3fTqzcv1RlhIg8A0Bza/vi/cWT18OHD4s7kFTR4aTF2J1n3JmhdlmgvvX31jHbvYIuui14vdtG+A3upo+0ZvVAW246OfTT//BXtO3hAlhor7t5DC6/e0Kqy0haWFqiLeMmwdlpRFuHyaqc6hhbWTnpF1LFCCyu89uZr2r+rINZe+cUKtRd2KquvUyzF/aosCB4AoFkU9u3bJ+/gsTuJLTx2Wz169EjWRAQtztIiFQ8coF279oibu2tnB83OPlJW3ita5TXGOttp156dtPBWu8Dn5+fFvcnBT8W9+3QEpxK89q6dVOx+h5beLtCbVy9ppbODXrxZUIKp2tgS0TMlki8XFqm9rYM6OzrEPcpeBgAAaCYFtuK4M2OhY6uO37s6cuSI7rhAS8P2PYtUef4p7du3Xw2K3tA7B/fTm8W3tFOJ4LMXz2SnQqGNdu/eJULVuaODJ//oqRK/paUVWaFlidrop49n1f95PnCZdu7ZK4Epb1Sb27NzD+058A517tor7s4Xz57TL5T1yAEsAADQTNr+7d6eVRY9tugkak5Zenbx3yyBK2D7srN9N5XLZfrWtw7S4yePac/+A7Ss/ltZWabFpQVpJ7weJgc6rXDASVu7BLrs33eAXr56IUuQvVaCqVSQujp20NKLRXnP7vGLeSWYO2jn0iq1ta3Ss9U3kktvf8duZTTuoAUWyuUl6lDfcaZ0AABoBsqQK8jImq07/plFjqPtIHZgWVlyu3Z1UfnZC9qzd78St7fquzdiyZESN1KW3ctXz2kX57ZbXaEFtf++A1rsuA3x1s6vuLS1KRFbFgFcWHhNnbt3RpnRue3x/GCH2nh/u0oLPAwAgGaDXgVUZGV1SVbf4SwH/LI5ZzFQ/5NFnru6dtLiwlvav2c3rSihKyhRYyFk0WP4Z50B3TaxFSWSnDBWr5HJOdH1d/yZf9b78Xqaeh/+Haw7AEDzgOCBiiwuL9Lrt6+p/PQ5PX/5gjrbV2n/3l3KylumlaVVWlp4Q53Kanv7+g0VlDZxVgXOnffqzRtaYnFcDZpX25IRPYOInfyg9kVEMABgbYHggYrs3LlDXi7f312k9k5O/rpKq4tvlOAtUWehnfbt3UsLb15LNCcvRcfJXnm/HTs7qaPLuMRXWcy4mam/VQK3okSPDTfe2H7jrbCi/lrto72c2rIrqN/AwAMANJOtJXiykHP2FVT4pWteciuRFqgVCBe95tx/OSl0FuhnP/8ZvzlAnNW8bWWZCkqF9u7aK68Q8CsGi0rwjhz+NnV1tstrCTw/t2NnF714+VK0zmXFKB1bg7yJhac2Fjteakzvw5+t5QcAAM1j3QSPV/RoJKHrxmESpNYhGBtKlCKI8/yZ73Ly/OUz+vbRo/Q//E//I929f4/++e3fpz/4gz+gr3/8E/pn//Qm/eA3f5MOHTxIj/71v1YCWKADyhLk1wl4GTGOwrTEuscpg5SgqZ94Y1njjRthQaxAFkAWRYgeAKD5bC0LLycjF/Qak+6SYyA7bKFxxGTXzt3005/+lL7//e/Tnz51mk7/8kn64N/7c/Tfj/4mzf1slt7p7pbVeXh1lM4dO+hb3/oWraxqfyQLm1h0cjwtcQUlZtrCM/uwxslPGvM1AAA0lW0teKAxJCHr61f0+vUC7TvQTc+fPSVePJqX/lpSAsfLgck83sKCLEO3V/0sixi8eW2yHYSkWG2ibmEzZCsQFh4AoLm0fefd44nxtCwofGI6fcFhyRHnLOicstjxTNWFlR04D1uQ5y25WLOzaHJU9n067ZQZl6fxj5H8PSP7kCr/3knJeadxyquRGSE8ZrgIc7iYdXzu1+mIWydRHZi6mq9UJ/6i3OE1ptWlpvJxs1K1PQAAwBahsoVXIS+b5IiL8rxxZ3qS7jopajhpa5yaZ5w+/Sj+XmdSiPf1O2A9V6Y7drvPBNFAmCrnOA3+pJ8emwSvfnka68qsmay1Z5C+/mDOJFzlua4i9Q2Z8qI0PGYOzEuSmhRYEYTo95M0f3Y4JViGz11nIojOT53DFzKxaTLF9/QHQTmX6bQStvKd65HYsQCdvhefiz3OmgbnBJnY9TkDAMDWIVXwdB44C1twcQcniU2j5K4saH4qoKs3p5XI5E/AGuXRG3OPp45/IbQqfKuv3vIEL0WREZxaCVhDlCXYz5naJ9zzvEwlJcTJ5LjaMowsv/FZkjSAR7VQ6Xx4Rep93xGu0ZPKki3T9M3YWrz6yUe+xTp+i6bl1HOdubY6HRHzNicnH5cXiStvpYdqkNGi0a8AgC1LuoUniUFN4lPpcJXhcSq2xspzTh7vsNPMkiA1BZ0hfJpuOV7ALYFkDVeW4bBTB2oT92ZCPMv0eMb8KFym80pAYtfnZbqrfu8K5eip4+p+hJng9SAkLq+K27gaUSRnylbNfan+bjI4TwAA2OykC55YHtpqYhfmTGmSZnpO0ihdpCPdZh9G5qWOy3xV1FHWciNuS9jqdMQi2nzrNwsjJVV/xV46J8aTdmfO3HNdv2bOlK3TqJz6Xz1oiLzWMAAAbCAV5vC+ocfSgV6kcyee0N0RtjyO0+nRY3SYPZqPtLkh83n0kKaaEPb/zVwd7sTNgFjDdbpU0xD3pHFrsnWthK3kqubFI8RjjpkbTQggyejSTGIGPjP3cws6AABsFBUEb5xm54m6PxiivnndqY3ce0g9H/SrzjZ2y+m5PuP6ZKpENup9WTT15xA9f3WcBr2O9iJ9fq1ax7se6LogsXBTGP+MplR9hIEz9aPnEtld+PkpZT0/uOULWzDvJ3VULRK2GnW6NEevcXnKqi3VF/UJAAAbQQXB0xZXsViM3Wkj92lGfS7SE5q1Bp3M5TjzV8O9ND02qYQrBbWvjqh0rAhv9RKezxqj2+RGAw4RlfJaMjraU5+PFt+ozKpWS2VGLrDLkCMszXHU5kYpclSoVw9mqzeoQ8S/2Ed9PWnWs6qn0kMqnh025eioT55Tc+FITvt7EUOOSJXP+YWZo1DtNfEmr3O857wuAgAAW4DU9/AAAACA7UZFCw8AAADYTkDwAAAAtAQQPAAAAC0BBA8AAEBLAMEDAADQEkDwAAAAtAQQPAAAAC1BDcELFyn+kb/aiCxN1awVRjLCq7m451Tny+QAAABai0wWHqe00UtO5V8MuelEeepsjj0AAACgNnBpAgAAaAkgeAAAAFqCJggeLybtz/X5iybHGdO9RYjT5t5S0tW4izQDAAAA9dIEweMsAv302CZAlZX8hxKBLJyxoH/OJIrlJLHFPhpyhZGDUQaOO/OFejuPhGsAAACaQBMEj7N9O6liRq7TbZvA1IGzon9oU91IklPO9+qke+05REUn1x4AAADQTNZgDk8nTPXELAtGKG1OObgyAQAANJM1ELyLdKTb/JiLcfr0I+3G5GSmNmlrvUlUAQAAAJc1ELxjdLhIVJ77xnzOD2cQt8JXPHEOL5YDAABomKYL3ui1QeqhhzRl5+vqxliK87N0VX8BAAAA1E1jgjczR2WK5914G+y+TWN1rMhy6cqX0TH0Nkx985N05sJlswcAAABQP23feff4qvk5BX6HbpCotDlfD2CRHD4xTWMffQYrEAAAQFXWYA4PAAAA2HxkEjwbMZnIlrARONkShs8WzZcAAABAdWq4NAEAAIDtAVyaAAAAWgIIHgAAgJYAggcAAKAlgOABAABoCSoKnuSuS8tZt5FIvrwvE6mHAAAAgFrAwqvJRfr8SyX+15q04otNcpsymPAS5IabV76fcLehQYDzmofeqr96Eq2I09BgyNSpOk61rBhRWZXqPnHuddRD4hjuZo8Xn2/ahgXOAdgaQPDWDSNSp+bodtl8FWAXzfa3SeIUgfFi3Nz5DlL3HZNMV22TM7y8Wz3vSKpzGu6j+Sjp7pg6t+M0WFHMLtNAg+8+ahEbInrw0HyTghGhIZqWa0+F9/HO/T0au0OqHnKK3vhn9KH5e3cbu8M3ibP5y05RJg9v40TG6rfzjxpdNxYAsB5A8NYFLVK8RNuZC7fMd9m4dKU/WIxbd75RMl3FSIk73uN0OrfiXabzquOOl41Tx76hhKjYS+dSREMWBi/fpkkRgzpQ1q0sBffeR/TpI/NdAhbhXpoe42ucNd8lufR+LxXVuZScJe+u3pyWtV0P95gv6kYLe/nO9aprwo4O9CXOAQCweakueJypwLrgZAtGz/I7tix8F1uaiyfprqt31RYedfvlpbnFwvJS3U7etektOlbk6hqmPjZqegbT98uEFqn865Fm63gt3UfzmDbVSBENVR/96ruZG59R3YmfRj6mMzXXPWURdjLoV6N4iLw0w03Kmp8cZKTg1AfWcQVga1Bd8LiT/2BOjci1C0dcZ0Ohu+s4Df6knx6rETnvw66g4tkhTxjZjTXY85AmzXH0lj+jgiZZXs+AK8R6vkVnbTBljd0mOjvszwWxoA0cpxnHJcZbJEqRq4vdfOrzzGT6fmuI7njLNH2zRu8vHX1zXGuXjh5U/w9FQ9XpkLJmVB1slkXEr34yRTPSFsy9N/eTZqayiWVFjNt25n5t606J4t1NUh8AgNpUF7yyEg1nRC6us4S7q0y3x+IReZpb6dgh1YGU5+q3DDxqlDf6XWWRqX0mnJG3Eq8JdsP1nIytyiZZA7ElmLY1svboRTp3gjveWh24sna5o2+Ga01dy5B09kGZtk5LmylVk3bH6vlLVdd2Pq/RdFKjJ2WQUf1aL9Np1d6yWt4AgM1Bvjm88VmaD8QsC1oo+2i4YRGojVgo5Wm6FYiEFsaDdMSK9ch1ZbnFufzyuSgdKgQ96K1eK1aRSWT03KB00K7A14UOYGGrZdITDS2o5TsTDVpOzUa7tSNLvvRQL3LeaPToB7WtxEwuTwDApiOf4F08QpyEPDeRKHDEIbuhWGRyRtM1nTjyblJZeTYjxOYIMc/S8bLY6fnFmVLGOa+KsHgY4RzzRXqzdu42gCbyQPD8IEdNqoHVUL33MNMgI9+8KgBg85BP8Bp2A2o3lBa+IvW+33xxufroSWqUoUT1RWHmPvZ1ABa+4olz+SyEtXBpSserhOxe5Y539JoVu0bnEx0r0XEVa4xbNRqk6E3SMlmLfUMWJ7hIR3jkxUFV+guNeCDqxQwyUrwDLpnnVQEAm44cgmfmihoOClAYSzEtyKLhF5tH7ouYesE1Zm6q+qi8QieqLMFZ7kXd+T+Xprs0bcdbeU5OBwFlE7ta9amFM03smPT3z+QdNbau+HMYdRlFvq6l63qcbj3gOdlBzxVdWYy0+5PPq6Lr2g4yqkZd2oCWJjwDAIB1p6LgfTOnOpRo3o0387Jz7qAAtiDsMcxmAgzSOmsJcGkItiLH6DY5527Kc99di4Qg2lTHPz+Zen0jF8wL2c7+eef84vLMaw5O3XrHqtXx2sASRZyY125Jkalan0qcWDjVyURzmdFW54BDR3lWIhaer3nwpIiuwSkvfqWELU9F9EpI7Aa/+slHJkLX7suWJ6ULd01XfO1BBmMFdXMF7wAAsoIEsAAAAFqCfHN4AAAAwBYFggcAAKAlgOABAABoCSB4AAAAWgIIHgAAgJYAggcAAKAlgOABAABoCSoKnrz8uyHLRgEAAADNBxZeTcxKMW4uvXoJEs6mL1QdrkyTvkRXuFJM5SWzTJkYvAAAWhwI3johAjVAcRJck5TWFz0WO7PEmdlvcoaXNPNFj481fPZJfCyTGscXPbOM16k5ncAWAABaHAjeuqAXHZ4pOYtJm6S0xbPfjcTs0pUh6iv6+ehGLuiUSv1WGM1amt6xRj7WKY4+sFYcC+cgkSREvSXfAABAq1Nd8DhzgOeGC3LYye/Y+nAWBVZbmqsuXhDYbnWspt9AeYl9omMFLkTruozS/pjFnqMFjPWWa/HoCosXSyojJymtLPQ8c9/PsCAZuJ20RZKi6SHd9XbSGbjjtEg6y0FjaYMAAGB7UV3wuJP/YE6ngRH3WpB2R2CXWz89HtP78Ar2xbNDnjCyC26wR1ku1gUnW73ZwLk8Y73wcUoPVXnDjgBpAYsyYfNm3IfJeTg+1jD1PhiL9ivblDNR2h/OlKA+z8RuRt6aIiYzcxR7G3V6ovLcN+azcYOq+p/kdDzFQ3SMv5OM7nMU7SXCrOqfs8orKcybjR4AAFqF6oLnZpRWjHCnmkiu6udSu3pzOtHxiuXidtIN4uWBG7kugtRzyoiZzVo94aTXMe7DtJx2fKwobZBJINp9NLAGqxFZgmmbsWLHb9E0Fx+5HBklzEN9qqYsx+iwk8mHLdThQ1OSb86tNy/dD1upw4do6j1V/3Un5QUAgNYg3xyeCEJ+K0ILpc3/Vocr0yPMuG4StHYfETHRFlAya7UW4th9qAmPpTOyu3nzapIpASy7GIMcfT8ZIrrBVpnlG3osH46Jhdo/F+QeNAMGyVOoOGasvzHPUm4kGz0AAGxv8glezUSaFYhEQQdg6ESqwXxgoyQylW82wuzhyiojno97QrOir1q4i2cH6fANX3Rdq07m/dTgYdBYf9E1y9weAACASuQTPOlUG7EitAWlha9Ive83Q/H8uS8tCKHbVVl+7/c64tJEsrg0U7koWbbLd65HFpq23tIDUsoPbmlxM/N+M/f8+cjRU5yxO2nZAgAA0OQQvMv0xYDqVGemovm6ujGW4vyj5IGiF6ozvig9eo2jKB/SlLWIRu6LmHrBNSaU3xWX7BiXacr8n5DJpRnCUabqvOk2TTiW3NVPprQF7ATXjF4bpB4lgtH1qfKm1ICjZ8AR09Ef0aASxZkbjsUHAADAo+077x5fNT976JebfSdZ+c6YP7/FQRMDB72gFbF4hvtoPgos4ahJE9rv4AWeOHCwBnfeYcCMIOUp0XVJ2y+lzER5aedekQzHq0FYn5X/nsWQRc6Qen1OPQl+4BCTdv8sec8dAAC2AxUFb1OSS6QAAACAmHxzeAAAAMAWBYIHAACgJdhaLk0AAACgTmDhAQAAaAkgeAAAAFoCCB4AAICWAIIHAACgJagRtBK8BE2c4qfetD61CV+WTrzoDgAAANRJJsHj3HNVV0Vx4bxx7ir/CdHUVBczvbIJ56mD4AEAAGgGjbs0vcSoY3S7mzODJxdNZoGL9kskbQUAAADWlibP4XEKHJMCKJFd3CFM2goAAACsMWsQtHKZ7nL6oErZBRxsSh8AAABgrVmTKE2d1y3MLh5z6coQ9RXLNH0T83MAAADWh3V7LYHn7GxiVI7EnCkh4wEAAID1Yw0Fz88u7gWtjN2m7gElftXm+QAAAIAmsiaCd+xQkSfoqOIM3fhnNHGHo1Zqz/MBAAAAzaD5gnfxh9Tfo/Tuwa1Elu4E1UQRAAAAaCLNFTwldl8N91GxfJsmqr0wrvYbOlvMJooAAABAE2hc8Hr4RXMdjPK1Erv50nt05qPPEkLmBq3Y/bCKCgAAgPWioaXF1g4sLQYAAKC5rGGUJgAAALB5yCR4PfwKgbgjk2tkNhPOlqDLGaa+OGkCAACACvzDL67JBmpTw6UJAABgM2PF7i+fvyD/gsrApQkAAKAlgOABAABoCSB4AAAAWgIIHgAAgJZgiwkevxdoI0bXPmq0qYz+yDlvtWHh7CbC723qeq2dRV+3oa+u2NxV5m9b/n5sxmcrvFc1sM/Ylz+kS+YrAFy2nOCdNxkXxnjx6a3EyMcmW8SYZHtfF3ipN9UB1BKB0WvoJMBGPFsYbID1BS5NsA0Yp08/0p31+q4IBDYVdlCZsrQhAAwEDwAAQEtQ/cVz9okPHDcfFOXbNOaNnuK1NktHv5RM5pqHNPnex+QOttltNthjPjAzk3TmQtKV4e9Xpttj6ZnReVWW4bNPEuVY9O/j5Vo4AW3udTnl+g/652AyQvDi19aakHMmdT2lIzpbhP6aZlLXINXrhPbNp1y/lEfqmu7TaVWvthrSzr1afYbX7mPvjb537iFcEmWGbSG8f1IvvTSt6mp2wDk3t81E+0wQDTmr6VRoC1UJz0dIby+JulLE1xev2zpBQ1XbMBPWbdV7XKzVfp17VE99Gjbts2XvUeq1xc9JSFyncf9y95Rz7uHxarVNJsezxdi6Sr+/mwu8eJ6dihYeN2rd2WtXkcw9UR8Np0xm89JjwyemaczuVz5Og45fno91+p49jtrGblO5ZzCYjNb+/MEe7mjsvqpjHMg/t8SNNT4f3iZp/uxw9snveuCsEdJB6TJ5HqRnoJ6Jf1V35iGXcy89lEwT7jxcrfq8+slH8ffqMz+00b5RJxbP2UzOqI/ckUb7+JksdFvgzsL+Xt3jbnW9ibmXIvUNq3vI4i/7TdJMsY+GvHrnfYbp8A1zLHV9XHe1g00CojlR5zgJTJvqdq9NnZP5rQvX8fChKbNPsg0z0q7OkvNMcEec/x7r47CgOOfE7Scxj1q7PrfkszX+GX0of2vms1mgouMlBYb7l/65Mf37tOvLPD/Oz1Y/PXae0eLZIfo8x6mDrU0FwbtMA2oEV74z4YwAx+nTCe5Aj9Pp8AnnBhuNOsdpdl79030kepi4A/Ya8fgtmlYNs3jomPmCH9whMyJ2R5WqzAs5/fFq9Njfo44z4VuiJW7cJ86tYWAGdybxiPnqoyfq/wfpSB0PkzeqHLkuD3HPqbjzzVKfzUO3hZlScF9usFAlM9bziDkeXX9Dj1POy7+++yJA3UdtRYXRgu72Zb7OafS7uk15baECnlWQcn3KQtAjft8qGrmQZgXZOcUUC0raJx/H/Ts1+GDBLvbSueD6atXnpn62rBCF1lZOPCusobbOdeA8ozen1TdFOmzNPYeRC1oUvboFW550wbt4hLpVU5i+GTytprHFnZOmPOfnLZfGknB9uh1XcnHoY4fUF+VpuhV2EHnpOaSasB4Zu52luGCKh2gtJEEIs7fLw57uMqpOmR57JkhyAJGlPpuGtAU9ynbrU7uQkoI+/8i9YNPx5+rwYsszueWrz0tHD9bfpmbm1J2Ir0+OpQY1dxvtAKV9phxHhD/Z+dauzxZ4tgBoEusQtKL98D2ey6yW66FReCRny3K3tNH4FmF+1gwgNqI+tVWWrM96BH2LIJ37ZgfPFgB5SBe88VmaV4977/vB8P3iOepVvYA/6qyBsRBmblR3n3wzJ36KxkeJMjJPd1NsTS7SEVWBkRWdsT6bhrSFpFW/doQWi7vldGkyYZsy9VcLbdE9oVnT1BtxUXtI+0yZFhg9ST3qN751XwM8WwDkouIc3l314PkTuhfp86E+KqrRZCnPUC7RYdoINvPRcPWTKZrhSWVv4l7tey3nxPr4ZzSlzr1nIFvnKAEZ3JmmvXgdPuA1osvWgtFrXFcPaSqaw8hWn4LZ153/S0N3iMn5I42ZowkCZ9aO5rk09RzNceq3AQ5Z75/ab0jmsK/HVovMpbI7zw9SGb2WFrSig0RSBdpMC/gBTUrkJZpxKp/FvMmfLYmM5Ger4ovlxl2fMhe80XBwDp97tTZfte+wcJurOViz7aXGqjK2PrfSClObjIouTZ6HG7tDjr9ePUgcSh+ERNdGT8hzh2mPwyHgEhnowR3dmIkEtWUOEZWc8qLGY+YN+CE2n92Gwuc+OZOca0hrTDK/UQn1gE9ItKU5xvAhmqoQ5VeL6OGwcywclSefwwfBP28dYZgMcKhdn4za10S12eOlPSwc+BDWl1tX/HsddRr/XrbNvkIGRwO6dSX3L3T52U7XqSPz2okfrq7nzyZn4jbH2+l7eV15accZpG4vOCUrm/vZysLIBb4ffp3mHVhlf7aaS9W+w5LJNX6MDmc4lPY6gEZAAtjNhLwrFLz3B7IRvWeFuSTQWuA9vOysQ9AKAM2GXUCupao+f8AuwfsQOwBARSB4YAsyTp9OzFF/5AYz7vYG3/cCAGxv4NIEAIAtDFya2YGFBwAAoCWA4AEAAGgJ4NIEAADQEsDCAwAA0BJsMcELl51qgRUHzAvBda9yYldnqLYaxFYmemEaq09seRpt6wDUYMsJnl12ilf+AADYlUYg+LUxS3ht9hWCwJoBl+Z2x+Yky70k3BYhSiaKFVYAANWB4AEAAGgJqkdpyvqEnOjTwHm3EoldB4lK71Hp6Jdm0VmGs3/7I25efZwzRkd4GaZj/P38DMUu7MYZPvuk4tqJ+vfxiqxe1uRcsBvEXYHeP6eoHO967N8E5x/WZ0o9JcvT2CzhUj80qf4b1PXE5d47qY/r3p+wrLT65jmT4V6aHpsgGnLKrHBvamPys5lPievLUp6cd8p6ovK3fUT2PprP8W0J2yaj65IXVP7w0Xed+ki2q7C9hHUgvz8xTfrU43Lj7O22rEmaPjEo18ZtboKGUtqHosb9yVpe2E4i8t5DOR9ei/Q+nXbuYfjc2PZ3pnTEq38viz0TXl+V+1Oprdv2xAtrx+dg/iZlZZ2KfUfYVgIS5w62LRUtPH7gdMdjU7PY1daTcwW8ir48nHY/Xv3c8ZPzsU7fs8dRm1nB319hnRsyN1juJO2+6mkfyB9swQ0/Ph/eJmn+7HAdK7rzA6c7zOjcS0+obzhehd1mEuAV2u1k+6UrQ+ohDjpVfuhO3Y+PY+vJCybR5cnDbPfjujK/jVBl9c+pcyo9JOrup68+mKMx3q/YRwP25lhXZiI7QAivfD9Mh2+Y8viYzrVkhq/PDH7suY/dOUiDifZSozyT+btvwO/MLr3fq7510yRZVyav3q+/qoRkE5DO3O6vjj8U17u0Fxk8mXPijBjqnBKBPqp+hyXjQlyun+aHyxqUa+M2UTwxREOHpsw19kdtRj9b8fnIPepW5YVzS1XLM9nP1fd6Ptt9btSWR+wiOGuBcw9NJoZEW+C6kYGL3k9n0ojrIVvfkbGtZ6JG3xG1FfMs8GAg2g9i10pUELzLNKBGpeU7E84omNcv5AaZkrySG1A0ejPpVrqPRJ0Fi4LXqExOsOKhOCVlLBKuxaPKvBCOCmugOt7+HnWcCffvTE63E+f8DqwGl670SzbpCdcyNHnR3OS4Or2O6YxU+ZxLbaYUWCj80Hmd0DjdeiCVECXmlPK446rZWTkdf7FI8w0mg/VGuCI4bo61bIwOqBG0agfufbZ52ML2Ur08fa/8HGkX6dwJNT6vd3Foti4cS9NLiCrthc/JbXc67U4yR6BvsY7cU/uESWFVWVG+SHXK06XwXupnyy9PtfMbLIphXrgM5dVEi0Ec2exvoZj594bbujqtRD5FPq+4ffvJcbP1Hdnbem2a1neAbU+64Ekm5TJN33R7bIURqrAzjLJxGzhnlh8kwaM590FLujEkt1R5mm4FReZG8k8l83WJWyln1mc5Jx5lO8ex5+6KNRPl9WLXSdDxW9iSSJyTg5SXpVMvz1Fc4zmzZK8JOiu7jPyd6+M8b+xhyiueNnFrJJSSaV91aAnxyMj8rNfx8QAlCnKR9vKQ7oaVbizN3Nm9vbLijOkRJkt5IreguP+akFE9ger4jSWYtvntNGxLycGr4LU/hXgTrPswW9+Rua1noGl9B9j2rEPQivbDs6UUuxhrudkahUd7/oOtN3cEmBHvvJ0tMTJ1kjiGHYRCzy/457XtXq0IXEV2yz13qqxhyaxtLAtxZ26zDo0tqWRdBV6BzUIwYABgq5IueOOzNK9Gt67bTpCRtmr/j3I8lWZEO1PD7ea5mRphZk7JXR0j8xSynxO7jayoT9KMsgqHgvlJsYBmpmp3aKFYZsqYvNFUsAQaQNx34uLT7sxa7adupL2kuOlHTyrrdA2sZ3m2Yktn7cnn0vTR7Tb04FQlT9/RpLbetL4DbHsqzuHdVQ968eyQkyJfPThDfWqk7cxRZCHxgPMDmHRp2vkeP4hD7XstCByohbUOBrKl95cJdn74U1YiST+nJNEcgswb6vkff7I/KQhcbujSlE7eDTwJI902mMglm/Li7khJB80MN+ulXnEpKiG6wh1lisuxWRhXmx98cpm+4HrPMkDJjZlPTgsGqRM9h5Yi2kIel6bP6DV+Tp354kxk6zuytfVv6LFomZWyRvsO8xwm5kpBq1DRpcnzcGN3yJkLUw2NI6oSocW1iAXAHoejHpORdbyKio3msmUOEZWc8iQSUP9OiwVHlenPbgQmn7tE4gXzeGlRmuL/rwifk7bY/Hm8WEx1hF8wST/ysQliiUfQIxf840gUKQdGuKi/0xFvphyOvuTyza/zEAm5nS+N5teyDQSSGCu1EhyUY6JvdTl2c4UkD1oYes7yqwjXk65o7iBNGRKK7tRtPiHRgjA5E7clnnvkUPj6Ih1rYyN7E/N49Q4WwnZT97H8Z2aw2w/2yUqmviNTWzfBLlGb0tG9dfUdhmiuPdoPS5m1EsiWAAAwFlbK+48AbCPWIWgFAAAA2HggeAAAAFoCuDQBAAC0BLDwAAAAtAQQPAAAAC0BBA8AAEBLAMEDAADQEmwxwQsXoa73peYthHnZvu6XY+0L2jVWi1kTpGznRfdGr2VbwKuFqPtRz4vhYX2a5yF/2isAWpMtJ3jnzZJI227hZbBtkCXYNmKAAQCoClya2x1J3aIGCbmXhAMAgO0FBA8AAEBLUP3Fc1lfz1nBnNPfJBK7DhKV3qPSUXf1fz9TM6PzwZkPDOdOS1mc19+P88elr+2nsw08SZRjCbMRlO+M5c/LJoQrtPvnFJXjXY/9m+D8w/pMqadkeRqbiVrqhybVf4O6nrjceyf1cd37E5aVVt88pzbcS9NjE0RDTpkV7k1tTO5D80nj1EGm8vT18wLjEzRUtU3p4/U5KWXc+rbHmaTpE4NSFreB6JjhNWapr6qkXXtM3P5yXF+t+nSev7unnOcm8ZwCAJiKFp6sti+LydpUInY18mSgCK94Lqv/2/14NXJnUp6PdfqePY7azKr6/mQ7dwT80PKDb/dVHeNA/rkQyWAQnQ9vkzR/driOyX3uUHTnFJ176Qn1DceBA3ble85GYIMxonRBrthx53zqfnwcW0/eXI8uT1aWt/txXZnfRqiy+ufUOXG2he5++opXmuf93HQr1pUp5ZjvUuEV8vUq9LI/H9O5lsxIQIrJMmDPPcwGIQTlmbYQlsfZNYYPTZlj8Sr6fpuSuhoimrBlqU1nyPDbZ/HsoJTF96h4YoiG+Jhyjf3RPdRtnZx2p+qsezBnYEk8vyyr+bPoRMdLJsH1ry/5zGSvT/38SXuQ/XRWDj8fIwCAqSB4l2lAjTy9lDc2VUda3i0eDUcjymTuNxYFL++WyUEW57lyRcId5aoyL+QcqaqOop8zi0tuOovJQXbiXC7xvHSlX5K6Trid1ch11Tn5CS75+nQ6INXZqvKHVN3NlByxYzh9jmcxjNOtB1IJUeJKKY9H+jUtCydHWbFI8w0mR7XWoyB56Nz8hdkYHdD5zry6qoBXXpDdPMKzsHSONT9hqBKYwIqRHGt0kI64p67OKcrfqIyp6VJYt7qtz5SCdneDRTHOmyaBKBIZnNzqipL0ri+lvBz16Xsv6mvrALQC6YInWcrLNH0zeNiMUIWdYZgRmfNh+UESbLm4nUTSZSd56crTdKv2810dyZqczIUnrqOcWZHlnBK58PS5u2LNRHm22MWmOjNP4A1hpxm7szRS3sz9wK2VQnmO4hpfg6zcuTGZsR/cqkt4JWN1HdnSxTJz6tN3FxvmZ51zekKzYfsyGfkTuenkWLF4Spu2llaw1ecqD5DM67a8xupTEsIiAzgACdYhaEXPM7ClFLt4arnZGoUtRb9T0ls4R5IB77ydLWGFHaPDVr9SOm89N+mfF16t0FRPwpsOix0PGNhajO5JBZdfFrzjRFtgpa8lMlBrDpeOHjQ/AQBc0gVvfJbm1ePnuu2Ei+eoVz2V849y9AJmBD1Tw+0mo/xmjEplpFykw5WiB3KQ/Zx4/tGKetociskWPjNVuwMNxbKJHeFaE1q92TpeUzeeJVYb7RFw3JX1Im096bUIabpLM0DXlW+B1leftm5cLwAAgKk4h8dzJsWzQ86qDqpTH9LzCrk6mUSHoqPUQpfm1U+mdGCCF8Sh9r2WM2jFzgkNuCtSVCZyi6W8KJx+Tkmi+UeZN7xM55WlwUEJcSBGcl7TWiguMgflBp4kojo3lqjTTwRzmPnIIBAkvL40orpLzK1VJzEYqbuuzJyXd7+S5HFp6nPrpXNZddDM+5bvXDceiPrrk+uBozVrDTABaEUqujT5AR+7Q85cmIkezB3uHAuAPQ5HPUokmwdHuY2ZSFBb5hBRySlPItf07/TDr8TIfHZH2XzuOmLPHie5j6W6O43PSVts/jxeLKYsAnwuXoDPyMcmiCVeRmvkgn8ciSINXXDq79jNGc0ncfSlRCjmJxJyO1/aM2g+ZxsIJDGWWAV04E5c5xKBGEaYmsGPO1+mXy3J7zq8+smEnjM1x5Eoy7SI1gzYSNvEPF6uKM2YsC54i9ueGfxE90Ntw300X/KFM1N9KhvuMWtr9GypzURWp80hA9DqIAEsAACAlmAdglYAAACAjQeCBwAAoCWA4AEAANjW7NmzVzYIHgAAgG0LCx2zsrIMwQMAALD9sFbd27cL8rlQaIfgAQAA2H68fPlCtuXlZfMN5vAAAABsc16/fiX/bjHBCxehTqYq2naYl+1zp+ux8AokXFc1VotZE6Rs50X3Rq8FZECn2ar3pfn4Gat3gQIANhcrKyvmpy0oeDbnGBZeBgAAkAUWPbby4NLc7thEsMiADTJhB5XrmCkCgHUCggcAAGDbw1Ze9bU0wxXoOf1NIrHrIFHpPSoddVdzf0iTQe45nQ/OfGC8jM8x/n6cPy59pKlXj+eFh9Nz3IWry/tZofMQZnfwzykqx7se+zfB+SdW9E/WU7I8jc0SLvVDk+q/QV1PXO69k/q47v0Jy0qrb55TG+6l6bEJoiGnzAr3pjYm96H5pHHqIFN55vp5oXLnHOS6u4P2J8fr89Inpd3nsO15GdcVcg95Me+PZmnAOf9620zV8ux9CZ4l+zfevonrS38ewrYu2DqV8ogmS0SD0h64zd2n03Kd7vHCe5fWNuPn/e4p5xoT/QIAm5OKFh4/RHbldZ0GxWYySAaK8Crz0mHY/XgVe2fSnI91+p49jtp41feewSB7gZ5sH+zhB83uqzrGgfzBFtx5xOfD2yTNnx2uI28ZP+A6u0N07qUn1DccT+jblfZ59XsbjBGlvHE7J+68Tt2Pj2PryQsm0eVJZ2/3S8sAoMrqn1PnxNkWuvvpK86qwPu5qYWsK7Nmsl1ekX+YDt8w5fExnWvJDF+f6gy7lUhE5x5mgxCC8kxbyB/IoupKiQG55anNFyjTptTwINpHldftZLGIkEwWujOX/STDh5seKwsZyuP7wvWiyotyJipRSogdX98Q0YQ9jtp09gT/+ZO2LgM/u1/a/VbtLMq8cZD6v+ynx2O8nzregH1Os8+P8/Mu7Y/3N+3Oz/8IwOakguBdpoEw5Q2N06cT3Pkep9NhZ8GjyWiEl8z9xqLgjqhp/BZNq2fKTXAZi4Q7qlRlXsg5clQdbz9nFpfcdBaT8+zEuVzieelKvyR1nXA70ZHr0lG4yXF1KhfuCFRnpMrn3GYzpWAkPv4ZfehZTSbnmZPTTcrjkXVN6+ohTdlzKhZpvsHcZ15HO3Jf0hHVSogaMjqgcyV6dVUBrzybv/BUrWsOMImFqyYjHv2ualNBfVYsj9uec15BImEWljg62N+igVTW8kwaKC2oStiU5cXWpPeMsAAFVpPkS1SCdcTeGmnrXJ/pXg6XOD9ekYrzGRIRV8GzfFOeZQA2K+mCJ51JmaZvBk+FadxhZ1ie83MrS7JM72Fly8XtJJIuO52leZpuNfAgCpIhPM4jZjdx+eTMqC7n5OSwc889fMBHLhiLjV1QagDgd16asNMM3VBS3sz9mp2Xn826TI9ZoTYUnSuv/OBWXcIrCVPDTO+1iBL96rpMs951hnAnZ57ZxBWXKM/PNi4DFGXB2PuYJQFsnvLifHc6U37aQEG8LO6xXBc1I239Id2t3WC8NhI+rwC0CusQtMJipx/q2MVYy83WKHq0HnZMZyrM91XFO29nS1hhx+iw1a+UzlvP0fjnhVcrNNWT8FbGipC2lkwS1MT7Z66L3NnWbM4pa3lOQt2UgZidl2NrODpGqosYAJCVdMGTzNS+2064eI56Vd9U1Y0UYlxPsUslHRnl57TAUglcUY2Q/Zx47saKus5s7s9pmM5tJoMrKRRLGcVvDUKrV1s8tTB1Mz9btwCxtcSCoOdST0ZzXFcfPVH/d1yADZDFpZmnvNFr7ClgcTSegUCotcfjNpVqjtDC8pyBFwDAo+Ic3t0Z1YF5k/aqUx/S8zS1H0IHEU/Vj0duUBaHpEvz6idTNMPuIC+IQ+17LWfQSuTqyrZSROQ2SlmJJP2ckkTzjzJveJnOS8DDsBMYkZzXtCN4F5mjUWIZBZ4kojo3lqjTT1hRZj6ypz+q87TrSyOqu5I9ZrKutHVsPlRBi4Tj7jXzrWGgRz1kcWlmLi8KUmGPg5kbD4K4EoOttLYg861+4EkyShYAYKno0uQHfOwOOXNhJnowtysoFgB7HI565CAPH44SU6NdiQS1ZQ4RlZzyJBJQ/053pvF8idtZ8Lnr+RF7nOQ+luruND4nbbH583ixmHJnzOfiBfiMfGyCWOLovJEL/nEkijR0UZlgBjsv9XUUWZefeP7HDC5Uhxqeez4cF1wK8ZyUub5DU8kIUzP4ia6P95MIQz/AJ6wrjghMuH9ZAMzv7ZZ4bYHF5CNjQQX75o8KzULt8uS+sHC587xqkDZh3LKRtfjJhH8cfrUgrE9un/xddG85+pLbvvl1HjI+WwA0g46ODvPT+lL9PTwAAACgyezatUv+ff36tfy7XqxD0AoAAIBWpqtrp2xR5nHOTSfb+koQBA8AAMCaYAVucfGtfF5YeCP/Wnbt2r2uogeXJgAAgKbCLku24DgBayXY4uO5PBbBpaUl8+3aAgsPAABAU2BrjYVsYWGhqtgxbPVxyp729o51C2KB4AEAAGgKnJGAxSuLm5L35Q0WHgAAgC0HW3ds2a2XgOUFggcAAKBh9Lxd24a9Y5eFLSZ44SLUja+gsekxLwTX/aK0fUG7xmoxmx1Z5WVLXoNus3h5G2x32KrjQJXNat0xW07wsubsAmDrs8XFcpsMtkA+7EvlmxG4NLc7NhHsmmUHACDEeGJOzdHaZkUBm4nl5WX5d2Vl877pBsEDADQRnTlEMsdfuGW+A61Ae3u7/MtzeBy8shmp/uJ5uEI7p7/xLAW9Ojs37tJRd3V8Tnvi555LrHjPWdJTMnv7+3H+uCBzuEGvxs8LD6fnuAtX6/eyNOcizO7gn1NUjnc99m+C80+seJ+sp2R5GpslXOqHJtV/g7qeuNx7J/Vx3fsTlpVW3zw/ONxL02MTRENOmRXuTTWkHnhBbDlUX5TSKM5uHreVZHJcfc28qHh0jxJ1pajQ/uJmFdRnrusL6z3l3sjx4mtLv39hG9Yk2l+1+5N27RFxm9LlpJyD/P1Bfz/VYqJ2IqQ9W9Xben7M8Si8b2C7Yl8mX1lZzrxOJu/P837237WkooWnV3Xnh8amQbGZDJKBIrz6vXR2dr8gvxcf6/Q9exy1mRXe/bkJfjjsA2z3VR3VQH7/Pz/g8fnwNknzzkr02eEOVXfE0bmXnlDfcJxxgLME6Dxsg86K+CbljdtZcGd56n58HFtP3vyGLk+yUtj9EivkK1RZnEFAEoJ299NXnFWB93NTC1lXppRjvkuFMxwM0+Ebpjw+pnMtueAMByIw+lg684OfnSHMlq/ROdxsnsVk20vJACDBPMaSMPuM3TlIg4n2meX6TL1zx2yOdea9+3TaTYPEIqLEbt4pb3KGMwq412faMGdtiI6TzHahr4+cdq7uUfdgnHYpunf6b1ksbZlnnMwSIyVuG8fpdHCvRk8pUQtzL6prdsvUmS3cuqrd1gHIwtu3CxK8wkuKsQDq6M1C9C9/zz/bZcfsPvxvZ2dn9N1aRHtWELzLNBCmvLF5u1IeMBmdRiO4ZD4zFgVvVD9+i6ZVJ+wmDI1Fwh2tqjIv5BwZqo6wnzOLS246y2UqcfqVE+dyieelK/2S1HXCHZmbnGduclydGkf1KQOqA1HlD6m6mykFI+Pxz+hDz6owOeScnGdSHlsNNa2rhzRlz6lYpPkayXVrEVthCsmxVkmYauGLvM4naOvqG3rsCK90+lbsJUlwmR6LMqS1vSSjA8rSUu3ObVc2f2HYPmtd3+g1thJVvQfW4/noPigh+4BFxC9P0hhF16cY/a5uw17bC9HXp3PhWVQ7v8FCHCevzYR5jno+cAZN0v7Vqd4L25BvCYZimamtyyCDo6PTthaImAY14ZfIV1djpyGLFoufXjNT/8vwzy72844dXfLvWogdky54pgOavhn0OOYBCzvD8lyUclOQZJkJ15P7cLhuE41O3jlNt6p0cpmQDOHJXHjidsyZUV3OKZELT597mN175IKx2NjlFXSMFrY8E+fkIOXN3E+4yBK4SU4jodgMPKFZ7/5pkdN1pQdC+ueLdO4EV2IvnYuakvnbSm3Pw+TmY6vFqc+vjXszn1jbbPTV6l1boEkRMYmSTVuQDO+12rBcHw+O3PNWm7ga82ZnN0Lp1OOl93vTkzR7bUYRJGbO1NZ50Gatv8SWdO2C1oTdkvzyOS8bZj8z7OZk+Hv7s/1dmiuTrTy29rKs2pKVdQhaYbFTHRHPv0QPRy03W6OwpeE+jHar46H0ztvZElaY7hQFx7q16PkW/7xa5dUKOyCSLN5SN6qu6DZN3iFtPcggpQ7Ys+DeE7PVN1e7vrDVmTz3OubLTNZzbYXpgcRMDovfupGFzG0dgNrwsmEsfGz16X/j9TV5fo+FL/6d/pc3/p7doha2CtnV2QzSBU9Gf77bTrh4jnpVz+Q9JLUwI9paD6F0hjktsFRm5pTcFelwEDRQD9nPiedurKjrbN1DwfyktiKCeZU0QrGsVww2Bf7c3NVHT+RfGj1J3Q9u0cjNaaIT52hULCPXAgnvX5htPek2r58sx9KWas+ppIV3Wp2n5+EI24tp/xGBZdU4jruen081kEhYd2kYS9p6BzK1dbg0QQOwAKb9G8LfLy4uRuLIuG7SRqg4hyeumrND/oT8UF+6u6QaiQecxSHp0rTzL34Qh9r3Ws6glfHPaEqdexgsUQmZS+IHNuXl2PRzShLNP8rczWU6X3qo6m7YCYxIdqpcbujSHLnH7ikn8KRqtN76E7lk3WCOisSDgKi98GCk2EtDHxzULkt2kVMf9Z9Qv5uf1QOixLxUenuROSh2wWU6l+qkH+syfRF9NvOtQbCLnfuz86lXlYDzvFi/HeywQHhRnYwRKK99VMK4hGvMPUu5fP6qLFIDidrWnbo2cb3HA7BMbR0uTbBBsHuzGa7NikfgebixO+TMhalOh6MHc4cXxwJgj8ORYImoO96PXZ0SCWrLHCIqOeU5I0wtFhwlpz+7EZh87joKzR4nuY9F5i4qwuekLTZ/biMWU4kIVefiBVmMfGyCWOIlwSTAwTmORJFyxKCL+jsd2WjK4ejLlCi/LERCbudLo/mueqPuQisrjfh+pLYX4zkoKpnT81xaSIpFVX+RlTROn37k1pWOsEy4f7nzNdG+ujy71WFpSEeuyvSOdZLuOq48DkziCE937k1HYzodPR/HbevDh2gqxX1vI3sT83gJ8Q7rgreU+2cGeV4wU4h3jEHq5shPz1VZu61nJdH2nGPWFnkAYlwrr5JFmAckgAVNQVusld+LBGuLzBHzu3Yp823yOxbn3INVADYWtupsZKcOdmlM9NYhaAUAsJbwYEPeX0VwCdhmsMDZiM5mWHgQPAC2JDy3qd2EsKxBK9CMSE24NAEAAGxaOGBleXmpKcuOwcIDAACw5vB8XN5IS15yrJlrbELwAAAArDkcfGIzKuTBfQm9USB4AAAA1hx+xcAuKl1pPs5agHZhaYZfQm8WEDwAAADrgo245EWiWdDYXWkXirb/WqHTy4xlSzGUlS0meOEi1C2wnJF52b7uF3Z5tRauqxqrxTRMuOzUWpeXiTiSUW/1vnSflfUurx7sM5Th3BJtT/9t/jRb2wz7TNmtCav9NEzOfiJaHGCdz52tNV4308IBKbzxXB2/dtDZuUOEzn3hvJlsOcE7b5YyapWFl7cMzrJTyVV0NgpeqcQsfRWuarMmrHd5YEPInGuymWyfwUb4Pp215Ph7VwzXArg0tzv24cQqG0Cwg8Y6MjOAbYMslcftYAMWK2BhY5HjyEubQmi9gOABAABYd9iaa8bqKXmoLnihrzoxL6PNbPYbxwvG8pacW4tW2rdbBd+xv1/9cyD++TTiCqg+L5PuC7d/E5x/WJ+pc5BBecFq+1I/qqyonrjctHm6LPMM4vfncwzKrHBvmkNYn5XmHcL9UuoqnDesp71IPaX8nTm2126aUZ69rqCO5X5WeL7i8uqbsw6fhcrHqt72LJzuyXtOK8zXZnuW7TVWvjb/OCnPstxD/vta7Tisz0ptL9iv7vnosA1Xbi/2GhPnEz3HOrlxvAh/2vE43ZNfZlhXWfpF2YevOWjv1Z/Tep6F9aei4MlFDxx0EpbaTAbJhsmrvsvq/5Ff+zgNOo2Nj3X6nj2O2swq935l64qTNQHtfu9NEA3kb2zceOLz4W2S5lVDSbu51eGGr7M7ROdeekJ9w/HNtSvfu6ljonRBY47biBvPqfvxcWw9eQ+TLk+yDNj9uK7MbyNUWf1z6px4nqi7n77irAq8X9FJLZR5noGzSuiMBLI/H9O5luaScn2qPG4//r0x+6kWF9/D+3Ta68DUPkNEE9HvbYaMnKJgEqj2Dfido2QO97IPNKm8rEhnM0jkJIodu3OQBusQvch9FR0nrUFkbHsKvl/S/mQ/nWEhzP/YnGfZHEeyUsTnRNzpJ8SMM3U4z6rpY+J2zMc6SXej89H1kEgjZuq9x00uzKe+Bn1HJqLnWNWz+ljmLBf2eAm3dPJZDtNQxW1BH68inOFCsn3oY+nsL2vU1teRCoJ3mQbClDc8IT/BD8BxOh1eNTeOaI4omfuNK/m8u9CfyXlWPBSnm4xFwl0TUJV5Iefck2qw/ZxZXHLTWZwkmeabLFy60i/53CbclCsj15WA+Mlx+fqiBqHKH1J1N1MKGiMHdXj+cpNjzUm6KeWpTrb2IsBOR1ws0nyODNdpcPbt6P6IADQzQWlM6vWpB5rrzr03Ns/cpDfveJnOe/WiPgfzkpJPkA7SkVynrtsG9Zx0HmadOZxm7jttsVnlZWN0gPPVTXrPjc1ZFz1/0jnHI3B/y9c5ZW97utONs8onn618z7KdU0xZC3T0u/o47rOsnqOJxP3ScDuOziuRh5MDivwydP5CN9mwEkWT83PMrQdV5nm3D8hA1r7DwinNWFi8frIOmvcs82Alrq/Kbd0Gam2NOeF0wTPZkCVJp4sRqrACvYzPCrl5QWfluxJMniwHyUtXtnnSGkAyhPNIxy1P56zLlr08Rs4pkR9Mn7sr1szIBWOxSWJNv6OyhK6ZMAGslOd1shXwsoPHWas3O5WuTye+tffGZoevXQ/ihXDqs95kuTZxaywknNlfdbQlv/NvVnm1MXWgLBSvPOPWip4/JzI2uaUISBUyt70UJJO982w161m+JJnwk8fR9yvsfMPnQAtpLMyK0M2fcNnqDP3lTEl0q5On7wDrxzoErbDYqQeVR03Rw1jLzdYoPLp0H3675esEBO+8nS0xEtYPi+BYtxYWu0G2PJ3zwqsV9cPiwwMGHtFG96TeVwGUcEiW/FP6noo7M+hom1peVly3mrN5nfgmQIRps8NipwYonkuwgsu2aWTuO8B6kS54JjN1wvSWka+etM6MWIvq2a3hdvtmTjW9nBZYKjNzqhG7bor6yX5OPD9gRT19TkNbLVO1zf5QLMVi3R5Ifaa4okZPKUspslqTLvE0tBVxm0r1mCQpiJUp56bdmWF7bXZ51clWB810aQp1tj1dN7HXoVnPsrYce+lc0A3p+dUnNJujG9KiXCUjvPANPZZTb9wCa1p/BppKxTm8uzyvcnbImWCN/du5HvqEL53FIenStPMTfhCH2vdazoluO1oPJ6MrELmpUiKx0s8pSTRnIXMNl+l8YrI42YFZi8FFu/acwBMzKt0sRC7ZRMBANqzr0A1o4mscVIMTV2BGSjoAZzgMUnE+JzqURutK5juO0+krPKh7SHeDNt688pJtQVv/5oMhvQ4CmujSrLvtpdy/fM+yne5IEWgbUDTk/J2ZIy/fuZ7r+kQ8XTcoDxYSLs1x+vQGD3yCgDq17xc5g1ay9h0W+2xVDhYzYpwzDmHt4f6cz716f5up7+A2V6ktRMTTY/UE1lV0afI83NgdcubCTARXMHFfm1gA7HE4cim5Ggf73MdMJKgtc4io5JTnjGi1WKgGZT67DZTPXUfQ2eMk97HI6LQifE7aYvN98fHN5RvJ5+IF+JhADI5mszdl5IJ/HIkiDV1i6u905Jgph6Mva0VTVSCebzKDi2g+KGeUWISxUisRNVbTeTvXGjVM6aDV9bhzUyYS2JvzTNvvJyfpruMKuvrJhJ4zjY5DNJlwUTlzx9J5O20i8eDp4Iues31EKZ1pM8sL2wJHPCbc21wHJtJQ/j7a6rDcspCp7ZlON3qW1ZZ2/7I8y5lIOY4SqXk3OCUr8kw692O4l6bHUp4ttV8UCWrL5FN3ysv2bNXuO/LBwSHh8fIfKxKexGsOa9SuhBp9hyGTa9x4DOsFCWABaDHEu8ADrtyDVwC2NusQtAIA2DiU1em51cwrR02IRARgqwELD4DtTjAf579HB0DrAMEDAADQEsClCQAAYMtgs6Lnh+j/B3/HydZnHn36AAAAAElFTkSuQmCCS3ue/u9izPksXP9LuXb1p/LP/68r8t/8e3D59+qIb+zr5qTdNabOJ3qOkRkOGRRdEiVsYZ0iXWqyDsK6ytMv6n1wT4P2Xvs5beRZIPXILdj6po0elIVpuM/sfI3OpJV+0JF1SGefiuZ1jsmY97DgWKduueOozWZZSjYWc+P1mshuvzdmRUazO4NaoPHH54NtTpZVQ89qnLXBA26yi0XnPv9IhifixukyL/mpF6N0m9Oe2xGN/+Tt+DiunhKdnSlPZ7ly+6Gu7G8jVFkjS+qcME/aPyI/RVYv7FfyUnPmnGdTXYC6HpMRS++PY3rX0loyrk+Vh/aTvDd2P9Xi4nt4W04lOmC1z7jIbPR7l6GtoKhN3pYy6mA02blffHNIfetnv2pReXnRneWYyHxc3vSNgzLWgGhH7s/oOFkNImfbU+B+6fan9zMZvsL87615lu1xdFa0+JwEopUSY2SK855V28fE7RjHOiE3o/Mx9ZBKw6vq/c+u/0h++8Gfyd/7/d+X3/nd35Pf/19F/u1/fCGyuOEyN0FlyrLe2yfdXe6d61X9O1jNnZ2mPt35/N0f/ECG/4+v5Hf+4z+R//bffar/PpdVHT3Hqp7VxwqyrEXXEE5rpJ/lMI1r3BbM8aqCDGs625w5lsk+uEFtnVQlp2BfktEwZSQCambxAB+TU+FdK/tpFNO5n9FIzvkLHducx6WBOF1+LHL+msiqzPMF517VAzcy6HJTO7wk//abPFz8YETnc571UxZOfqQEsCRDb8ZPOa4vatCq/HFVd+X54GFCUFZivsjmWC4NiKsFXZ4SifpJHDwhKZVk+Vpz89NlJQrR/dEC5ucvbx2Z16c6JNSdf29cnum5xLz7JTmXqBf1OZiX1/nE5aAcLnTqpm3I4AmvM7ogZ44r27J822uLrSovH1OjyFc9l3huXM7q6PnToh5bQMmtWOeav+0Z0fihN5AJn61iz7KbU89YC33qR+Y4/rOsnqPZ1P0yoB1H55XKw4+AwGQZJn95SQ7BdNUoUR8flm99/an8d6oeIMCYR1/7Z/9Q/v2Jf6ot4WSCEuPq7unq0K50CLBbkWz8x7X7Dv/dboCUwBDGRD/ZAK17ljHYiuurelt3gZbbLyZiJ5BPsC8cln7VlBc/Ce6AFdqwAcS5jA268QWdbdIVZfPkeui81BWXJ7kJBgfUI4iRpl+eyVnti2Me9Dml8gObc/cHG2DyvLWY4UYMOlpH6NozOb1jdHkJkahCZUniGocbzP64zal2fboziO6Nzbudox60F8irz89Hj9nfFMN03L4QnpEhCMV8UrxaVV59bB0oCzFRnnWLRs+fF5mf3jIEsAa5214Gl+8/SjxbrXqWLx45mHkcc79C8QifAzMQiAcWinCaKOXyPyqHcOp3ruu+CwKMuWz86+a23b/VwO8hxr9Z2pe77yCkGsXmsFsCxFp1NGq0Gbs367lpmwWje7/zcluxTkyTOG9vS1ki5mHXeN4FB8R6DJa/d158Na1xIJ4Y8MCiiO5Jo69SKeG7qjr7wZPmnmp3eCAULS0vL/BcubK8LSFC2wAtrNsdiLUaYCVcylVc/s2Cue11ZZ2vL+ftOwjJJp9ga3dS0u2r0ZaHCTrJjbbWVd9Tx217b0k9OgUt4EzKS+oh9N1cjZP/nDA/5gYl2XN6xmq8Wt9tFIq99hjsDHR9Zrgyp04qSzXyGqSnVLIwVtyCzDdiEmagrXx9bsYdHrbXVpdXm3x10EqXuKbBtmfqJvb6tOpZNpb7kJwJuiETX/BIHhTohsygwo9JyOKePNSn3tyZw8r++ZdPpaO/Bf0Z2dXknsO+iXnF0+NeQIaZ3ykV7bRSc0kQt7RL3M3PJYOw1L5XCgaqOGspDCapQuTmzIh0zT6nNNGcnZ5ruyTnUsEe6Q7YWWw+xjXsBY5Zq2C7ELn0UwE/+XCuZz8gEdc4pgZXvkBOzpsAuokwyMz7nBKFZutKz/cdk1MfYFB6V24Gbbx15aXbgvG+2A+W7DoIaKFLvOG2l3H/ij3LbrosY4DhAgLHvb+zMSKVGx8Vuj4t/r4bHYOdlEt8Rt69hoFbEBCr9v2wQMAqEpT8L//JtVx9h8M9W9WDPe1gomAczsaD/hznXru/zdV3oM1VawsR8fRqrcDY1pW3teR2iWMeevqGeHPBNoI0CLypTyxg7jiInEyvhoU5p2kbie7KHBeZ98rzLAojduqBsJ/9BwznbiJ43XHS+zi0dVAVnJOxmJNzUXHjRMPAuSQC9GwgFaJpXaOaPJ88jo5iD12q6u9M5KotB9Hf9aI5qxDPt9rBUTQfmm8gk8Z6CaoRNX4rPt61Rg+WFhh1Pf7crH0TITHnn7XfZyfkpudKvPzOrIkZiI4jMpdycXqxE1p8vDaRepBN8NTg6WGRDDFoZXlhW0DEdWp6BHVgI53130fbBnUuudqeFY3oWVZb1v3L8yznIuM4SmSX/eCyvOhn0rsfE0OyOJ3xbKn9okh0VyZO3Suv3rNlEpT8o7p9RzEQ3BUer/ixIiFLvSa2kaJVp++w5JpasR7b2rSwvC2G+bAJ2eVo7w4GjIUH39sTLEKCFdE2epEVLHiCLYzw9nELoSCSnJBm2YKgM0LI1qGs/oRb1r6yaSOhdwIuVzTEdCPZLglKyO6BFjYhu41gPjr5HnV74yxaoN+Z3mArG0INgfbBu9f4nsuLklZDwSaE7AjgCkdENgQUi5zA0t4M0YY17fJcu2QlG10m2Z10fOe7xxKCTQgh7Q7E27nGN0O0AQYKudJxEtIgnMMmhOw4YGm7ZUHBRs9nA4o12Wgo2ISQHYkTbeeuJqTdoWATQnY0TrQ3w8omZCMp2IK9hSA2/OX6HOjFORpdeGAn4VYXchvrhBCA97ERsQ0o2qTdaaj1xgkPGkieUQS7klmtJee2K2b1o80a0LiUdmrboAQGhLQTeL2rr6/PfkLU9qr9aXPmswlpPSL/P25TlyS1mOmbAAAAAElFTkSuQmCC;fontSize=17;labelPosition=left;align=right;" vertex="1" parent="1">
          <mxGeometry x="590" y="336" width="444" height="260" as="geometry" />
        </mxCell>
      </root>
    </mxGraphModel>
  </diagram>
</mxfile>
